<svg viewBox="0 0 329.9884338378906 199.98843383789062" xmlns="http://www.w3.org/2000/svg"><g><g><g><g><g><line x1="63.984375" y1="175.988" x2="58.984375" y2="175.988" style="visibility: inherit;" fill="rgb(0, 0, 0)" stroke="rgb(204, 204, 204)" stroke-width="1px"></line><line x1="63.984375" y1="150.84685714285712" x2="58.984375" y2="150.84685714285712" style="visibility: inherit;" fill="rgb(0, 0, 0)" stroke="rgb(204, 204, 204)" stroke-width="1px"></line><line x1="63.984375" y1="125.70571428571435" x2="58.984375" y2="125.70571428571435" style="visibility: inherit;" fill="rgb(0, 0, 0)" stroke="rgb(204, 204, 204)" stroke-width="1px"></line><line x1="63.984375" y1="100.56457142857144" x2="58.984375" y2="100.56457142857144" style="visibility: inherit;" fill="rgb(0, 0, 0)" stroke="rgb(204, 204, 204)" stroke-width="1px"></line><line x1="63.984375" y1="75.42342857142856" x2="58.984375" y2="75.42342857142856" style="visibility: inherit;" fill="rgb(0, 0, 0)" stroke="rgb(204, 204, 204)" stroke-width="1px"></line><line x1="63.984375" y1="50.28228571428567" x2="58.984375" y2="50.28228571428567" style="visibility: inherit;" fill="rgb(0, 0, 0)" stroke="rgb(204, 204, 204)" stroke-width="1px"></line><line x1="63.984375" y1="25.141142857142768" x2="58.984375" y2="25.141142857142768" style="visibility: inherit;" fill="rgb(0, 0, 0)" stroke="rgb(204, 204, 204)" stroke-width="1px"></line><line x1="63.984375" y1="0" x2="58.984375" y2="0" style="visibility: inherit;" fill="rgb(0, 0, 0)" stroke="rgb(204, 204, 204)" stroke-width="1px"></line></g><g transform="translate(53.984375, 0)"><text x="0" y="175.988" dx="0em" dy="0.3em" style="text-anchor: end; visibility: hidden; font-family: Roboto, sans-serif; font-size: 12px; font-weight: 200;" fill="rgb(33, 33, 33)" stroke="none" stroke-width="1px">-1.7</text><text x="0" y="150.84685714285712" dx="0em" dy="0.3em" style="text-anchor: end; visibility: inherit; font-family: Roboto, sans-serif; font-size: 12px; font-weight: 200;" fill="rgb(33, 33, 33)" stroke="none" stroke-width="1px">-1.65</text><text x="0" y="125.70571428571435" dx="0em" dy="0.3em" style="text-anchor: end; visibility: inherit; font-family: Roboto, sans-serif; font-size: 12px; font-weight: 200;" fill="rgb(33, 33, 33)" stroke="none" stroke-width="1px">-1.6</text><text x="0" y="100.56457142857144" dx="0em" dy="0.3em" style="text-anchor: end; visibility: inherit; font-family: Roboto, sans-serif; font-size: 12px; font-weight: 200;" fill="rgb(33, 33, 33)" stroke="none" stroke-width="1px">-1.55</text><text x="0" y="75.42342857142856" dx="0em" dy="0.3em" style="text-anchor: end; visibility: inherit; font-family: Roboto, sans-serif; font-size: 12px; font-weight: 200;" fill="rgb(33, 33, 33)" stroke="none" stroke-width="1px">-1.5</text><text x="0" y="50.28228571428567" dx="0em" dy="0.3em" style="text-anchor: end; visibility: inherit; font-family: Roboto, sans-serif; font-size: 12px; font-weight: 200;" fill="rgb(33, 33, 33)" stroke="none" stroke-width="1px">-1.45</text><text x="0" y="25.141142857142768" dx="0em" dy="0.3em" style="text-anchor: end; visibility: inherit; font-family: Roboto, sans-serif; font-size: 12px; font-weight: 200;" fill="rgb(33, 33, 33)" stroke="none" stroke-width="1px">-1.4</text><text x="0" y="0" dx="0em" dy="0.3em" style="text-anchor: end; visibility: hidden; font-family: Roboto, sans-serif; font-size: 12px; font-weight: 200;" fill="rgb(33, 33, 33)" stroke="none" stroke-width="1px">-1.35</text></g><line x1="63.984375" y1="0" x2="63.984375" y2="175.988" fill="rgb(0, 0, 0)" stroke="rgb(204, 204, 204)" stroke-width="1px"></line></g></g><g transform="translate(63, 0)" clip-path="url(#clip_0)"><clipPath id="clip_0"><rect width="265" height="175"></rect></clipPath><g><g><g><line x1="0" y1="0" x2="0" y2="175.988" fill="rgb(0, 0, 0)" stroke="rgb(66, 66, 66)" stroke-width="1px" opacity="0.25"></line><line x1="26.600362500000003" y1="0" x2="26.600362500000003" y2="175.988" fill="rgb(0, 0, 0)" stroke="rgb(66, 66, 66)" stroke-width="1px" opacity="0.25"></line><line x1="53.200725000000006" y1="0" x2="53.200725000000006" y2="175.988" fill="rgb(0, 0, 0)" stroke="rgb(66, 66, 66)" stroke-width="1px" opacity="0.25"></line><line x1="79.8010875" y1="0" x2="79.8010875" y2="175.988" fill="rgb(0, 0, 0)" stroke="rgb(66, 66, 66)" stroke-width="1px" opacity="0.25"></line><line x1="106.40145000000001" y1="0" x2="106.40145000000001" y2="175.988" fill="rgb(0, 0, 0)" stroke="rgb(66, 66, 66)" stroke-width="1px" opacity="0.25"></line><line x1="133.0018125" y1="0" x2="133.0018125" y2="175.988" fill="rgb(0, 0, 0)" stroke="rgb(66, 66, 66)" stroke-width="1px" opacity="0.25"></line><line x1="159.602175" y1="0" x2="159.602175" y2="175.988" fill="rgb(0, 0, 0)" stroke="rgb(66, 66, 66)" stroke-width="1px" opacity="0.25"></line><line x1="186.20253749999998" y1="0" x2="186.20253749999998" y2="175.988" fill="rgb(0, 0, 0)" stroke="rgb(66, 66, 66)" stroke-width="1px" opacity="0.25"></line><line x1="212.80290000000002" y1="0" x2="212.80290000000002" y2="175.988" fill="rgb(0, 0, 0)" stroke="rgb(66, 66, 66)" stroke-width="1px" opacity="0.25"></line><line x1="239.4032625" y1="0" x2="239.4032625" y2="175.988" fill="rgb(0, 0, 0)" stroke="rgb(66, 66, 66)" stroke-width="1px" opacity="0.25"></line><line x1="266.003625" y1="0" x2="266.003625" y2="175.988" fill="rgb(0, 0, 0)" stroke="rgb(66, 66, 66)" stroke-width="1px" opacity="0.25"></line></g><g><line x1="0" y1="175.988" x2="266.003625" y2="175.988" fill="rgb(0, 0, 0)" stroke="rgb(66, 66, 66)" stroke-width="1px" opacity="0.25"></line><line x1="0" y1="150.84685714285712" x2="266.003625" y2="150.84685714285712" fill="rgb(0, 0, 0)" stroke="rgb(66, 66, 66)" stroke-width="1px" opacity="0.25"></line><line x1="0" y1="125.70571428571435" x2="266.003625" y2="125.70571428571435" fill="rgb(0, 0, 0)" stroke="rgb(66, 66, 66)" stroke-width="1px" opacity="0.25"></line><line x1="0" y1="100.56457142857144" x2="266.003625" y2="100.56457142857144" fill="rgb(0, 0, 0)" stroke="rgb(66, 66, 66)" stroke-width="1px" opacity="0.25"></line><line x1="0" y1="75.42342857142856" x2="266.003625" y2="75.42342857142856" fill="rgb(0, 0, 0)" stroke="rgb(66, 66, 66)" stroke-width="1px" opacity="0.25"></line><line x1="0" y1="50.28228571428567" x2="266.003625" y2="50.28228571428567" fill="rgb(0, 0, 0)" stroke="rgb(66, 66, 66)" stroke-width="1px" opacity="0.25"></line><line x1="0" y1="25.141142857142768" x2="266.003625" y2="25.141142857142768" fill="rgb(0, 0, 0)" stroke="rgb(66, 66, 66)" stroke-width="1px" opacity="0.25"></line><line x1="0" y1="0" x2="266.003625" y2="0" fill="rgb(0, 0, 0)" stroke="rgb(66, 66, 66)" stroke-width="1px" opacity="0.25"></line></g></g></g><g><g><line x1="0" y1="-678.8108571428573" x2="266.003625" y2="-678.8108571428573" fill="rgb(0, 0, 0)" stroke="rgb(153, 153, 153)" stroke-width="1.5px"></line></g></g><g><g><line x1="26.600362500000003" y1="0" x2="26.600362500000003" y2="175.988" fill="rgb(0, 0, 0)" stroke="rgb(153, 153, 153)" stroke-width="1.5px"></line></g></g><g><g><g><g><g><path stroke="rgb(255, 112, 67)" stroke-width="2px" d="M27.13236975,114.37151310838972L27.664376999999998,134.28475171637535L28.196384249999998,181.80563729607604L32.9844495,204.30749852821452L33.51645675,141.70587406778972L34.048464,168.26661975908343L34.58047125,160.91620997362705L35.1124785,169.34419217717513L35.64448575,181.6539509511934L36.176493,151.50456803029766L36.70850025,188.49627406325277L37.24050750000001,190.14036443301327L37.77251475,175.2289580355984L38.304522,173.40124467490173L38.83652925,166.9136018306369L39.3685365,135.94540474305708L39.90054375,148.93016219802664L40.432551,162.28131195548977L40.964558249999996,158.73786211977952L41.4965655,189.67502058525272L42.02857275,165.02657168662805L42.56058,164.91180160487735L43.09258725,148.1646225164667L43.6245945,149.67062250527368L44.15660175,142.7062500601847L44.688609,145.78467874227937L45.220616250000006,120.82499569906614L45.7526235,100.19611173117899L46.28463075,87.81878148662274L46.816638,80.61864926379782L47.34864525,85.23404598084946L47.8806525,81.13954215332701L48.412659749999996,81.06859375976063L48.944667,75.17068492722542L49.47667425,67.8301358717094L50.0086815,48.750245483801024L50.54068875,56.33329247811976L51.072696,20.997076932400084L51.60470325,25.58709176704243L52.1367105,16.098431336301108L52.66871775,30.62791840335129L53.200725000000006,28.95135871477042L53.732732250000005,37.86343036104653L54.2647395,17.557417234840088L54.79674675,17.764125744717365L55.328753999999996,23.57390512692504L55.860761249999996,26.27037171385198L56.392768499999995,32.09930965649154L56.92477575,40.858978398942774L57.456783,8.298312195218989L57.98879025,18.18553920159265L58.5207975,15.18724263705736L59.05280475,25.007234317542657L59.584812,7.263904202455095L60.11681925,8.834465097178473L60.648826500000006,26.935556827450405L61.180833750000005,8.007447593740942L61.712841000000004,12.518732238146772L62.244848250000004,13.930702135093846L62.776855499999996,29.699971011302726L63.308862749999996,29.530451201141997L63.840869999999995,27.804669669572622L64.37287725,27.115948347371695L64.9048845,27.259952512691154L65.43689175,28.7782293361364L65.968899,38.53013225336716L66.50090625,32.103359273088735L67.0329135,18.42802309700835L67.56492075,25.906952228391912L68.096928,48.31604388167802L68.62893525,37.79175005511592L69.1609425,33.82703489275406L69.69294975,38.74764790894074L70.224957,29.26042770323269L70.75696425000001,26.347015504952648L71.2889715,31.21047764534398L71.82097875000001,20.590773014731475L72.352986,33.03435908744256L72.88499325000001,37.161908248137344L73.4170005,43.391473377096425L73.94900775,45.878624161123746L74.48101500000001,21.128724675965042L75.01302224999999,18.68907376344735L75.5450295,27.408614206319257L76.07703674999999,32.542346670916835L76.609044,23.196832552960668L77.14105124999999,25.57956023734277L77.6730585,31.209201689367823L78.20506574999999,32.641944015264265L78.737073,33.65367211071409L79.26908025,37.02224595801345L79.8010875,31.377587809945993L80.33309475,11.806752846620807L80.865102,18.505292238476937L81.39710925,34.642671342231665L81.92911649999999,40.73680544391062L82.46112375,51.52522845339735L82.993131,44.04100816110179L83.52513825,55.76966555383522L84.0571455,33.121578128578804L84.58915275,19.728733252138493L85.12116,9.95389363856955L85.65316725,15.678252652933764L86.1851745,18.369094226778643L86.71718175000001,36.8315235082003L87.249189,29.84643313993257L87.78119625000001,15.231827753527437L88.3132035,41.34378200629472L88.84521075,17.95485605865698L89.377218,16.85442819229692L89.90922525,21.715639029570614L90.44123250000001,20.376879156943456L90.97323975,17.70772698986302L91.505247,20.14938651511535L92.03725424999999,29.032891455294603L92.5692615,35.00889633536117L93.10126874999999,36.53158842976982L93.633276,33.781552305058696L94.16528325,21.337087570583105L94.6972905,34.827730857648724L95.22929775,-13.0007275293735L95.761305,10.271203293973455L96.29331225,14.091263301217534L96.82531949999999,18.13873598758388L97.35732675,16.07355104863997L97.889334,32.30838985116007L98.42134125,42.70907742026107L98.9533485,45.69003378060433L99.48535575,51.625072998050925L100.017363,46.395246534949386L100.54937025,52.37490392497607L101.0813775,29.934546281725915L101.61338475,15.35818349533205L102.145392,20.566379122620383L102.67739925000001,12.594198556640995L103.2094065,20.469910814783756L103.74141375,18.792735625702313L104.273421,10.564504301032516L104.80542825,39.40258445873662L105.3374355,43.31429068149804L105.86944275,24.753767422989224L106.40145000000001,43.46707000089092L106.93345725,34.1324059646153L107.46546450000001,48.74750552912578L107.99747175,52.8784864850693L108.529479,35.02736080616351L109.06148624999999,34.57892292639472L109.5934935,28.297210836241817L110.12550075,29.826813899293157L110.65750799999999,43.64830010835289L111.18951525,33.167597932835726L111.72152249999999,23.715338577773082L112.25352975,28.37258733975724L112.78553699999999,36.011141025484356L113.31754425,26.516013910530734L113.8495515,36.68018260506828L114.38155875,49.1855781524967L114.913566,57.6134917232371L115.44557325,54.19988324271298L115.9775805,52.96487987085971L116.50958775,44.627415320063946L117.041595,22.02367180926947L117.57360225000001,37.429211931517564L118.1056095,23.2037034351992L118.63761675,7.653724665685776L119.169624,21.775930308858747L119.70163125,5.247078412693036L120.2336385,-19.10039458751603L120.76564575,-6.043038034356872L121.29765300000001,7.526162039070384L121.82966025,8.923223140713423L122.36166750000001,8.005399731661354L122.89367475,35.63500898954006L123.42568200000001,37.036417224299086L123.95768925,36.61200027692296L124.48969650000001,23.102730212562236L125.02170374999999,29.173251466225803L125.55371099999999,13.380987206770516L126.08571825,15.578449404467344L126.61772549999999,35.549679254409625L127.14973275,34.75809375979028L127.68173999999999,27.62116255066951L128.21374724999998,34.17679632855402L128.7457545,40.40417257186906L129.27776175,30.10161243659763L129.809769,31.351700705301443L130.34177625,31.233278251702526L130.8737835,44.19108230713976L131.40579075,34.74045088781962L131.937798,39.00052327949172L132.46980525,32.73943851832371L133.0018125,27.391182146006564L133.53381975,36.97391068585401L134.065827,20.86279258526195L134.59783425,25.506521158587795L135.1298415,31.234502382717974L135.66184875,49.04414923498094L136.193856,11.998483472023274L136.72586325,31.104754613504863L137.2578705,33.95979251190787L137.78987775000002,48.14973461805873L138.321885,40.39816381215172L138.85389225,44.96466053813683L139.3858995,38.41574143614585L139.91790675000001,28.722592314123688L140.449914,34.990048580547494L140.98192125,38.63984699075746L141.51392850000002,35.84099149403679L142.04593575,41.84284956473966L142.577943,45.812986137311825L143.10995025,51.94208562137803L143.64195750000002,33.33898621016806L144.17396475,37.69519642308307L144.705972,51.48200190198482L145.23797925000002,59.568003865974596L145.76998650000002,53.04485966941642L146.30199375,42.52586540753708L146.834001,48.01441280651218L147.36600825000002,44.37107879396245L147.8980155,42.655472598882824L148.43002275,47.580375558601645L148.96203000000003,64.6995802308344L149.49403725000002,60.10468944142692L150.02604449999998,46.287532824336644L150.55805174999998,59.88434421057144L151.090059,67.91864056782934L151.62206625,41.65373510363704L152.15407349999998,53.40483312684891L152.68608074999997,72.36246682426437L153.218088,64.68580570916089L153.75009525,59.95515541297559L154.28210249999998,64.81704584439532L154.81410975,67.64784086276426L155.346117,64.1182263085172L155.87812424999998,41.976635028601365L156.41013149999998,32.964285829673926L156.94213875,38.332066270797164L157.474146,51.98081725227661L158.00615324999998,58.22274753193406L158.5381605,69.06162976741665L159.07016775,65.77306784065712L159.602175,70.80757925289105L160.13418224999998,72.57446098448256L160.6661895,66.57877274253188L161.19819675,74.33270414517914L161.730204,68.62188455321288L162.26221125,69.74207330678301L162.7942185,70.27027983263288L163.32622575,55.75709051920856L163.85823299999998,53.70861533850698L164.39024025,60.03787018282745L164.9222475,62.41985275948112L165.45425475,65.00125517430001L165.986262,61.40297357086685L166.51826925,73.41752241962843L167.0502765,66.57043437114088L167.58228375,72.00478953231324L168.114291,74.81956031388779L168.64629825,70.51394757890967L169.1783055,45.58310253019494L169.71031275,51.57096038547885L170.24232,64.3586963159954L170.77432725,55.231606226268894L171.3063345,45.677771147173125L171.83834175,58.89605824483559L172.370349,60.89880226464606L172.90235625,67.18703116173121L173.43436350000002,64.53585906939682L173.96637075,72.900590530902L174.498378,71.19314462376056L175.03038525,70.18459745039509L175.56239250000002,55.22533664559102L176.09439975,56.96653948473888L176.626407,60.9208288560525L177.15841425000002,62.81432878706374L177.6904215,58.492738578107215L178.22242875,63.573666976951074L178.754436,67.86614685310617L179.28644325000002,54.428978456319975L179.8184505,66.78074086483815L180.35045775,67.84103287731868L180.88246500000002,52.29650073857206L181.41447225000002,58.904442346175735L181.9464795,67.69049024138461L182.47848675,69.01616873088167L183.010494,66.7154473041592L183.54250125,71.21785524391518L184.07450849999998,70.74529593803175L184.60651575,61.685080450108934L185.138523,59.18489293363088L185.67053024999998,65.5049193675524L186.20253749999998,56.55181515431444L186.73454475,56.90663472367037L187.266552,60.24656064551642L187.79855924999998,70.79853258274885L188.3305665,45.196232950462715L188.86257375,47.8358535296727L189.394581,65.19853566941748L189.92658824999998,77.47141962400165L190.4585955,79.38076858097617L190.99060275,76.26803838116449L191.52261,45.97800661885197L192.05461725,62.66163968941157L192.5866245,67.0140218104296L193.11863175,75.2495378984657L193.65063899999998,77.43513684157934L194.18264625,74.0945350530546L194.7146535,65.24853843611649L195.24666075,55.35793561692852L195.778668,65.99905372223407L196.31067525,54.180075168085175L196.8426825,51.59674246369639L197.37468975,63.32529124630162L197.906697,57.28925448607097L198.43870425,57.26268715285478L198.9707115,64.67012319978522L199.50271874999999,70.48186656295499L200.034726,57.5461148955061L200.56673325,68.22532064149244L201.0987405,69.05076403548226L201.63074775,74.25481544174923L202.162755,74.75659498753141L202.69476225,60.14252895100624L203.2267695,55.26124929133646L203.75877675,62.23164345559143L204.290784,53.91804315833757L204.82279125,54.574349788304296L205.35479850000002,55.209384929222054L205.88680575,60.629682938995934L206.418813,73.10786055140507L206.95082025,58.440683855453365L207.4828275,50.2183064834249L208.01483475,46.345646702097135L208.546842,57.547101246704656L209.07884925000002,61.37902606316038L209.6108565,62.49585364764875L210.14286375,60.620081486052705L210.674871,68.7981089215606L211.20687825000002,33.66588783806992L211.7388855,47.21348181990296L212.27089275,59.72824425606098L212.80290000000002,61.93185389703776L213.33490725000001,61.32293143732199L213.8669145,58.36332474842739L214.39892175,41.927848223210646L214.93092900000002,31.13512470344886L215.46293625,51.59481609371494L215.9949435,45.69292404267302L216.52695075,45.29908310286305L217.058958,58.46722734737452L217.59096524999998,57.59390356529813L218.12297249999997,48.29126332175691L218.65497975,55.66147635362813L219.186987,66.54717886016367L219.71899424999998,62.13744533206323L220.2510015,75.88107561805684L220.78300875,59.42464042665946L221.31501599999999,63.331514718424145L221.84702324999998,71.42066338438606L222.3790305,75.10872868444903L222.91103775,74.55720165191437L223.44304499999998,75.08469073307883L223.97505225,75.0376051085528L224.5070595,69.64087998222412L225.03906675,70.22049710467348L225.57107399999998,75.61548051236369L226.10308125,62.958689534224845L226.6350885,65.07189328018814L227.16709575,60.40046221050527L227.699103,62.331732059143555L228.23111025,55.73688970720073L228.7631175,62.786115540694325L229.29512474999999,62.17183023564968L229.827132,60.60004824863724L230.35913925,64.38115731505327L230.8911465,76.78867740785257L231.42315375,84.26543780522874L231.955161,75.39228881948108L232.48716825,63.70370367084766L233.0191755,64.61736280592827L233.55118275,76.01277353998913L234.08319,84.27403002506861L234.61519725,76.07943064299695L235.14720450000002,79.02870090626679L235.67921175,65.891521062014L236.211219,74.49844961764659L236.74322625,74.02897730363405L237.2752335,76.43073956777958L237.80724075,72.04108095936104L238.339248,60.09801673444758L238.87125525000002,60.45987623351339L239.4032625,63.28287373019852" style="fill: none;" fill="none"></path></g></g></g></g><g opacity="0.2"><g><g><g><path stroke="rgb(255, 112, 67)" stroke-width="2px" d="M27.13236975,114.37151310838972L27.664376999999998,146.23269488116674L28.196384249999998,227.4256874525888L30.324413250000003,182.89654186167039L30.856420500000002,172.23133193343028L31.388427749999998,263.9034171450479L32.9844495,185.27488703237265L33.51645675,48.0078425426483L34.048464,208.05570303017754L34.58047125,149.8992354262216L35.1124785,181.98022141647343L35.64448575,200.11338003485545L36.176493,106.28814857401166L36.70850025,243.97819779859276L37.24050750000001,192.60634971128192L37.77251475,152.86266621644157L38.304522,170.65973477554323L38.83652925,157.1822656514304L39.3685365,89.49347595950535L39.90054375,168.40720609038218L40.432551,182.3079796551296L40.964558249999996,153.4226964329311L41.4965655,236.08071078763692L42.02857275,128.053921043396L42.56058,164.73964654568266L43.09258725,123.04385943739756L43.6245945,151.9296221888406L44.15660175,132.25969222395761L44.688609,150.40232154491972L45.220616250000006,83.38547220693314L45.7526235,69.25278631128582L46.28463075,69.25278631128582L46.816638,69.81845099639891L47.34864525,92.1571410307203L47.8806525,74.99778642572673L48.412659749999996,80.96217116955347L48.944667,66.32382168551852L49.47667425,56.81931229373386L50.0086815,20.130409910201987L50.54068875,67.70786296762736L51.072696,-32.00724638066979L51.60470325,32.47211401857644L52.1367105,1.8654406907217314L52.66871775,52.42214900343756L53.200725000000006,26.436519181932688L53.732732250000005,51.231537830352764L54.2647395,-12.90160245432178L54.79674675,18.074188509532352L55.328753999999996,32.28857420022144L55.860761249999996,30.31507159423824L56.392768499999995,40.84271657044544L56.92477575,53.99848151261463L57.456783,-40.54268711035597L57.98879025,33.01637971115108L58.5207975,10.689797790254833L59.05280475,39.73722183826989L59.584812,-19.35109097017566L60.11681925,11.190306439263443L60.648826500000006,54.08719442285808L61.180833750000005,-20.3847162568229L61.712841000000004,19.285659204755465L62.244848250000004,16.048656980514487L62.776855499999996,53.353874325616005L63.308862749999996,29.27617148590084L63.840869999999995,25.21599737221851L64.37287725,26.082866364070316L64.9048845,27.475958760670224L65.43689175,31.05564457130428L65.968899,53.157986629213575L66.50090625,22.463199802671117L67.0329135,-2.0849811671121117L67.56492075,37.125345925467336L68.096928,81.92968136160714L68.62893525,22.005309315272708L69.1609425,27.87996214921131L69.69294975,46.128567433220965L70.224957,15.029597394670725L70.75696425000001,21.976897207532566L71.2889715,38.505670855930845L71.82097875000001,4.661216068812728L72.352986,51.6997381965092L72.88499325000001,43.353231989179314L73.4170005,52.735821070534826L73.94900775,49.60935033716472L74.48101500000001,-15.99612455177311L75.01302224999999,15.029597394670725L75.5450295,40.487924870627246L76.07703674999999,40.24294536781307L76.609044,9.178561376026652L77.14105124999999,29.153651763915978L77.6730585,39.653663867405456L78.20506574999999,34.79105750410895L78.737073,35.171264253888786L79.26908025,42.07510672896246L79.8010875,22.910600587844808L80.33309475,-17.549499598366936L80.865102,28.553101326261224L81.39710925,58.84873999786375L81.92911649999999,49.87800659642899L82.46112375,67.70786296762736L82.993131,32.814677722658395L83.52513825,73.36265164293559L84.0571455,-0.850553009305715L85.12116,-4.708365781784097L85.65316725,24.264791174479864L86.1851745,22.40535658754617L86.71718175000001,64.5251674303327L87.249189,19.36879758753091L87.78119625000001,-6.690080326080361L88.3132035,80.51171338544572L88.84521075,-17.128532862799563L89.377218,15.20378639275684L89.90922525,29.007455285481015L90.44123250000001,18.368739348002812L90.97323975,13.703998739242515L91.505247,23.811875802993736L92.03725424999999,42.35814886556349L92.5692615,43.972903655460875L93.10126874999999,38.81562657138276L93.633276,29.656498117991827L94.16528325,2.670390468869846L94.6972905,55.06369578824723L95.22929775,-84.74341510990695L95.761305,45.179099528993845L96.29331225,19.821353312083623L96.82531949999999,24.209945017133396L97.35732675,12.975773640223881L97.889334,56.660648054940346L98.42134125,58.31010877391269L98.9533485,50.16146832111901L99.48535575,60.52763182422092L100.017363,38.550506840297125L100.54937025,61.344390010016284L101.0813775,-3.725990183149099L101.61338475,-6.5063606842586585L102.145392,28.37867256355282L102.67739925000001,0.6359277076720801L103.2094065,32.283479201998L103.74141375,16.276972842080216L104.273421,-1.7778426859719747L104.80542825,82.65970469529287L105.3374355,49.18185001564024L105.86944275,-3.087017464774051L106.40145000000001,71.53702386774333L106.93345725,20.130409910201987L107.46546450000001,70.67015487589153L107.99747175,59.07495791898453L108.529479,8.250672287804704L109.06148624999999,33.90626610674175L109.5934935,18.87464270101271L110.12550075,32.1212184938703L110.65750799999999,64.38052942194255L111.18951525,17.446544669559977L111.72152249999999,9.53694954517905L112.25352975,35.35846048273357L112.78553699999999,47.46897155407494L113.31754425,12.273323238100291L113.8495515,51.926435646874545L114.38155875,67.94367147363933L114.913566,70.25536207934788L115.44557325,49.07947052192686L115.9775805,51.11237481307982L116.50958775,32.1212184938703L117.041595,-11.881943456922292L117.57360225000001,60.53752211488994L118.1056095,1.8654406907217314L118.63761675,-15.67124348858428L119.169624,42.9592387736184L119.70163125,-19.546199431555667L120.2336385,-55.62160408782967L120.76564575,13.542996795381786L121.29765300000001,27.87996214921131L121.82966025,11.018814793177983L122.36166750000001,6.628664618083358L122.89367475,77.07942287635801L123.42568200000001,39.13852957643779L123.95768925,35.9753748558589L124.48969650000001,2.838825116021256L125.02170374999999,38.27903334672107L125.55371099999999,-10.307409182412345L126.08571825,18.87464270101271L126.61772549999999,65.50652402932302L127.14973275,33.570715517861466L127.68173999999999,16.915765736988565L128.21374724999998,44.01024699538092L128.7457545,49.745236936841664L129.27776175,14.647772233690501L129.809769,33.22683310835699L130.34177625,31.05564457130428L130.8737835,63.62778839029583L131.40579075,20.56450375883917L131.937798,45.390631867L132.46980525,23.347811376571617L133.0018125,19.36879758753091L133.53381975,51.34800349562506L134.065827,-3.3038845656259053L134.59783425,32.47211401857644L135.1298415,39.826474218913454L135.66184875,75.75861951337541L136.193856,-43.57001517241347L136.72586325,59.764161325727166L137.2578705,38.24234935951229L137.78987775000002,69.43464777728488L138.321885,28.770807603291075L138.85389225,51.81440562711442L139.3858995,28.592362783159494L139.91790675000001,14.182868631090404L140.449914,44.39123298018316L140.98192125,44.11454460607253L141.51392850000002,31.642708248955827L142.04593575,50.84563667079377L142.577943,51.76819099617003L143.10995025,61.13573484747748L143.64195750000002,5.434337093353232L144.17396475,44.229511742455585L144.705972,72.16221012033732L145.23797925000002,71.69700681195938L145.76998650000002,43.26014337457927L146.30199375,26.747374014718154L146.834001,56.24723390497478L147.36600825000002,38.906077775137746L147.8980155,40.082063306263485L148.43002275,54.96772999817981L148.96203000000003,90.37838723918368L149.49403725000002,53.21235325731548L150.02604449999998,25.56179789870123L150.55805174999998,80.2795612899235L151.090059,79.97008510371616L151.62206625,2.2563769073485935L152.15407349999998,71.03148016166685L152.68608074999997,100.79891737038747L153.218088,53.17081403650554L153.75009525,52.85917996869767L154.28210249999998,72.10988149152482L154.81410975,71.89403339031762L155.346117,58.823804477146666L155.87812424999998,8.764248108727555L156.41013149999998,19.445762031282666L156.94213875,46.383736932482L157.474146,72.45394372449601L158.00615324999998,67.58564295142035L158.5381605,85.31995312064033L159.07016775,60.840224950517914L159.602175,78.35934637124197L160.13418224999998,75.22478358186991L160.6661895,57.58524037960595L161.19819675,85.96360124914986L161.730204,60.05565516526355L162.26221125,71.42235643713813L162.7942185,71.06258962140762L163.32622575,33.98730654907223L163.85823299999998,50.635902567454714L164.39024025,69.5317524493081L164.9222475,65.99282662446157L165.45425475,68.87335879652838L165.986262,56.005551165716966L166.51826925,91.4393456927708L167.0502765,56.29980229840958L167.58228375,80.15632227407181L168.114291,79.04171648624964L168.64629825,64.05552847644259L169.1783055,8.186834957122764L169.71031275,60.5527471684047L170.24232,83.54030021177017L170.77432725,41.54097109167914L171.3063345,31.347018528529546L171.83834175,78.72348889132907L172.370349,63.90291829436163L172.90235625,76.61937450735908L173.43436350000002,60.55910093089511L173.96637075,85.44768772315977L174.498378,68.63197576304843L175.03038525,68.67177669034683L175.56239250000002,32.78644543838497L176.09439975,59.57834374346049L176.626407,66.8522629130227L177.15841425000002,65.65457868358065L177.6904215,52.010353264672396L178.22242875,71.19505957521709L178.754436,74.30486666733877L179.28644325000002,34.27322586114063L179.8184505,85.30838447761533L180.35045775,69.43147089603967L180.88246500000002,28.97970253045215L181.41447225000002,68.81635475758141L181.9464795,80.86956208419798L182.47848675,71.00468646512711L183.010494,63.264365164075556L183.54250125,77.97146715354917L184.07450849999998,70.03645697920662L184.60651575,48.09475721822464L185.138523,55.43461165891373L185.67053024999998,74.98495901843478L186.20253749999998,43.12215883445738L186.73454475,57.438864077704274L187.266552,65.25644952828543L187.79855924999998,86.62649048859731L188.3305665,6.792783502033731L188.86257375,51.79528439848761L189.394581,91.24255887903483L189.92658824999998,95.88074555587768L190.4585955,82.24479201643807L190.99060275,71.59894308144705L191.52261,0.5429589753831633L192.05461725,87.68708929525101L192.5866245,73.5425949919564L193.11863175,87.60281203051974L193.65063899999998,80.71353525624954L194.18264625,69.08363237026757L194.7146535,51.97954351070946L195.24666075,40.5220313881465L195.778668,81.96073088019234L196.31067525,36.45160733686171L196.8426825,47.721743407113195L197.37468975,80.9181144202096L197.906697,48.2351993457249L198.43870425,57.22283615303038L198.9707115,75.78127727018082L199.50271874999999,79.1994816077096L200.034726,38.142487394332846L200.56673325,84.24412926047188L201.0987405,70.28892912646701L201.63074775,82.06089255114962L202.162755,75.50926430620464L202.69476225,38.2214298962184L203.2267695,47.9393298018319L203.75877675,72.68723470197403L204.290784,41.447642712456805L204.82279125,55.55880973325455L205.35479850000002,56.161937640598815L205.88680575,68.76012995365686L206.418813,91.82512697001864L206.95082025,36.43991881152559L207.4828275,37.88474042538232L208.01483475,40.53665703010557L208.546842,74.34928306361606L209.07884925000002,67.12691328784396L209.6108565,64.17109502438134L210.14286375,57.80642324365886L210.674871,81.06515007482254L211.20687825000002,-19.032443787166116L211.7388855,67.53487279265265L212.27089275,78.50038791029793L212.80290000000002,65.23726835850304L213.33490725000001,60.40954774774821L213.8669145,53.92391471508569L214.39892175,17.274633435385525L214.93092900000002,14.94603942380629L215.46293625,82.28435317911418L215.9949435,36.84008596611019L216.52695075,44.7083216931479L217.058958,78.21944371414183L217.59096524999998,56.28391789218356L218.12297249999997,34.33730295644484L218.65497975,66.71679590143474L219.186987,82.87573261996677L219.71899424999998,55.5228450399126L220.2510015,96.4965210470472L220.78300875,34.7399876395634L221.31501599999999,69.19182615607123L221.84702324999998,83.55438638332912L222.3790305,80.64082663454326L222.91103775,73.72991110311234L223.44304499999998,75.87592435482567L223.97505225,74.96697667176382L224.5070595,61.54579229273113L225.03906675,71.08992278834751L225.57107399999998,83.70795562389918L226.10308125,43.97350306701658L226.6350885,68.24169889913284L227.16709575,53.393315605980995L227.699103,65.22863683210099L228.23111025,45.84462617928638L228.7631175,73.35995429093497L229.29512474999999,61.25040227808269L229.827132,58.2423752681187L230.35913925,70.0528209146772L230.8911465,95.39995754705154L231.42315375,95.48057840129307L231.955161,62.08256534085953L232.48716825,46.170825947897754L233.0191755,65.98785150854926L233.55118275,93.10588964108058L234.08319,96.66591475268773L234.61519725,63.78753156988959L235.14720450000002,83.45260630117143L235.67921175,46.185751295634645L236.211219,87.40884245109557L236.74322625,73.32476883261543L237.2752335,80.03338296399797L237.80724075,65.4565930467333L238.339248,42.18342039707726L238.87125525000002,61.002665482112306L239.4032625,67.51736997522625" style="fill: none;" fill="none"></path></g></g></g></g></g></g><g transform="translate(63, 175)" clip-path="url(#clip_1)"><clipPath id="clip_1"><rect width="265" height="23"></rect></clipPath><g><g><line x1="0" y1="0" x2="0" y2="5" style="visibility: inherit;" fill="rgb(0, 0, 0)" stroke="rgb(204, 204, 204)" stroke-width="1px"></line><line x1="26.600362500000003" y1="0" x2="26.600362500000003" y2="5" style="visibility: inherit;" fill="rgb(0, 0, 0)" stroke="rgb(204, 204, 204)" stroke-width="1px"></line><line x1="53.200725000000006" y1="0" x2="53.200725000000006" y2="5" style="visibility: inherit;" fill="rgb(0, 0, 0)" stroke="rgb(204, 204, 204)" stroke-width="1px"></line><line x1="79.8010875" y1="0" x2="79.8010875" y2="5" style="visibility: inherit;" fill="rgb(0, 0, 0)" stroke="rgb(204, 204, 204)" stroke-width="1px"></line><line x1="106.40145000000001" y1="0" x2="106.40145000000001" y2="5" style="visibility: inherit;" fill="rgb(0, 0, 0)" stroke="rgb(204, 204, 204)" stroke-width="1px"></line><line x1="133.0018125" y1="0" x2="133.0018125" y2="5" style="visibility: inherit;" fill="rgb(0, 0, 0)" stroke="rgb(204, 204, 204)" stroke-width="1px"></line><line x1="159.602175" y1="0" x2="159.602175" y2="5" style="visibility: inherit;" fill="rgb(0, 0, 0)" stroke="rgb(204, 204, 204)" stroke-width="1px"></line><line x1="186.20253749999998" y1="0" x2="186.20253749999998" y2="5" style="visibility: inherit;" fill="rgb(0, 0, 0)" stroke="rgb(204, 204, 204)" stroke-width="1px"></line><line x1="212.80290000000002" y1="0" x2="212.80290000000002" y2="5" style="visibility: inherit;" fill="rgb(0, 0, 0)" stroke="rgb(204, 204, 204)" stroke-width="1px"></line><line x1="239.4032625" y1="0" x2="239.4032625" y2="5" style="visibility: inherit;" fill="rgb(0, 0, 0)" stroke="rgb(204, 204, 204)" stroke-width="1px"></line><line x1="266.003625" y1="0" x2="266.003625" y2="5" style="visibility: inherit;" fill="rgb(0, 0, 0)" stroke="rgb(204, 204, 204)" stroke-width="1px"></line></g><g transform="translate(0, 8)"><text x="0" y="0" dx="0em" dy="0.95em" style="text-anchor: middle; visibility: hidden; font-family: Roboto, sans-serif; font-size: 12px; font-weight: 200;" fill="rgb(33, 33, 33)" stroke="none" stroke-width="1px">-200k</text><text x="26.600362500000003" y="0" dx="0em" dy="0.95em" style="text-anchor: middle; visibility: inherit; font-family: Roboto, sans-serif; font-size: 12px; font-weight: 200;" fill="rgb(33, 33, 33)" stroke="none" stroke-width="1px">0</text><text x="53.200725000000006" y="0" dx="0em" dy="0.95em" style="text-anchor: middle; visibility: hidden; font-family: Roboto, sans-serif; font-size: 12px; font-weight: 200;" fill="rgb(33, 33, 33)" stroke="none" stroke-width="1px">200k</text><text x="79.8010875" y="0" dx="0em" dy="0.95em" style="text-anchor: middle; visibility: inherit; font-family: Roboto, sans-serif; font-size: 12px; font-weight: 200;" fill="rgb(33, 33, 33)" stroke="none" stroke-width="1px">400k</text><text x="106.40145000000001" y="0" dx="0em" dy="0.95em" style="text-anchor: middle; visibility: hidden; font-family: Roboto, sans-serif; font-size: 12px; font-weight: 200;" fill="rgb(33, 33, 33)" stroke="none" stroke-width="1px">600k</text><text x="133.0018125" y="0" dx="0em" dy="0.95em" style="text-anchor: middle; visibility: inherit; font-family: Roboto, sans-serif; font-size: 12px; font-weight: 200;" fill="rgb(33, 33, 33)" stroke="none" stroke-width="1px">800k</text><text x="159.602175" y="0" dx="0em" dy="0.95em" style="text-anchor: middle; visibility: hidden; font-family: Roboto, sans-serif; font-size: 12px; font-weight: 200;" fill="rgb(33, 33, 33)" stroke="none" stroke-width="1px">1M</text><text x="186.20253749999998" y="0" dx="0em" dy="0.95em" style="text-anchor: middle; visibility: inherit; font-family: Roboto, sans-serif; font-size: 12px; font-weight: 200;" fill="rgb(33, 33, 33)" stroke="none" stroke-width="1px">1.2M</text><text x="212.80290000000002" y="0" dx="0em" dy="0.95em" style="text-anchor: middle; visibility: hidden; font-family: Roboto, sans-serif; font-size: 12px; font-weight: 200;" fill="rgb(33, 33, 33)" stroke="none" stroke-width="1px">1.4M</text><text x="239.4032625" y="0" dx="0em" dy="0.95em" style="text-anchor: middle; visibility: inherit; font-family: Roboto, sans-serif; font-size: 12px; font-weight: 200;" fill="rgb(33, 33, 33)" stroke="none" stroke-width="1px">1.6M</text><text x="266.003625" y="0" dx="0em" dy="0.95em" style="text-anchor: middle; visibility: hidden; font-family: Roboto, sans-serif; font-size: 12px; font-weight: 200;" fill="rgb(33, 33, 33)" stroke="none" stroke-width="1px">1.8M</text></g><line x1="0" y1="0" x2="266.003625" y2="0" fill="rgb(0, 0, 0)" stroke="rgb(204, 204, 204)" stroke-width="1px"></line></g></g></g></g></svg>