<svg viewBox="0 0 329.9884338378906 199.98843383789062" xmlns="http://www.w3.org/2000/svg"><g><g><g><g><g><line x1="42.390625" y1="175.988" x2="37.390625" y2="175.988" style="visibility: inherit;" fill="rgb(0, 0, 0)" stroke="rgb(204, 204, 204)" stroke-width="1px"></line><line x1="42.390625" y1="163.41742857142856" x2="37.390625" y2="163.41742857142856" style="visibility: inherit;" fill="rgb(0, 0, 0)" stroke="rgb(204, 204, 204)" stroke-width="1px"></line><line x1="42.390625" y1="150.84685714285715" x2="37.390625" y2="150.84685714285715" style="visibility: inherit;" fill="rgb(0, 0, 0)" stroke="rgb(204, 204, 204)" stroke-width="1px"></line><line x1="42.390625" y1="138.2762857142857" x2="37.390625" y2="138.2762857142857" style="visibility: inherit;" fill="rgb(0, 0, 0)" stroke="rgb(204, 204, 204)" stroke-width="1px"></line><line x1="42.390625" y1="125.70571428571427" x2="37.390625" y2="125.70571428571427" style="visibility: inherit;" fill="rgb(0, 0, 0)" stroke="rgb(204, 204, 204)" stroke-width="1px"></line><line x1="42.390625" y1="113.13514285714287" x2="37.390625" y2="113.13514285714287" style="visibility: inherit;" fill="rgb(0, 0, 0)" stroke="rgb(204, 204, 204)" stroke-width="1px"></line><line x1="42.390625" y1="100.56457142857143" x2="37.390625" y2="100.56457142857143" style="visibility: inherit;" fill="rgb(0, 0, 0)" stroke="rgb(204, 204, 204)" stroke-width="1px"></line><line x1="42.390625" y1="87.994" x2="37.390625" y2="87.994" style="visibility: inherit;" fill="rgb(0, 0, 0)" stroke="rgb(204, 204, 204)" stroke-width="1px"></line><line x1="42.390625" y1="75.42342857142857" x2="37.390625" y2="75.42342857142857" style="visibility: inherit;" fill="rgb(0, 0, 0)" stroke="rgb(204, 204, 204)" stroke-width="1px"></line><line x1="42.390625" y1="62.85285714285713" x2="37.390625" y2="62.85285714285713" style="visibility: inherit;" fill="rgb(0, 0, 0)" stroke="rgb(204, 204, 204)" stroke-width="1px"></line><line x1="42.390625" y1="50.28228571428573" x2="37.390625" y2="50.28228571428573" style="visibility: inherit;" fill="rgb(0, 0, 0)" stroke="rgb(204, 204, 204)" stroke-width="1px"></line><line x1="42.390625" y1="37.71171428571429" x2="37.390625" y2="37.71171428571429" style="visibility: inherit;" fill="rgb(0, 0, 0)" stroke="rgb(204, 204, 204)" stroke-width="1px"></line><line x1="42.390625" y1="25.141142857142885" x2="37.390625" y2="25.141142857142885" style="visibility: inherit;" fill="rgb(0, 0, 0)" stroke="rgb(204, 204, 204)" stroke-width="1px"></line><line x1="42.390625" y1="12.570571428571442" x2="37.390625" y2="12.570571428571442" style="visibility: inherit;" fill="rgb(0, 0, 0)" stroke="rgb(204, 204, 204)" stroke-width="1px"></line><line x1="42.390625" y1="0" x2="37.390625" y2="0" style="visibility: inherit;" fill="rgb(0, 0, 0)" stroke="rgb(204, 204, 204)" stroke-width="1px"></line></g><g transform="translate(32.390625, 0)"><text x="0" y="175.988" dx="0em" dy="0.3em" style="text-anchor: end; visibility: hidden; font-family: Roboto, sans-serif; font-size: 12px; font-weight: 200;" fill="rgb(33, 33, 33)" stroke="none" stroke-width="1px">1.4</text><text x="0" y="163.41742857142856" dx="0em" dy="0.3em" style="text-anchor: end; visibility: inherit; font-family: Roboto, sans-serif; font-size: 12px; font-weight: 200;" fill="rgb(33, 33, 33)" stroke="none" stroke-width="1px">1.6</text><text x="0" y="150.84685714285715" dx="0em" dy="0.3em" style="text-anchor: end; visibility: hidden; font-family: Roboto, sans-serif; font-size: 12px; font-weight: 200;" fill="rgb(33, 33, 33)" stroke="none" stroke-width="1px">1.8</text><text x="0" y="138.2762857142857" dx="0em" dy="0.3em" style="text-anchor: end; visibility: inherit; font-family: Roboto, sans-serif; font-size: 12px; font-weight: 200;" fill="rgb(33, 33, 33)" stroke="none" stroke-width="1px">2</text><text x="0" y="125.70571428571427" dx="0em" dy="0.3em" style="text-anchor: end; visibility: hidden; font-family: Roboto, sans-serif; font-size: 12px; font-weight: 200;" fill="rgb(33, 33, 33)" stroke="none" stroke-width="1px">2.2</text><text x="0" y="113.13514285714287" dx="0em" dy="0.3em" style="text-anchor: end; visibility: inherit; font-family: Roboto, sans-serif; font-size: 12px; font-weight: 200;" fill="rgb(33, 33, 33)" stroke="none" stroke-width="1px">2.4</text><text x="0" y="100.56457142857143" dx="0em" dy="0.3em" style="text-anchor: end; visibility: hidden; font-family: Roboto, sans-serif; font-size: 12px; font-weight: 200;" fill="rgb(33, 33, 33)" stroke="none" stroke-width="1px">2.6</text><text x="0" y="87.994" dx="0em" dy="0.3em" style="text-anchor: end; visibility: inherit; font-family: Roboto, sans-serif; font-size: 12px; font-weight: 200;" fill="rgb(33, 33, 33)" stroke="none" stroke-width="1px">2.8</text><text x="0" y="75.42342857142857" dx="0em" dy="0.3em" style="text-anchor: end; visibility: hidden; font-family: Roboto, sans-serif; font-size: 12px; font-weight: 200;" fill="rgb(33, 33, 33)" stroke="none" stroke-width="1px">3</text><text x="0" y="62.85285714285713" dx="0em" dy="0.3em" style="text-anchor: end; visibility: inherit; font-family: Roboto, sans-serif; font-size: 12px; font-weight: 200;" fill="rgb(33, 33, 33)" stroke="none" stroke-width="1px">3.2</text><text x="0" y="50.28228571428573" dx="0em" dy="0.3em" style="text-anchor: end; visibility: hidden; font-family: Roboto, sans-serif; font-size: 12px; font-weight: 200;" fill="rgb(33, 33, 33)" stroke="none" stroke-width="1px">3.4</text><text x="0" y="37.71171428571429" dx="0em" dy="0.3em" style="text-anchor: end; visibility: inherit; font-family: Roboto, sans-serif; font-size: 12px; font-weight: 200;" fill="rgb(33, 33, 33)" stroke="none" stroke-width="1px">3.6</text><text x="0" y="25.141142857142885" dx="0em" dy="0.3em" style="text-anchor: end; visibility: hidden; font-family: Roboto, sans-serif; font-size: 12px; font-weight: 200;" fill="rgb(33, 33, 33)" stroke="none" stroke-width="1px">3.8</text><text x="0" y="12.570571428571442" dx="0em" dy="0.3em" style="text-anchor: end; visibility: inherit; font-family: Roboto, sans-serif; font-size: 12px; font-weight: 200;" fill="rgb(33, 33, 33)" stroke="none" stroke-width="1px">4</text><text x="0" y="0" dx="0em" dy="0.3em" style="text-anchor: end; visibility: hidden; font-family: Roboto, sans-serif; font-size: 12px; font-weight: 200;" fill="rgb(33, 33, 33)" stroke="none" stroke-width="1px">4.2</text></g><line x1="42.390625" y1="0" x2="42.390625" y2="175.988" fill="rgb(0, 0, 0)" stroke="rgb(204, 204, 204)" stroke-width="1px"></line></g></g><g transform="translate(42, 0)" clip-path="url(#clip_0)"><clipPath id="clip_0"><rect width="287" height="175"></rect></clipPath><g><g><g><line x1="0" y1="0" x2="0" y2="175.988" fill="rgb(0, 0, 0)" stroke="rgb(66, 66, 66)" stroke-width="1px" opacity="0.25"></line><line x1="28.7597375" y1="0" x2="28.7597375" y2="175.988" fill="rgb(0, 0, 0)" stroke="rgb(66, 66, 66)" stroke-width="1px" opacity="0.25"></line><line x1="57.519475" y1="0" x2="57.519475" y2="175.988" fill="rgb(0, 0, 0)" stroke="rgb(66, 66, 66)" stroke-width="1px" opacity="0.25"></line><line x1="86.2792125" y1="0" x2="86.2792125" y2="175.988" fill="rgb(0, 0, 0)" stroke="rgb(66, 66, 66)" stroke-width="1px" opacity="0.25"></line><line x1="115.03895" y1="0" x2="115.03895" y2="175.988" fill="rgb(0, 0, 0)" stroke="rgb(66, 66, 66)" stroke-width="1px" opacity="0.25"></line><line x1="143.7986875" y1="0" x2="143.7986875" y2="175.988" fill="rgb(0, 0, 0)" stroke="rgb(66, 66, 66)" stroke-width="1px" opacity="0.25"></line><line x1="172.558425" y1="0" x2="172.558425" y2="175.988" fill="rgb(0, 0, 0)" stroke="rgb(66, 66, 66)" stroke-width="1px" opacity="0.25"></line><line x1="201.3181625" y1="0" x2="201.3181625" y2="175.988" fill="rgb(0, 0, 0)" stroke="rgb(66, 66, 66)" stroke-width="1px" opacity="0.25"></line><line x1="230.0779" y1="0" x2="230.0779" y2="175.988" fill="rgb(0, 0, 0)" stroke="rgb(66, 66, 66)" stroke-width="1px" opacity="0.25"></line><line x1="258.8376375" y1="0" x2="258.8376375" y2="175.988" fill="rgb(0, 0, 0)" stroke="rgb(66, 66, 66)" stroke-width="1px" opacity="0.25"></line><line x1="287.597375" y1="0" x2="287.597375" y2="175.988" fill="rgb(0, 0, 0)" stroke="rgb(66, 66, 66)" stroke-width="1px" opacity="0.25"></line></g><g><line x1="0" y1="175.988" x2="287.597375" y2="175.988" fill="rgb(0, 0, 0)" stroke="rgb(66, 66, 66)" stroke-width="1px" opacity="0.25"></line><line x1="0" y1="163.41742857142856" x2="287.597375" y2="163.41742857142856" fill="rgb(0, 0, 0)" stroke="rgb(66, 66, 66)" stroke-width="1px" opacity="0.25"></line><line x1="0" y1="150.84685714285715" x2="287.597375" y2="150.84685714285715" fill="rgb(0, 0, 0)" stroke="rgb(66, 66, 66)" stroke-width="1px" opacity="0.25"></line><line x1="0" y1="138.2762857142857" x2="287.597375" y2="138.2762857142857" fill="rgb(0, 0, 0)" stroke="rgb(66, 66, 66)" stroke-width="1px" opacity="0.25"></line><line x1="0" y1="125.70571428571427" x2="287.597375" y2="125.70571428571427" fill="rgb(0, 0, 0)" stroke="rgb(66, 66, 66)" stroke-width="1px" opacity="0.25"></line><line x1="0" y1="113.13514285714287" x2="287.597375" y2="113.13514285714287" fill="rgb(0, 0, 0)" stroke="rgb(66, 66, 66)" stroke-width="1px" opacity="0.25"></line><line x1="0" y1="100.56457142857143" x2="287.597375" y2="100.56457142857143" fill="rgb(0, 0, 0)" stroke="rgb(66, 66, 66)" stroke-width="1px" opacity="0.25"></line><line x1="0" y1="87.994" x2="287.597375" y2="87.994" fill="rgb(0, 0, 0)" stroke="rgb(66, 66, 66)" stroke-width="1px" opacity="0.25"></line><line x1="0" y1="75.42342857142857" x2="287.597375" y2="75.42342857142857" fill="rgb(0, 0, 0)" stroke="rgb(66, 66, 66)" stroke-width="1px" opacity="0.25"></line><line x1="0" y1="62.85285714285713" x2="287.597375" y2="62.85285714285713" fill="rgb(0, 0, 0)" stroke="rgb(66, 66, 66)" stroke-width="1px" opacity="0.25"></line><line x1="0" y1="50.28228571428573" x2="287.597375" y2="50.28228571428573" fill="rgb(0, 0, 0)" stroke="rgb(66, 66, 66)" stroke-width="1px" opacity="0.25"></line><line x1="0" y1="37.71171428571429" x2="287.597375" y2="37.71171428571429" fill="rgb(0, 0, 0)" stroke="rgb(66, 66, 66)" stroke-width="1px" opacity="0.25"></line><line x1="0" y1="25.141142857142885" x2="287.597375" y2="25.141142857142885" fill="rgb(0, 0, 0)" stroke="rgb(66, 66, 66)" stroke-width="1px" opacity="0.25"></line><line x1="0" y1="12.570571428571442" x2="287.597375" y2="12.570571428571442" fill="rgb(0, 0, 0)" stroke="rgb(66, 66, 66)" stroke-width="1px" opacity="0.25"></line><line x1="0" y1="0" x2="287.597375" y2="0" fill="rgb(0, 0, 0)" stroke="rgb(66, 66, 66)" stroke-width="1px" opacity="0.25"></line></g></g></g><g><g><line x1="0" y1="263.98199999999997" x2="287.597375" y2="263.98199999999997" fill="rgb(0, 0, 0)" stroke="rgb(153, 153, 153)" stroke-width="1.5px"></line></g></g><g><g><line x1="28.7597375" y1="0" x2="28.7597375" y2="175.988" fill="rgb(0, 0, 0)" stroke="rgb(153, 153, 153)" stroke-width="1.5px"></line></g></g><g><g><g><g><g><path stroke="rgb(255, 112, 67)" stroke-width="2px" d="M40.26363250000001,-13.693518780940902L40.838827249999994,19.47796855758393L41.414021999999996,56.97135389891237L41.98921675,93.12764961570362L42.5644115,123.48102004430342L43.13960625,142.6892500171865L43.714801,158.71764764492912L44.28999575,171.38880259863265L44.8651905,180.55795742480274L54.64350125,179.66475459448617L55.218696,174.1620395969645L55.79389075,167.65372960785515L56.369085500000004,158.73321237798862L56.944280250000006,149.88715686131408L57.519475,144.4913740880038L58.09466975,141.38221446165912L58.669864499999996,139.86133837158093L59.24505925,138.29474681618814L59.820254,137.82862671773472L60.39544875,137.5911951909931L60.9706435,137.66278614148843L61.545838249999996,137.8203661835819L62.121033,137.68513578307636L62.69622775,137.87138904365477L63.2714225,137.94495848390378L63.84661725,138.0021433435052L64.421812,137.88359232433172L64.99700675,137.9904869448702L65.5722015,137.88970761587385L66.14739625,137.943775578539L66.72259100000001,137.37593565368337L67.29778575,137.1635297481518L67.8729805,137.11342827786467L68.44817524999999,126.1635574091692L69.02337,128.13650232681317L69.59856475,131.18113645795137L70.1737595,133.27937844197925L70.74895425,134.48609090943236L71.324149,135.23567130452372L71.89934375,135.46674221782843L72.4745385,135.8240620895613L73.04973325,135.7258249216107L73.624928,135.83667793222318L74.20012275,136.11239036564513L74.7753175,136.4827446483607L75.35051225000001,136.80812194084135L75.925707,136.5654362160828L76.50090175,121.64492934480448L77.0760965,125.26046333391496L77.65129125,129.7022368526537L78.22648600000001,132.72655827980512L78.80168075,134.3348037080466L79.37687550000001,135.49343282686894L79.95207025,136.3538980346463L80.52726500000001,136.86992540645934L81.10245975,136.98850337263033L81.67765449999999,137.23870637225133L82.25284925,137.34960867393454L82.82804399999999,137.1231936512122L83.40323875,136.5556364469333L83.9784335,136.03814983900807L84.55362824999999,135.6692512122656L85.128823,135.00736252512812L85.70401774999999,135.2508264365366L86.2792125,135.06643121037823L86.85440725,135.12491804512362L87.429602,135.39828223347678L88.00479675,135.73271345177383L88.5799915,136.05036533019342L89.15518625,135.9135159067135L89.730381,135.95113871087642L90.30557575,135.95811570469485L90.8807705,135.58253272164177L91.45596525,135.14300718884314L92.03116,135.47558648477326L92.60635475000001,135.93392400738878L93.1815495,136.3756648334069L93.75674425,136.69194702879886L94.331939,136.7031876082847L94.90713375,136.88823891144997L95.48232850000001,136.89774136404483L96.05752325,136.86329424960104L96.63271800000001,136.81808607184448L97.20791275,136.89320878836162L97.7831075,136.9497311789858L98.35830225000001,136.75549658703014L98.93349699999999,136.98307800598354L99.50869175,136.96787383379925L100.08388649999999,136.91752979780327L100.65908125,136.5667820526801L101.234276,136.36866330130695L101.80947074999999,136.6113750832273L102.3846655,136.56266693190636L102.95986024999999,136.43175786480506L103.535055,136.58548440237757L104.11024975,136.3900087723012L104.6854445,136.06484147262339L105.26063925,135.5153689810875L105.83583399999999,135.34333671943034L106.41102875,118.35998664243374L106.9862235,123.25603256533785L107.56141825,127.7730376389603L108.136613,130.8286336097586L108.71180775,131.7169829099849L109.2870025,133.00463965051452L109.86219725000001,134.3232556632651L110.437392,135.3177157000308L111.01258675,135.89289082958726L111.5877815,136.05339513051254L112.16297625,135.8928678417974L112.73817100000001,135.81901741367588L113.31336575,135.78703105838818L113.88856050000001,136.1348289701922L114.46375525,136.46816733851333L115.03895,111.64601069616937L115.61414475000001,118.69707186493672L116.1893395,125.78968895061507L116.76453425000001,130.032893341628L117.33972899999999,132.47258226621926L117.91492375,133.98801095003526L118.4901185,135.1832474135488L119.06531324999999,135.75717788276935L119.640508,136.24422009102028L120.21570274999999,136.56184248358576L120.7908975,136.8940508756212L121.36609225,137.24480525215864L121.941287,137.455665477939L122.51648175,137.68304459588464L123.09167649999999,137.74373641658948L123.66687125,137.69145058700008L124.242066,137.53275208658485L124.81726075,137.47588933178488L125.3924555,120.57983309961804L125.96765025,126.27871859715508L126.542845,130.6337792870478L127.11803975,133.06733989297607L127.6932345,134.6938069691239L128.26842925,135.68350365117146L128.843624,135.9800434993511L129.41881875,136.53197624255284L129.9940135,136.8620269770958L130.56920825,136.9598118292465L131.144403,136.86201234803727L131.71959775,136.95791490541095L132.2947925,136.5777781100949L132.86998725,136.5669827218461L133.44518200000002,136.29111794753462L134.02037675,136.14832876913985L134.5955715,136.37638727035582L135.17076624999999,136.1486602629093L135.745961,135.98791572567117L136.32115575,136.04515812620951L136.89635049999998,136.26565681927036L137.47154525,136.2241806309942L138.04674,121.69203074710938L138.62193475,124.95849636103222L139.1971295,129.18304249854987L139.77232425,132.041464409369L140.347519,133.58715382079774L140.92271374999999,134.39761028490705L141.4979085,135.065362005976L142.07310325,135.3112629572826L142.648298,135.04881201808405L143.22349275,134.91939990948717L143.7986875,134.84029008013312L144.37388225,134.34705979089406L144.949077,133.4072816771433L145.52427175,132.9354424650393L146.0994665,132.40509365928222L146.67466125,131.7323743994409L147.249856,130.57337039515988L147.82505075,129.67487536928934L148.4002455,127.15762431411162L148.97544025,124.62064352721275L149.550635,109.86685855699277L150.12582975,108.92421266981948L150.70102450000002,105.33668578534375L151.27621925,99.91048943732412L151.851414,90.0587869284456L152.42660875,82.76636155185474L153.0018035,78.4515907517992L153.57699825,75.65449869143161L154.152193,74.2398586632919L154.72738775000002,73.70230111435808L155.3025825,73.31928595902778L155.87777725,72.95278705466795L156.45297200000002,62.72121020887501L157.02816675000003,63.884253714114806L157.6033615,67.64218969729735L158.17855625,70.18372775779994L158.75375100000002,70.75648533787371L159.32894575,71.45256990420674L159.9041405,72.39529317856771L160.47933525000002,72.94043326209493L161.05453000000003,73.03777485114297L161.62972475,73.28838711402224L162.2049195,73.36150231045131L162.78011425,73.15464356867545L163.35530899999998,73.55177061833017L163.93050374999999,73.91979547346959L164.5056985,74.0085540267172L165.08089324999997,74.27182498543601L165.65608799999998,74.3159712944712L166.23128275,74.20702803299768L166.8064775,74.2578340297236L167.38167224999998,74.42093743445751L167.956867,74.6516770309652L168.53206175,74.82884876948353L169.10725649999998,74.8388143873626L169.68245124999999,75.01582385727761L170.257646,74.93495918680856L170.83284075,74.9783241819002L171.40803549999998,74.98636682639975L171.98323025,74.85805711246319L172.558425,74.5916152736915L173.13361974999998,73.969855613838L173.7088145,74.03974697524075L174.28400925,74.17578341221156L174.859204,74.18150778321146L175.43439874999999,73.71795884511303L176.0095935,73.69809194514244L176.58478825,73.8383803814987L177.159983,73.71169844036424L177.73517775,73.97800722102767L178.3103725,73.77763605618402L178.88556725,73.80646902883348L179.460762,69.8293621346321L180.03595675,70.23398217790778L180.6111515,71.62564633268133L181.18634625,72.84185259262331L181.761541,73.20785941070596L182.33673575,73.73411645933558L182.9119305,74.16428636626516L183.48712525,74.51660381874767L184.06232,61.94002827864486L184.63751475,64.3071392745011L185.21270950000002,67.45456831095242L185.78790425,69.89591695768439L186.363099,71.22879566231421L186.93829375,72.14363987436411L187.5134885,72.77401842024464L188.08868325,73.16462939051371L188.663878,73.38661212993439L189.23907275000002,73.30548217184665L189.8142675,73.31015182545123L190.38946225,72.95463737784826L190.96465700000002,72.68991118603861L191.53985175,72.13156766907946L192.1150465,71.98190560604166L192.69024125,71.33255768097405L193.26543600000002,71.62239990666485L193.84063075,72.1135318197019L194.4158255,60.889049366457556L194.99102025000002,64.975548697775L195.566215,68.14217464734979L196.14140975,70.44287482442607L196.71660450000002,71.34945410177627L197.29179925000003,72.04222356923532L197.86699399999998,72.3662052522666L198.44218874999999,72.80701235263318L199.0173835,73.09287762304496L199.59257824999997,73.56902373201373L200.16777299999998,73.6646799518918L200.74296775,73.79722191055662L201.3181625,73.87889897324045L201.89335724999998,73.79146115842698L202.468552,73.93232667859849L203.04374675,74.20596033652441L203.61894149999998,74.46662181528528L204.19413624999999,74.48991337248329L204.769331,74.61627797349563L205.34452575,74.6375982354589L205.91972049999998,74.81940646899727L206.49491525,62.89879300371827L207.07011,63.57328327189867L207.64530474999998,65.62173774788458L208.2204995,68.12222827838468L208.79569425,69.81817652258042L209.370889,70.77148255621138L209.94608374999999,71.48513709757943L210.5212785,72.21794478089087L211.09647325,72.79702254815555L211.67166799999998,72.8183054045963L212.24686275,72.63489371039607L212.8220575,73.08419358119198L213.39725225,73.54445231365285L213.972447,73.45673476824237L214.54764175,73.7697632723191L215.1228365,73.41947663298309L215.69803124999999,61.827845865005635L216.273226,65.60779489050256L216.84842075,69.17488695281371L217.4236155,71.46636773158768L217.99881025,72.84156789286104L218.574005,73.58969357529554L219.14919975,73.58037879157995L219.72439450000002,73.84252308681911L220.29958925,74.11491466500343L220.874784,74.03067875121481L221.44997875,73.82303143419293L222.0251735,73.6404559700815L222.60036825,73.34571649736588L223.175563,72.25629869076268L223.75075775000002,71.98781189014622L224.3259525,72.57884344752071L224.90114725,70.62414544599746L225.47634200000002,71.97203805437978L226.05153675,72.97424568724212L226.6267315,73.4605851482298L227.20192625,73.46304687277096L227.77712100000002,73.7155155082135L228.35231575,73.7320571600601L228.9275105,73.65020025375937L229.50270525000002,73.69186099597401L230.0779,73.5704271923611L230.65309475,73.37123493071425L231.22828950000002,73.41357268199597L231.80348425000003,73.81905021200261L232.378679,74.0240583080596L232.95387375,74.31975962900623L233.52906850000002,74.4379285892934L234.10426324999997,74.45349828475912L234.67945799999998,74.25281828115276L235.25465275,74.05241281276534L235.8298475,74.14680082748202L236.40504224999998,74.04889334902174L236.980237,73.52887169925745L237.55543175,73.31163766458599L238.13062649999998,73.6451998290852L238.70582124999999,73.88105606238882L239.281016,73.54206951109164L239.85621075,73.09287688366786L240.43140549999998,73.28003498915392L241.00660025,73.35590361220574L241.581795,73.7865467105734L242.15698974999998,73.83135623818289L242.7321845,73.80055458662811L243.30737925,73.8411456045094L243.882574,73.92545335903917L244.45776874999999,73.936434890272L245.0329635,71.23823311096025L245.60815825,72.28473339044635L246.18335299999998,73.27536746106921L246.75854775,73.60250625545012L247.3337425,73.72277215858492L247.90893725,73.94764977662679L248.484132,74.006277250527L249.05932675,73.96319456215505L249.6345215,73.96129144078206L250.20971624999999,73.97432565125054L250.784911,74.1552022877775L251.36010575,74.22706825894713L251.9353005,74.46042308708105L252.51049525,74.48264561915103L253.08569,71.14020351439027L253.66088475,69.38236715342417L254.2360795,69.7456632835837L254.81127425,69.74532927897829L255.386469,69.50245710789034L255.96166375,69.06649273585259L256.5368585,69.09709727545538L257.11205325000003,70.15436610166999L257.687248,71.06937188777702L258.26244275,71.54627214340624L258.8376375,71.28202661222542" style="fill: none;" fill="none"></path></g></g></g></g><g opacity="0.2"><g><g><g><path stroke="rgb(255, 112, 67)" stroke-width="2px" d="M39.688437750000006,-0.6298796450751224L40.26363250000001,27.342170101438263L40.838827249999994,69.23338036217008L41.414021999999996,113.2101981750897L41.98921675,147.36137934790338L42.5644115,169.01071612259318L43.13960625,171.50145845263344L43.714801,182.76017573274882L52.34272225,192.53800180864334L52.917916999999996,169.19893135108265L53.49311175,183.86492120047978L54.0683065,181.16631043556757L54.64350125,174.64947053878646L55.218696,165.9079671015399L55.79389075,157.89126462480002L56.369085500000004,145.35243653368948L56.944280250000006,136.61807358660016L57.519475,136.39769992814746L58.09466975,136.71847502217975L58.669864499999996,137.5800242364747L59.24505925,135.9448594831058L59.820254,137.12944657005582L60.39544875,137.23504790088109L60.9706435,137.77017256723133L61.545838249999996,138.0567362467221L62.121033,137.48229018231802L62.69622775,138.15076893452235L63.2714225,138.0553126442773L63.84661725,138.0879206329073L64.421812,137.70576579557147L64.99700675,138.15082887567792L65.5722015,137.7385386223793L66.14739625,138.02487752253668L66.72259100000001,136.5241757663999L67.29778575,136.84492088985442L67.8729805,137.038276072434L68.44817524999999,109.73875110612597L69.02337,131.0959197032792L69.59856475,135.74808765465872L70.1737595,136.42674141802107L70.74895425,136.29615961061205L71.324149,136.36004189716067L71.89934375,135.81334858778544L72.4745385,136.36004189716067L73.04973325,135.5784691696848L73.624928,136.0029574481419L74.20012275,136.5259590157781L74.7753175,137.038276072434L75.35051225000001,137.29618787956238L75.925707,136.20140762894493L76.50090175,99.26416903788702L77.0760965,130.68376431758062L77.65129125,136.36489713076182L78.22648600000001,137.26304042053223L78.80168075,136.74717185040882L79.37687550000001,137.23137650510245L79.95207025,137.64459584631237L80.52726500000001,137.6439664641789L81.10245975,137.1663703218869L81.67765449999999,137.61401087168284L82.25284925,137.51596212645939L82.82804399999999,136.78357111712864L83.40323875,135.7043006405149L83.9784335,135.2619199271202L84.55362824999999,135.11590327215194L85.128823,134.01452949442182L85.70401774999999,135.61602230364934L86.2792125,134.78983837114063L86.85440725,135.21264829724174L87.429602,135.80832851600647L88.00479675,136.2343602792195L88.5799915,136.52684314782277L89.15518625,135.70824177149365L89.730381,136.0075729171208L90.30557575,135.96858119542256L90.8807705,135.01915824706214L91.45596525,134.48371888964516L92.03116,135.97445542866842L92.60635475000001,136.62143029131207L93.1815495,137.038276072434L93.75674425,137.1663703218869L94.331939,136.72004847751344L94.90713375,137.16581586619787L95.48232850000001,136.91199504293715L96.05752325,136.81162357793536L96.63271800000001,136.75027380520956L97.20791275,137.00589286313738L97.7831075,137.034514764922L98.35830225000001,136.4641446990967L98.93349699999999,137.32445013441358L99.50869175,136.9450675755228L100.08388649999999,136.84201374380928L100.65908125,136.04066043499537L101.234276,136.0714851742472L101.80947074999999,136.97544275610787L102.3846655,136.48960470492497L102.95986024999999,136.23539426415306L103.535055,136.8160742087364L104.11024975,136.09679532718658L104.6854445,135.5770905231067L105.26063925,134.69116024378368L105.83583399999999,135.08528832694464L106.41102875,92.88496152693884L106.9862235,130.60010144969397L107.56141825,134.548545249394L108.136613,135.41202756595612L108.71180775,133.0495068603243L109.2870025,134.93612476130895L109.86219725000001,136.30117968239102L110.437392,136.80940575517926L111.01258675,136.75565352392198L111.5877815,136.29415158190045L112.16297625,135.65207690872464L112.73817100000001,135.70824177149365L113.31336575,135.73905152545657L113.88856050000001,136.65652583789824L114.46375525,136.96817489099502L115.03895,74.41277573265347L115.61414475000001,129.27366361808777L116.1893395,136.4286145791326L116.76453425000001,136.39769992814746L117.33972899999999,136.13211565310613L117.91492375,136.2611539757592L118.4901185,136.97610210881913L119.06531324999999,136.61807358660016L119.640508,136.9747834033966L120.21570274999999,137.038276072434L120.7908975,137.39236346367426L121.36609225,137.77093681696482L121.941287,137.77195581660953L122.51648175,138.02411327280316L123.09167649999999,137.83477414764675L123.66687125,137.61302184261595L124.242066,137.29470433596202L124.81726075,137.39059519958496L125.3924555,95.23574875136785L125.96765025,134.8270468434606L126.542845,137.1663703218869L127.11803975,136.71768080186843L127.6932345,137.1335075833457L128.26842925,137.16804867424284L128.843624,136.4248532716206L129.41881875,137.3598753573554L129.9940135,137.35710307891028L130.56920825,137.10648910747256L131.144403,136.71531312622344L131.71959775,137.10176874147143L132.2947925,136.0075729171208L132.86998725,136.55078963947295L133.44518200000002,135.8773207860674L134.02037675,135.93414500154768L134.5955715,136.71847502217975L135.17076624999999,135.8070697517395L135.745961,135.74679891981398L136.32115575,136.13102172701699L136.89635049999998,136.59640485886163L137.47154525,136.16196634857994L138.04674,99.8938059212821L138.62193475,129.85819478191647L139.1971295,135.51986170482635L139.77232425,136.32909727559772L140.347519,135.90568793794088L140.92271374999999,135.6132949810709L141.4979085,136.06698958757946L142.07310325,135.68011438424244L142.648298,134.65513560928616L143.22349275,134.72528174659183L143.7986875,134.72162533610208L144.37388225,133.6072143570355L144.949077,131.99761450651712L145.52427175,132.2276836468833L146.0994665,131.60957045064654L146.67466125,130.723295509679L147.249856,128.83486438873837L147.82505075,128.32713283048358L148.4002455,123.38174773134504L148.97544025,120.81517234686441L149.550635,87.73618110166278L150.12582975,107.51024383905956L150.70102450000002,99.95539545863016L151.27621925,91.77119491529464L151.851414,75.28123316512789L152.42660875,71.82772348696845L153.0018035,71.97943455171585L153.57699825,71.45886060088023L154.152193,72.1178986210823L154.72738775000002,72.89596479095731L155.3025825,72.74476322603226L155.87777725,72.4030386981283L156.45297200000002,47.37384494018555L157.02816675000003,65.62881897197451L157.6033615,73.2790936720712L158.17855625,73.99603484855379L158.75375100000002,71.61562170798439L159.32894575,72.49669675370626L159.9041405,73.80937809010915L160.47933525000002,73.75814338738579L161.05453000000003,73.18378723471507L161.62972475,73.66430550834112L162.2049195,73.47117510509491L162.78011425,72.84435545601163L163.35530899999998,74.14746119281224L163.93050374999999,74.47183275617871L164.5056985,74.14169185658864L165.08089324999997,74.66673142351422L165.65608799999998,74.38219075802394L166.23128275,74.0436131407874L166.8064775,74.33404302481242L167.38167224999998,74.66559254155841L167.956867,74.99778642572676L168.53206175,75.09460637726102L169.10725649999998,74.8537628141812L169.68245124999999,75.28133806215014L170.257646,74.81366218110493L170.83284075,75.04337167453765L171.40803549999998,74.99843079314914L171.98323025,74.66559254155841L172.558425,74.191952515534L173.13361974999998,73.03721612405776L173.7088145,74.1445840173449L174.28400925,74.37983806766782L174.859204,74.19009433971132L175.43439874999999,73.02263543796539L176.0095935,73.66829159518652L176.58478825,74.0488130360331L177.159983,73.52167552866254L177.73517775,74.37747039202281L178.3103725,73.47707930891856L178.88556725,73.84971848780769L179.460762,63.86370179333005L180.03595675,70.84091224282129L180.6111515,73.71314256484169L181.18634625,74.66616198253631L181.761541,73.75686963782992L182.33673575,74.52350203227996L182.9119305,74.80954122665949L183.48712525,75.04507999747142L184.06232,43.0751649684906L184.63751475,67.85780576828549L185.21270950000002,72.17571186562948L185.78790425,73.55793992778234L186.363099,73.228113719259L186.93829375,73.51590619243893L187.5134885,73.71958623906545L188.08868325,73.7505458459173L188.663878,73.71958623906545L189.23907275000002,73.18378723471507L189.8142675,73.31715630585808L190.38946225,72.42136570644378L190.96465700000002,72.29282189832415L191.53985175,71.2940523936408L192.1150465,71.75741251148496L192.69024125,70.35853579337257L193.26543600000002,72.05716324520111L193.84063075,72.85022968925749L194.4158255,44.05232568659101L194.99102025000002,71.1052976947512L195.566215,72.89211357171196L196.14140975,73.89392509004048L196.71660450000002,72.70932301780157L197.29179925000003,73.08137777042388L197.86699399999998,72.8521777768135L198.44218874999999,73.46822300318308L199.0173835,73.52167552866254L199.59257824999997,74.28324289546694L200.16777299999998,73.80816428170886L200.74296775,73.99603484855379L201.3181625,74.00141456726618L201.89335724999998,73.66030443620681L202.468552,74.14362495885577L203.04374675,74.61641082341332L203.61894149999998,74.85761403342656L204.19413624999999,74.52485070828028L204.769331,74.80582487501417L205.34452575,74.6695786284038L205.91972049999998,75.09211881930489L206.49491525,45.01787280579976L207.07011,64.58501867416928L207.64530474999998,68.69441946186338L208.2204995,71.87296407413483L208.79569425,72.36209888887406L209.370889,72.20144160665784L209.94608374999999,72.55561890963148L210.5212785,73.31715630585808L211.09647325,73.66563919905253L211.67166799999998,72.85022968925749L212.24686275,72.35977616909574L212.8220575,73.75814338738579L213.39725225,74.23484041234425L213.972447,73.32515845012665L214.54764175,74.23930602843421L215.1228365,72.89404667397908L215.69803124999999,44.4403997130394L216.273226,71.27771842874799L216.84842075,74.52552504628046L217.4236155,74.90358889974867L217.99881025,74.90436813477106L218.574005,74.71188209894724L219.14919975,73.56640661600657L219.72439450000002,74.2357395296778L220.29958925,74.52350203227996L220.874784,73.90432488053187L221.44997875,73.51156045866013L222.0251735,73.36659277391433L222.60036825,72.90360728829249L223.175563,70.62217198085784L223.75075775000002,71.58508168922152L224.3259525,73.46539078358241L224.90114725,67.69209844371251L225.47634200000002,73.99387696695328L226.05153675,74.47755713653565L226.6267315,74.19009433971132L227.20192625,73.46673945958274L227.77712100000002,74.09421846137728L228.35231575,73.75686963782992L228.9275105,73.52741489430836L229.50270525000002,73.75435210929598L230.0779,73.38827648694175L230.65309475,73.072446538244L231.22828950000002,73.47707930891856L231.80348425000003,74.4272665070125L232.378679,74.33157045214517L232.95387375,74.76331161042623L233.52906850000002,74.61518202972412L234.10426324999997,74.47685282795771L234.67945799999998,73.9517982757432L235.25465275,73.75180461018427L235.8298475,74.28838284955707L236.40504224999998,73.90203213133131L236.980237,72.74883922461102L237.55543175,72.9857866125788L238.13062649999998,74.145543075834L238.70582124999999,74.23484041234425L239.281016,73.0335896841458L239.85621075,72.41908794253214L240.43140549999998,73.56077214738302L241.00660025,73.46970654678344L241.581795,74.43251135812487L242.15698974999998,73.89857052959714L242.7321845,73.75435210929598L243.30737925,73.90203213133131L243.882574,74.05191499083384L244.45776874999999,73.95290718712126L245.0329635,67.19093044199262L245.60815825,73.8544838096755L246.18335299999998,74.76131856700353L246.75854775,74.09321444702148L247.3337425,73.90317101328715L247.90893725,74.28496620368958L248.484132,74.09421846137728L249.05932675,73.89857052959714L249.6345215,73.95843675872258L250.20971624999999,73.99387696695328L250.784911,74.42651724256788L251.36010575,74.33486721570152L251.9353005,74.81045532928195L252.51049525,74.51597941725596L253.08569,66.12654035724913L253.66088475,66.74561261197499L254.2360795,70.29060747882299L254.81127425,69.74482827207021L255.386469,69.13814885125842L255.96166375,68.41254617779596L256.5368585,69.14300408485958L257.11205325000003,71.74026934099197L257.687248,72.44188056693758L258.26244275,72.26162252685002L258.8376375,70.88565831545422" style="fill: none;" fill="none"></path></g></g></g></g></g></g><g transform="translate(42, 175)" clip-path="url(#clip_1)"><clipPath id="clip_1"><rect width="287" height="23"></rect></clipPath><g><g><line x1="0" y1="0" x2="0" y2="5" style="visibility: inherit;" fill="rgb(0, 0, 0)" stroke="rgb(204, 204, 204)" stroke-width="1px"></line><line x1="28.7597375" y1="0" x2="28.7597375" y2="5" style="visibility: inherit;" fill="rgb(0, 0, 0)" stroke="rgb(204, 204, 204)" stroke-width="1px"></line><line x1="57.519475" y1="0" x2="57.519475" y2="5" style="visibility: inherit;" fill="rgb(0, 0, 0)" stroke="rgb(204, 204, 204)" stroke-width="1px"></line><line x1="86.2792125" y1="0" x2="86.2792125" y2="5" style="visibility: inherit;" fill="rgb(0, 0, 0)" stroke="rgb(204, 204, 204)" stroke-width="1px"></line><line x1="115.03895" y1="0" x2="115.03895" y2="5" style="visibility: inherit;" fill="rgb(0, 0, 0)" stroke="rgb(204, 204, 204)" stroke-width="1px"></line><line x1="143.7986875" y1="0" x2="143.7986875" y2="5" style="visibility: inherit;" fill="rgb(0, 0, 0)" stroke="rgb(204, 204, 204)" stroke-width="1px"></line><line x1="172.558425" y1="0" x2="172.558425" y2="5" style="visibility: inherit;" fill="rgb(0, 0, 0)" stroke="rgb(204, 204, 204)" stroke-width="1px"></line><line x1="201.3181625" y1="0" x2="201.3181625" y2="5" style="visibility: inherit;" fill="rgb(0, 0, 0)" stroke="rgb(204, 204, 204)" stroke-width="1px"></line><line x1="230.0779" y1="0" x2="230.0779" y2="5" style="visibility: inherit;" fill="rgb(0, 0, 0)" stroke="rgb(204, 204, 204)" stroke-width="1px"></line><line x1="258.8376375" y1="0" x2="258.8376375" y2="5" style="visibility: inherit;" fill="rgb(0, 0, 0)" stroke="rgb(204, 204, 204)" stroke-width="1px"></line><line x1="287.597375" y1="0" x2="287.597375" y2="5" style="visibility: inherit;" fill="rgb(0, 0, 0)" stroke="rgb(204, 204, 204)" stroke-width="1px"></line></g><g transform="translate(0, 8)"><text x="0" y="0" dx="0em" dy="0.95em" style="text-anchor: middle; visibility: hidden; font-family: Roboto, sans-serif; font-size: 12px; font-weight: 200;" fill="rgb(33, 33, 33)" stroke="none" stroke-width="1px">-200k</text><text x="28.7597375" y="0" dx="0em" dy="0.95em" style="text-anchor: middle; visibility: inherit; font-family: Roboto, sans-serif; font-size: 12px; font-weight: 200;" fill="rgb(33, 33, 33)" stroke="none" stroke-width="1px">0</text><text x="57.519475" y="0" dx="0em" dy="0.95em" style="text-anchor: middle; visibility: hidden; font-family: Roboto, sans-serif; font-size: 12px; font-weight: 200;" fill="rgb(33, 33, 33)" stroke="none" stroke-width="1px">200k</text><text x="86.2792125" y="0" dx="0em" dy="0.95em" style="text-anchor: middle; visibility: inherit; font-family: Roboto, sans-serif; font-size: 12px; font-weight: 200;" fill="rgb(33, 33, 33)" stroke="none" stroke-width="1px">400k</text><text x="115.03895" y="0" dx="0em" dy="0.95em" style="text-anchor: middle; visibility: hidden; font-family: Roboto, sans-serif; font-size: 12px; font-weight: 200;" fill="rgb(33, 33, 33)" stroke="none" stroke-width="1px">600k</text><text x="143.7986875" y="0" dx="0em" dy="0.95em" style="text-anchor: middle; visibility: inherit; font-family: Roboto, sans-serif; font-size: 12px; font-weight: 200;" fill="rgb(33, 33, 33)" stroke="none" stroke-width="1px">800k</text><text x="172.558425" y="0" dx="0em" dy="0.95em" style="text-anchor: middle; visibility: hidden; font-family: Roboto, sans-serif; font-size: 12px; font-weight: 200;" fill="rgb(33, 33, 33)" stroke="none" stroke-width="1px">1M</text><text x="201.3181625" y="0" dx="0em" dy="0.95em" style="text-anchor: middle; visibility: inherit; font-family: Roboto, sans-serif; font-size: 12px; font-weight: 200;" fill="rgb(33, 33, 33)" stroke="none" stroke-width="1px">1.2M</text><text x="230.0779" y="0" dx="0em" dy="0.95em" style="text-anchor: middle; visibility: hidden; font-family: Roboto, sans-serif; font-size: 12px; font-weight: 200;" fill="rgb(33, 33, 33)" stroke="none" stroke-width="1px">1.4M</text><text x="258.8376375" y="0" dx="0em" dy="0.95em" style="text-anchor: middle; visibility: inherit; font-family: Roboto, sans-serif; font-size: 12px; font-weight: 200;" fill="rgb(33, 33, 33)" stroke="none" stroke-width="1px">1.6M</text><text x="287.597375" y="0" dx="0em" dy="0.95em" style="text-anchor: middle; visibility: hidden; font-family: Roboto, sans-serif; font-size: 12px; font-weight: 200;" fill="rgb(33, 33, 33)" stroke="none" stroke-width="1px">1.8M</text></g><line x1="0" y1="0" x2="287.597375" y2="0" fill="rgb(0, 0, 0)" stroke="rgb(204, 204, 204)" stroke-width="1px"></line></g></g></g></g></svg>