<svg viewBox="0 0 329.9884338378906 199.98843383789062" xmlns="http://www.w3.org/2000/svg"><g><g><g><g><g><line x1="61.953125" y1="176.988" x2="56.953125" y2="176.988" style="visibility: inherit;" fill="rgb(0, 0, 0)" stroke="rgb(204, 204, 204)" stroke-width="1px"></line><line x1="61.953125" y1="151.70399999999998" x2="56.953125" y2="151.70399999999998" style="visibility: inherit;" fill="rgb(0, 0, 0)" stroke="rgb(204, 204, 204)" stroke-width="1px"></line><line x1="61.953125" y1="126.42000000000006" x2="56.953125" y2="126.42000000000006" style="visibility: inherit;" fill="rgb(0, 0, 0)" stroke="rgb(204, 204, 204)" stroke-width="1px"></line><line x1="61.953125" y1="101.13600000000001" x2="56.953125" y2="101.13600000000001" style="visibility: inherit;" fill="rgb(0, 0, 0)" stroke="rgb(204, 204, 204)" stroke-width="1px"></line><line x1="61.953125" y1="75.85199999999999" x2="56.953125" y2="75.85199999999999" style="visibility: inherit;" fill="rgb(0, 0, 0)" stroke="rgb(204, 204, 204)" stroke-width="1px"></line><line x1="61.953125" y1="50.567999999999955" x2="56.953125" y2="50.567999999999955" style="visibility: inherit;" fill="rgb(0, 0, 0)" stroke="rgb(204, 204, 204)" stroke-width="1px"></line><line x1="61.953125" y1="25.28399999999991" x2="56.953125" y2="25.28399999999991" style="visibility: inherit;" fill="rgb(0, 0, 0)" stroke="rgb(204, 204, 204)" stroke-width="1px"></line><line x1="61.953125" y1="0" x2="56.953125" y2="0" style="visibility: inherit;" fill="rgb(0, 0, 0)" stroke="rgb(204, 204, 204)" stroke-width="1px"></line></g><g transform="translate(51.953125, 0)"><text x="0" y="176.988" dx="0em" dy="0.3em" style="text-anchor: end; visibility: hidden; font-family: Roboto, sans-serif; font-size: 12px; font-weight: 200;" fill="rgb(33, 33, 33)" stroke="none" stroke-width="1px">-1.7</text><text x="0" y="151.70399999999998" dx="0em" dy="0.3em" style="text-anchor: end; visibility: inherit; font-family: Roboto, sans-serif; font-size: 12px; font-weight: 200;" fill="rgb(33, 33, 33)" stroke="none" stroke-width="1px">-1.65</text><text x="0" y="126.42000000000006" dx="0em" dy="0.3em" style="text-anchor: end; visibility: inherit; font-family: Roboto, sans-serif; font-size: 12px; font-weight: 200;" fill="rgb(33, 33, 33)" stroke="none" stroke-width="1px">-1.6</text><text x="0" y="101.13600000000001" dx="0em" dy="0.3em" style="text-anchor: end; visibility: inherit; font-family: Roboto, sans-serif; font-size: 12px; font-weight: 200;" fill="rgb(33, 33, 33)" stroke="none" stroke-width="1px">-1.55</text><text x="0" y="75.85199999999999" dx="0em" dy="0.3em" style="text-anchor: end; visibility: inherit; font-family: Roboto, sans-serif; font-size: 12px; font-weight: 200;" fill="rgb(33, 33, 33)" stroke="none" stroke-width="1px">-1.5</text><text x="0" y="50.567999999999955" dx="0em" dy="0.3em" style="text-anchor: end; visibility: inherit; font-family: Roboto, sans-serif; font-size: 12px; font-weight: 200;" fill="rgb(33, 33, 33)" stroke="none" stroke-width="1px">-1.45</text><text x="0" y="25.28399999999991" dx="0em" dy="0.3em" style="text-anchor: end; visibility: inherit; font-family: Roboto, sans-serif; font-size: 12px; font-weight: 200;" fill="rgb(33, 33, 33)" stroke="none" stroke-width="1px">-1.4</text><text x="0" y="0" dx="0em" dy="0.3em" style="text-anchor: end; visibility: hidden; font-family: Roboto, sans-serif; font-size: 12px; font-weight: 200;" fill="rgb(33, 33, 33)" stroke="none" stroke-width="1px">-1.35</text></g><line x1="61.953125" y1="0" x2="61.953125" y2="176.988" fill="rgb(0, 0, 0)" stroke="rgb(204, 204, 204)" stroke-width="1px"></line></g></g><g transform="translate(61, 0)" clip-path="url(#clip_0)"><clipPath id="clip_0"><rect width="268" height="176"></rect></clipPath><g><g><g><line x1="0" y1="0" x2="0" y2="176.988" fill="rgb(0, 0, 0)" stroke="rgb(66, 66, 66)" stroke-width="1px" opacity="0.25"></line><line x1="26.803487500000003" y1="0" x2="26.803487500000003" y2="176.988" fill="rgb(0, 0, 0)" stroke="rgb(66, 66, 66)" stroke-width="1px" opacity="0.25"></line><line x1="53.606975000000006" y1="0" x2="53.606975000000006" y2="176.988" fill="rgb(0, 0, 0)" stroke="rgb(66, 66, 66)" stroke-width="1px" opacity="0.25"></line><line x1="80.4104625" y1="0" x2="80.4104625" y2="176.988" fill="rgb(0, 0, 0)" stroke="rgb(66, 66, 66)" stroke-width="1px" opacity="0.25"></line><line x1="107.21395000000001" y1="0" x2="107.21395000000001" y2="176.988" fill="rgb(0, 0, 0)" stroke="rgb(66, 66, 66)" stroke-width="1px" opacity="0.25"></line><line x1="134.0174375" y1="0" x2="134.0174375" y2="176.988" fill="rgb(0, 0, 0)" stroke="rgb(66, 66, 66)" stroke-width="1px" opacity="0.25"></line><line x1="160.820925" y1="0" x2="160.820925" y2="176.988" fill="rgb(0, 0, 0)" stroke="rgb(66, 66, 66)" stroke-width="1px" opacity="0.25"></line><line x1="187.62441249999998" y1="0" x2="187.62441249999998" y2="176.988" fill="rgb(0, 0, 0)" stroke="rgb(66, 66, 66)" stroke-width="1px" opacity="0.25"></line><line x1="214.42790000000002" y1="0" x2="214.42790000000002" y2="176.988" fill="rgb(0, 0, 0)" stroke="rgb(66, 66, 66)" stroke-width="1px" opacity="0.25"></line><line x1="241.2313875" y1="0" x2="241.2313875" y2="176.988" fill="rgb(0, 0, 0)" stroke="rgb(66, 66, 66)" stroke-width="1px" opacity="0.25"></line><line x1="268.034875" y1="0" x2="268.034875" y2="176.988" fill="rgb(0, 0, 0)" stroke="rgb(66, 66, 66)" stroke-width="1px" opacity="0.25"></line></g><g><line x1="0" y1="176.988" x2="268.034875" y2="176.988" fill="rgb(0, 0, 0)" stroke="rgb(66, 66, 66)" stroke-width="1px" opacity="0.25"></line><line x1="0" y1="151.70399999999998" x2="268.034875" y2="151.70399999999998" fill="rgb(0, 0, 0)" stroke="rgb(66, 66, 66)" stroke-width="1px" opacity="0.25"></line><line x1="0" y1="126.42000000000006" x2="268.034875" y2="126.42000000000006" fill="rgb(0, 0, 0)" stroke="rgb(66, 66, 66)" stroke-width="1px" opacity="0.25"></line><line x1="0" y1="101.13600000000001" x2="268.034875" y2="101.13600000000001" fill="rgb(0, 0, 0)" stroke="rgb(66, 66, 66)" stroke-width="1px" opacity="0.25"></line><line x1="0" y1="75.85199999999999" x2="268.034875" y2="75.85199999999999" fill="rgb(0, 0, 0)" stroke="rgb(66, 66, 66)" stroke-width="1px" opacity="0.25"></line><line x1="0" y1="50.567999999999955" x2="268.034875" y2="50.567999999999955" fill="rgb(0, 0, 0)" stroke="rgb(66, 66, 66)" stroke-width="1px" opacity="0.25"></line><line x1="0" y1="25.28399999999991" x2="268.034875" y2="25.28399999999991" fill="rgb(0, 0, 0)" stroke="rgb(66, 66, 66)" stroke-width="1px" opacity="0.25"></line><line x1="0" y1="0" x2="268.034875" y2="0" fill="rgb(0, 0, 0)" stroke="rgb(66, 66, 66)" stroke-width="1px" opacity="0.25"></line></g></g></g><g><g><line x1="0" y1="-682.6680000000002" x2="268.034875" y2="-682.6680000000002" fill="rgb(0, 0, 0)" stroke="rgb(153, 153, 153)" stroke-width="1.5px"></line></g></g><g><g><line x1="26.803487500000003" y1="0" x2="26.803487500000003" y2="176.988" fill="rgb(0, 0, 0)" stroke="rgb(153, 153, 153)" stroke-width="1.5px"></line></g></g><g><g><g><g><g><path stroke="rgb(255, 112, 67)" stroke-width="2px" d="M27.33955725,115.02139556121826L27.875626999999998,135.04778528523445L28.41169675,182.83869430732724L33.2363245,205.46841574148027L33.77239425,142.51107597966887L34.308464,169.22274528900073L34.844533750000004,161.8305689638629L35.3806035,170.3064406951262L35.91667325,182.6861460494455L36.452743000000005,152.36544813593153L36.98881275,189.56734864824296L37.524882500000004,191.22078107751753L38.06095225,176.22464500309388L38.597021999999996,174.38654619929488L39.13309175,167.86203923449762L39.6691615,136.71787448385223L40.20523125,149.77641400041102L40.741301,163.20342773585827L41.27737075,159.63984328963076L41.8134405,190.752793050337L42.34951025,165.9642865972278L42.88558,165.8488643682753L43.42164975,149.00652436498174L43.9577195,150.52108175536617L44.49378925,143.51713631413486L45.029859,146.6130572609413L45.565928750000005,121.51154816684273L46.10199849999999,100.76544663884984L46.638068249999996,88.31778585900395L47.174138,81.07674100450627L47.710207749999995,85.7183633546525L48.2462775,81.60059371453191L48.78234725,81.52924217760594L49.318417,75.59782021444515L49.85448675,68.21556064994263L50.3905565,49.02725440193067L50.92662625,56.65338982838296L51.462696,21.116386640632467L51.998765750000004,25.732482883294917L52.5348355,16.18990593307078L53.07090525,30.80195253297008L53.606975000000006,29.11586628752976L54.14304475,38.07857815726585L54.6791145,17.65718208945995L55.21518425,17.86506515959064L55.751253999999996,23.707856902767286L56.28732375,26.41964536724796L56.8233935,32.28170453373597L57.35946325,41.091147515012864L57.895533,8.3454649112861L58.43160275,18.288873174372572L58.9676725,15.273539672293042L59.50374225,25.149330564545537L60.039812,7.3051791996279425L60.57588175,8.884664344270199L61.1119515,27.08861019942719L61.64802125,8.05294755733926L62.184091,12.589866248636957L62.720160750000005,14.009859248846453L63.256230499999994,29.868732353049335L63.79230025,29.69824929647317L64.32836999999999,27.96266151941223L64.86443975,27.27002674105406L65.4005095,27.41484916764883L65.93657925,28.941753152170083L66.472649,38.74906838681584L67.00871875,32.28577716108728L67.5447885,18.532734913137904L68.08085825,26.05416085755067L68.616928,48.59058557703042L69.15299775,38.00649054909912L69.68906750000001,34.01924706001975L70.22513725,38.967820011066685L70.761207,29.426691469530578L71.29727675000001,26.496724664128003L71.8333465,31.38782199635282L72.36941625,20.707774020565573L72.90548600000001,33.22206710780442L73.44155575,37.37306985147472L73.9776255,43.638032650325826L74.51369525000001,46.13931593647845L75.04976500000001,21.248782433743784L75.58583474999999,18.795268923136916L76.1219045,27.564355587585702L76.65797425,32.72725897556782L77.19404399999999,23.32864172490967L77.73011375,25.72490855789498L78.2661835,31.386538790132466L78.80225324999999,32.82742225250353L79.338323,33.84489919500799L79.87439275,37.23261397150308L80.4104625,31.555881715268775L80.94653225,11.87384124382187L81.482602,18.610443113755235L82.01867175,34.83951812350216L82.5547415,40.96828034813085L83.09081125,51.818005395310415L83.626881,44.291258224521464L84.16295075,56.086560260030154L84.6990205,33.30978174546507L85.23509025,19.840835970801916L85.77116,10.010453708793483L86.30722975,15.767339708033736L86.8432995,18.473471196951486L87.37936925,37.040807797516614L87.915439,30.01602670960739L88.45150875,15.318378130561822L88.9875785,41.57870587613979L89.52364825000001,18.056879242389147L90.059718,16.950198518639038L90.59578775,21.839031755379025L91.13185750000001,20.492664773899975L91.66792725,17.808345935415346L92.20399699999999,20.263879472107387L92.74006675,29.197862313849132L93.27613649999999,35.20782408234029L93.81220624999999,36.73916842630237L94.348276,33.973506030909654L94.88434575,21.458329289169505L95.42041549999999,35.02562918513497L95.95648525,-13.074600336209041L96.492555,10.329566382899822L97.02862474999999,14.171332756528223L97.5646945,18.24180401487883L98.10076425,16.16488427049964L98.636834,32.49197276505853L99.17290375,42.95175917935976L99.7089735,45.94965394664182L100.24504325,51.918417277195246L100.781113,46.658873864852275L101.31718275,52.67250889761611L101.8532525,30.104640528388902L102.38932225,15.445451851670732L102.925392,20.683241517344005L103.46146175,12.665761382269112L103.99753150000001,20.58622505674789L104.53360125,18.899519813406602L105.069671,10.624533986585124L105.60574075000001,39.62647804499669L106.1418105,43.560411386781915L106.67788025,24.89442341898321L107.21395000000001,43.714058829679765L107.75001975,34.3263533130971L108.2860895,49.02449887826962L108.82215925000001,53.17895291735485L109.358229,35.22639347206211L109.89429874999999,34.775407476059435L110.4303685,28.458001406259328L110.96643825,29.996295988408853L111.50250799999999,43.89631872387414L112.03857775,33.35606304371167L112.5746475,23.85009400756246L113.11071725,28.533806214565505L113.646787,36.2157637328592L114.18285675,26.66668335339349L114.7189265,36.88860694425657L115.25499625,49.465060720356426L115.791066,57.940863428826326L116.32713575,54.50785812306115L116.8632055,53.26583720812623L117.39927525,44.88099746952905L117.935345,22.148814840665185L118.47141475,37.64189240934286L119.0074845,23.335551648913768L119.54355425,7.697214702879709L120.079624,21.89966562211226L120.61569375,5.276893391059136L121.1517635,-19.208926956697542L121.68783325,-6.077375818946486L122.223903,7.568927239192383L122.75997275,8.973926729257604L123.2960425,8.050888058886287L123.83211225000001,35.83749443735208L124.368182,37.246865761837434L124.90425175,36.8200371901041L125.44032150000001,23.234004675665187L125.97639124999999,29.339019879221155L126.51246099999999,13.457020727276293L127.04853075,15.666969356989489L127.5846005,35.75167984112241L128.12067025,34.95559639496876L128.65673999999999,27.77811167532954L129.19280975,34.370995912210596L129.7288795,40.6337573877194L130.26494925,30.272655987502223L130.801019,31.529847514773117L131.33708875,31.410752160444616L131.8731585,44.442185122713205L132.40922825,34.9378532725721L132.945298,39.22213227146556L133.48136775,32.92547073937471L134.0174375,27.546824474722197L134.55350725,37.18400404838926L135.089577,20.981339262224367L135.62564675,25.651454456077328L136.1617165,31.41198324722418L136.69778625,49.32282817465286L137.233856,12.066661322058636L137.76992575,31.281498224509615L138.3059955,34.15275903526121L138.84206525,48.42333130998124L139.37813500000001,40.627714484993916L139.91420475,45.220158984270306L140.4502745,38.63402757745177L140.98634425,28.88579998915905L141.522414,35.188869230708576L142.05848375,38.85940654590189L142.59455350000002,36.044647376790365L143.13062325,42.08060923906257L143.666693,46.07330494391972L144.20276275,52.23723123142745L144.7388325,33.52842518447408L145.27490225,37.90938827947716L145.81097200000002,51.77453322174517L146.34704175000002,59.90648151141619L146.8831115,53.34627146834258L147.41918125,42.76750611831019L147.955251,48.28724057207865L148.49132075,44.62320438658219L149.02739050000002,42.89784976436503L149.56346025000002,47.85073703528529L150.09953000000002,65.06721654825851L150.63559975,60.44621664465343L151.17166949999998,46.55054810278936L151.70773924999997,60.22461936689216L152.243809,68.30456824794292L152.77987875,41.890420190709094L153.3159485,53.708290368972506L153.85201825,72.7736452388396L154.38808799999998,65.05336375692075L154.92415774999998,60.295832933107505L155.4602275,65.18534962558721L155.99629725,68.0322298032759L156.532367,64.48255925342548L157.06843675,42.21515489943689L157.60450649999999,33.151595679377735L158.14057624999998,38.549876952609544L158.676646,52.27618294341621L159.21271575,58.55358115429431L159.7487855,69.45405214716651L160.28485525,66.14680393539459L160.820925,71.20992247659318L161.35699474999998,72.98684399346318L161.8930645,66.9570870181787L162.42913425,74.7550778533023L162.965204,69.01180821024184L163.50127375,70.13836210662609L164.0373435,70.66957001055769L164.57341325,56.07391377147126L165.109483,54.01379873361635L165.64555275,60.37901770528823L166.1816225,62.77453519668979L166.71769225,65.37060567077876L167.253762,61.75187789145045L167.78983175,73.83469587702115L168.3259015,66.94870126644703L168.86197125,72.41393555097538L169.398041,75.24470043886159L169.93411075,70.91462232706812L170.4701805,45.84211509088201L171.00625025,51.86399718563271L171.54232,64.72439566092798L172.07838975,55.54544356873696L172.6144595,45.93732163440619L173.15052925,59.23071775710253L173.686599,61.24484178020761L174.22266875,67.56880168677685L174.7587385,64.90256508951977L175.29480825000002,73.31482667501922L175.830878,71.5976787091741L176.36694775,70.58340076340731L176.9030175,55.53913836301261L177.43908725,57.2902350746924L177.975157,61.266993531235194L178.51122675000002,63.17125271816735L179.04729650000002,58.8251063451033L179.58336625,63.934905623773304L180.119436,68.25177625313972L180.65550575,54.73825510277496L181.1915755,67.16020276488155L181.72764525000002,68.22651957457826L182.26371500000002,52.593660208186876L182.79978475000001,59.23914949863031L183.3358545,68.07512152443451L183.87192425,69.40833279167492L184.40799399999997,67.09453819276615L184.94406375,71.62252974015308L185.4801335,71.14728525513308L186.01620325,62.03558775998295L186.55227299999999,59.52119366398539L187.08834274999998,65.87713178753305L187.62441249999998,56.873154195353116L188.16048225,57.229989922454784L188.696552,60.58889399009398L189.23262175,71.2008244014112L189.7686915,45.45304723865545L190.30476124999998,48.107666684715504L190.84083099999998,65.56900715423131L191.37690075,77.91162815881086L191.9129705,79.83182642913044L192.44904025,76.70140905633077L192.98511,46.23926310576501L193.52117975,63.017696009668704L194.05724949999998,67.39480926076956L194.59331925,75.67712124448059L195.129389,77.87513921015889L195.66545875,74.51555543542757L196.2015285,65.61929404693153L196.73759825,55.672490788968254L197.273668,66.37407391521447L197.80973775,54.48793749488067L198.3458075,51.8899257629196L198.88187725,63.68511857115503L199.417947,57.61478380901384L199.95401675,57.588065514747946L200.4900865,65.03759213630241L201.02615624999999,70.88235902018478L201.562226,57.873103752107156L202.09829575,68.61299094083951L202.6343655,69.44312467390921L203.17043525,74.6767465702452L203.706505,75.18137733057488L204.24257475,60.48427116610617L204.7786445,55.575255071795L205.31471425,62.58525644883865L205.850784,54.224416565378604L206.38685375,54.88445246455668L206.9229235,55.52309600571149L207.45899325,60.97419326321688L207.99506300000002,73.52327444639452L208.53113275,58.77275583681263L209.0672025,50.503657225994985L209.60327225,46.608992195551785L210.139342,57.874095707956016L210.67541175,61.72779430908147L211.21148150000002,62.85096793753015L211.74755125000001,60.96453725284392L212.283621,69.1890339216831L212.81969075,33.85718433463827L213.3557605,47.48175853092816L213.89183025,60.06763242034526L214.42790000000002,62.28376342437507L214.96396975000002,61.67138094204574L215.5000395,58.69495715943511L216.03610925,42.16609087738713L216.572179,31.312040883548917L217.10824875,51.88798844690786L217.64431850000003,45.95256063177383L218.18038825,45.55648180676822L218.716458,58.799450154312346L219.25252774999998,57.92116396694652L219.78859749999998,48.565664208872825L220.32466724999998,55.97775630654326L220.860737,66.92531361287502L221.39680675,62.49052307220496L221.9328765,76.31224749124169L222.46894625,59.76230345156263L223.00501599999998,63.691377406325735L223.54108574999998,71.82649027817646L224.0771555,75.5355119235588L224.61322525,74.9808510010286L225.149295,75.51133738360659L225.68536475,75.46398420888096L226.2214345,70.0365937807912L226.75750424999998,70.61950440690246L227.293574,76.04514321955034L227.82964375,63.31643375277512L228.3657135,65.44164515690808L228.90178325,60.743670055418015L229.437853,62.685913776414864L229.97392274999999,56.05359817429622L230.5099925,63.14287915833129L231.04606225,62.525103357883296L231.582132,60.94439018245453L232.11820175,64.74698428800059L232.6542715,77.22500646101446L233.19034125,84.7442513482273L233.726411,75.82068330557946L234.26248075,64.0656812129008L234.7985505,64.98453194703974L235.33462025,76.44469374784416L235.87069,84.7528923908269L236.40675975,76.51172961021629L236.9428295,79.47775823350653L237.47889925,66.26593023230977L238.014969,74.9217651256224L238.55103875,74.44962517339582L239.0871085,76.8650347445404L239.62317825,72.45043319337336L240.159248,60.43950602198109L240.69531775000002,60.803421681120696L241.2313875,63.64246003000418" style="fill: none;" fill="none"></path></g></g></g></g><g opacity="0.2"><g><g><g><path stroke="rgb(255, 112, 67)" stroke-width="2px" d="M27.33955725,115.02139556121826L27.875626999999998,147.06361911964416L28.41169675,228.71796696853642L30.55597575,183.93579761695864L31.0920455,173.20998577308657L31.628115249999997,265.40297062110903L33.2363245,186.3276570339203L33.77239425,48.280632974624616L34.308464,209.2379183120728L34.844533750000004,150.75099370193482L35.3806035,183.01427045059208L35.91667325,201.25046540451052L36.452743000000005,106.89209968757629L36.98881275,245.36453208160407L37.524882500000004,193.70077859115602L38.06095225,153.7312633152008L38.597021999999996,171.62945847702028L39.13309175,158.07540760231018L39.6691615,90.00199629020689L40.20523125,169.36413046073915L40.741301,183.34389107894899L41.27737075,154.29447573852542L41.8134405,237.42216992568973L42.34951025,128.78154975128174L42.88558,165.67573108863832L43.42164975,123.74301994514467L43.9577195,152.79291753959657L44.49378925,133.0112189884186L45.029859,151.25693845939637L45.565928750000005,83.85928560447691L46.10199849999999,69.64629488182065L46.638068249999996,69.64629488182065L47.174138,70.21517378997801L47.710207749999995,92.68079685401915L48.2462775,75.42393926811216L48.78234725,81.42221487236023L49.318417,66.7006872768402L49.85448675,57.14217130851744L50.3905565,20.244795038223227L50.92662625,68.09259296607969L51.462696,-32.18911813545233L51.998765750000004,32.656627246856644L52.5348355,1.8760405082702103L53.07090525,52.72002243232724L53.606975000000006,26.58673691940304L54.14304475,51.522645961761455L54.6791145,-12.974912012100276L55.21518425,18.176889764785734L55.751253999999996,32.472044517517055L56.28732375,30.487328063964803L56.8233935,41.07479328346249L57.35946325,54.305311986923186L57.895533,-40.773058994293265L58.43160275,33.2039855690002L58.9676725,10.75053941917416L59.50374225,39.963016902923556L60.039812,-19.46104784774786L60.57588175,11.253892061233485L61.1119515,54.394528982162456L61.64802125,-20.50054640579228L62.184091,19.395244285583452L62.720160750000005,16.139848749160727L63.256230499999994,53.657042009353624L63.79230025,29.442524711608847L64.32836999999999,25.35927985382077L64.86443975,26.231074573516814L65.4005095,27.632082807540865L65.93657925,31.232109128951986L66.472649,53.460041238784754L67.00871875,22.59084032249446L67.5447885,-2.0968284587860446L68.08085825,37.3362997741699L68.616928,82.39522265624998L69.15299775,22.130348007202116L69.68906750000001,28.038381826400727L70.22513725,46.390679437637296L70.761207,15.11499865722653L71.29727675000001,22.101774456024124L71.8333465,38.72446799468991L72.36941625,4.687702056884715L72.90548600000001,51.993506738662695L73.44155575,43.59957396697995L73.9776255,53.03547684860228L74.51369525000001,49.891240865707374L75.04976500000001,-16.087017820358316L75.58583474999999,15.11499865722653L76.1219045,40.71798558425901L76.65797425,40.471614057540855L77.19404399999999,9.230715848922681L77.73011375,29.31930880737301L78.2661835,39.87898413848874L78.80225324999999,34.98874744606015L79.338323,35.37111460876462L79.87439275,42.3141861362457L80.4104625,23.040783330917318L80.94653225,-17.64921946334845L81.482602,28.71534591865537L82.01867175,59.18313063812254L82.5547415,50.161423685073835L83.09081125,68.09259296607969L83.626881,33.00113746833798L84.16295075,73.77951331329344L84.6990205,-0.85538602638248L85.77116,-4.735119684219399L86.30722975,24.40266870689389L86.8432995,22.53266843032833L87.37936925,64.89181269836423L87.915439,19.47885507774349L88.45150875,-6.728094738006631L88.9875785,80.96919749450682L89.52364825000001,-17.225860708236752L90.059718,15.290177433013884L90.59578775,29.172281610488863L91.13185750000001,18.473114301681488L91.66792725,13.78186767768856L92.20399699999999,23.947179777145347L92.74006675,42.59883657646176L93.27613649999999,44.222766735076874L93.81220624999999,39.03618494224545L94.348276,29.825012437820405L94.88434575,2.6855641765594034L95.42041549999999,55.37657902908324L95.95648525,-85.22494461822517L96.492555,45.43581646156308L97.02862474999999,19.933982316970795L97.5646945,24.34751090240474L98.10076425,13.049504653930633L98.636834,56.98260550689695L99.17290375,58.641438800811756L99.7089735,50.44649609756467L100.24504325,60.871562273025496L100.781113,38.76955874633786L101.31718275,61.69296144676206L101.8532525,-3.747162025451694L102.38932225,-6.5433311634064335L102.925392,28.539926015853844L103.46146175,0.6395411796569431L103.99753150000001,32.46692056846615L104.53360125,16.36946194839474L105.069671,-1.7879447536468842L105.60574075000001,83.12939413261412L106.1418105,49.46131139945982L106.67788025,-3.1045585327148997L107.21395000000001,71.94351194572447L107.75001975,20.244795038223227L108.2860895,71.07171722602843L108.82215925000001,59.41063397598265L109.358229,8.297554304122889L109.89429874999999,34.09892848205564L110.4303685,18.981892301559412L110.96643825,32.30373786163327L111.50250799999999,64.74635282707212L112.03857775,17.54567952346797L112.5746475,9.591140453338578L113.11071725,35.55937452507017L113.646787,47.73870001029966L114.18285675,12.343062784194913L114.7189265,52.22149233055113L115.25499625,68.3297413845062L115.791066,70.65456749153135L116.32713575,49.35835016441343L116.8632055,51.40280583572386L117.39927525,32.30373786163327L117.935345,-11.949459102630648L118.47141475,60.881508762359594L119.0074845,1.8760405082702103L119.54355425,-15.760290716171298L120.079624,43.20334200096128L120.61569375,-19.657264955520684L121.1517635,-55.937657478332596L121.68783325,13.61995088768002L122.223903,28.038381826400727L122.75997275,11.081425964355438L123.2960425,6.666330053329418L123.83211225000001,77.51740400505064L124.368182,39.36092274856565L124.90425175,36.17979433250424L125.44032150000001,2.8549559040069217L125.97639124999999,38.496542684555024L126.51246099999999,-10.365978000640931L127.04853075,18.981892301559412L127.5846005,65.87874556732177L128.12067025,33.76147122573849L128.65673999999999,17.011884595870924L129.19280975,44.260322267532324L129.7288795,50.02789960098264L130.26494925,14.73100388717648L130.801019,33.4156348056793L131.33708875,31.232109128951986L131.8731585,63.98933456611631L132.40922825,20.6813554973602L132.945298,45.64855076980588L133.48136775,23.480478441238365L134.0174375,19.47885507774349L134.55350725,51.639773408889745L135.089577,-3.3226579170227386L135.62564675,32.656627246856644L136.1617165,40.05277643394467L136.69778625,76.18909556579588L137.233856,-43.817588956832935L137.76992575,60.10375357818601L138.3059955,38.45965025138851L138.84206525,69.82918972206114L139.37813500000001,28.93428924751279L139.91420475,52.108825733184794L140.4502745,28.75483046722409L140.98634425,14.263458606719936L141.522414,44.64347309303281L142.05848375,44.36521251869198L142.59455350000002,31.82250862312313L143.13062325,51.13455203247067L143.666693,52.06234850120543L144.20276275,61.48312066268918L144.7388325,5.46521611404415L145.27490225,44.48083292198177L145.81097200000002,72.57225063514707L146.34704175000002,72.10440394592284L146.8831115,43.50595640373228L147.41918125,26.899358093261682L147.955251,56.5668422527313L148.49132075,39.12715010833738L149.02739050000002,40.3098178310394L149.56346025000002,55.28006794166562L150.09953000000002,90.89193581771849L150.63559975,53.51471678924558L151.17166949999998,25.707045289993257L151.70773924999997,80.73572626304625L152.243809,80.42449156951903L152.77987875,2.269198104858359L153.3159485,71.43509563636778L153.85201825,101.37167754364013L154.38808799999998,53.472941534042334L154.92415774999998,53.15953669738768L155.4602275,72.51962466430662L155.99629725,72.30255006980893L156.532367,59.15805342864987L157.06843675,8.814048368453943L157.60450649999999,19.556256849288907L158.14057624999998,46.64729886245724L158.676646,72.86564192962645L159.21271575,67.96967847061154L159.7487855,85.8047586364746L160.28485525,61.1859316177368L160.820925,78.8046002883911L161.35699474999998,75.65222626876829L161.8930645,57.91245155525205L162.42913425,86.45206410598755L162.965204,60.396903745651215L163.50127375,71.82819295120238L164.0373435,71.46638186645507L164.57341325,34.18042941284176L165.109483,50.92362617683408L165.64555275,69.926846162796L166.1816225,66.3678114337921L166.71769225,69.2647113819122L167.253762,56.32378622245786L167.78983175,91.95892285537717L168.3259015,56.61970935058592L168.86197125,80.61178697776792L169.398041,79.4908477706909L169.93411075,64.41950515937803L170.4701805,8.233354236602743L171.00625025,60.896820327758775L171.54232,84.01499337387084L172.07838975,41.77701543045041L172.6144595,31.525138732910126L173.15052925,79.17081194114684L173.686599,64.26602781486508L174.22266875,77.05474154663085L174.7587385,60.90321019363402L175.29480825000002,85.93321905326842L175.830878,69.02195676040648L176.36694775,69.06198384475707L176.9030175,32.97274476242062L177.43908725,59.916880142211895L177.975157,67.23213121604917L178.51122675000002,66.02764149856566L179.04729650000002,52.305886785507184L179.58336625,71.59960454177855L180.119436,74.72708219718932L180.65550575,34.46797337722775L181.1915755,85.79312425804136L181.72764525000002,69.82599478912351L182.26371500000002,29.14437115859982L182.79978475000001,69.20738343429562L183.3358545,81.32907956314085L183.87192425,71.40814969253539L184.40799399999997,63.62384629440305L184.94406375,78.4145170612335L185.4801335,70.43441852760314L186.01620325,48.36804151725767L186.55227299999999,55.749602519989L187.08834274999998,75.4110389728546L187.62441249999998,43.36718780708311L188.16048225,57.76524351310728L188.696552,65.62725009155272L189.23262175,87.11872001838682L189.7686915,6.831381494522047L190.30476124999998,52.08959585380551L190.84083099999998,91.76101785850523L191.37690075,96.42555966567993L191.9129705,82.71212383460998L192.44904025,72.00578299713133L192.98511,0.5460441799163313L193.52117975,88.18534536552427L194.05724949999998,73.96047913742063L194.59331925,88.10058922004698L195.129389,81.17216615867613L195.66545875,69.47617977333066L196.2015285,52.2749019641876L196.73759825,40.75228590202328L197.273668,82.42644860458373L197.80973775,36.65873286437984L198.3458075,47.99290816497801L198.88187725,81.37790778350829L199.417947,48.50928166580198L199.95401675,57.54798807334898L200.4900865,76.21188206863401L201.02615624999999,79.6495093460083L201.562226,38.359220849990805L202.09829575,84.72282172393798L202.6343655,70.68832527351378L203.17043525,82.52717941474913L203.706505,75.93832347106931L204.24257475,38.43861191940304L204.7786445,48.21173093032834L205.31471425,73.10025851440427L205.850784,41.683156740188565L206.38685375,55.874506313323955L206.9229235,56.48106131744382L207.45899325,69.15083914947508L207.99506300000002,92.34689622116088L208.53113275,36.64697792243954L209.0672025,38.10000930976865L209.60327225,40.76699464988707L210.139342,74.77175097656249L210.67541175,67.50834221076964L211.21148150000002,64.53572838020322L211.74755125000001,58.1348912258148L212.283621,81.525778924942L212.81969075,-19.140590045929024L213.3557605,67.91861982536314L213.89183025,78.94644325447082L214.42790000000002,65.6079599304199L214.96396975000002,60.75280721855162L215.5000395,54.23032148551938L216.03610925,17.372791454315145L216.572179,15.030965892791711L217.10824875,82.75190979194639L217.64431850000003,37.049418909072834L218.18038825,44.96236356925961L218.716458,78.66390267562865L219.25252774999998,56.60373468589781L219.78859749999998,34.53241457176205L220.32466724999998,67.09589445304869L220.860737,83.34664957237243L221.39680675,55.83833726119992L221.9328765,97.04483411979675L222.46894625,34.937387392044045L223.00501599999998,69.58498833847042L223.54108574999998,84.02915958595275L224.0771555,81.09904439163206L224.61322525,74.14885961723326L225.149295,76.30706695747372L225.68536475,75.39295444679259L226.2214345,61.895508138656595L226.75750424999998,71.49387034606931L227.293574,84.18360143852233L227.82964375,44.22336955261228L228.3657135,68.62946226310729L228.90178325,53.69670740318297L229.437853,65.59927935791013L229.97392274999999,46.105124771118135L230.5099925,73.77680063438414L231.04606225,61.59843965721128L231.582132,58.5733204193115L232.11820175,70.45087544631957L232.6542715,95.94203972053526L233.19034125,96.02311867904663L233.726411,62.43533124160765L234.26248075,46.433178073883035L234.7985505,66.36280804824827L235.33462025,93.6349364490509L235.87069,97.2151903553009L236.40675975,64.14998543930051L236.9428295,83.92680116844176L237.47889925,46.448188230514496L238.014969,87.90551746559142L238.55103875,73.74141524505615L239.0871085,80.4881491012573L239.62317825,65.82853086662291L240.159248,42.42311526489255L240.69531775000002,61.34929516983029L241.2313875,67.90101755332944" style="fill: none;" fill="none"></path></g></g></g></g></g></g><g transform="translate(61, 176)" clip-path="url(#clip_1)"><clipPath id="clip_1"><rect width="268" height="22"></rect></clipPath><g><g><line x1="0" y1="0" x2="0" y2="5" style="visibility: inherit;" fill="rgb(0, 0, 0)" stroke="rgb(204, 204, 204)" stroke-width="1px"></line><line x1="26.803487500000003" y1="0" x2="26.803487500000003" y2="5" style="visibility: inherit;" fill="rgb(0, 0, 0)" stroke="rgb(204, 204, 204)" stroke-width="1px"></line><line x1="53.606975000000006" y1="0" x2="53.606975000000006" y2="5" style="visibility: inherit;" fill="rgb(0, 0, 0)" stroke="rgb(204, 204, 204)" stroke-width="1px"></line><line x1="80.4104625" y1="0" x2="80.4104625" y2="5" style="visibility: inherit;" fill="rgb(0, 0, 0)" stroke="rgb(204, 204, 204)" stroke-width="1px"></line><line x1="107.21395000000001" y1="0" x2="107.21395000000001" y2="5" style="visibility: inherit;" fill="rgb(0, 0, 0)" stroke="rgb(204, 204, 204)" stroke-width="1px"></line><line x1="134.0174375" y1="0" x2="134.0174375" y2="5" style="visibility: inherit;" fill="rgb(0, 0, 0)" stroke="rgb(204, 204, 204)" stroke-width="1px"></line><line x1="160.820925" y1="0" x2="160.820925" y2="5" style="visibility: inherit;" fill="rgb(0, 0, 0)" stroke="rgb(204, 204, 204)" stroke-width="1px"></line><line x1="187.62441249999998" y1="0" x2="187.62441249999998" y2="5" style="visibility: inherit;" fill="rgb(0, 0, 0)" stroke="rgb(204, 204, 204)" stroke-width="1px"></line><line x1="214.42790000000002" y1="0" x2="214.42790000000002" y2="5" style="visibility: inherit;" fill="rgb(0, 0, 0)" stroke="rgb(204, 204, 204)" stroke-width="1px"></line><line x1="241.2313875" y1="0" x2="241.2313875" y2="5" style="visibility: inherit;" fill="rgb(0, 0, 0)" stroke="rgb(204, 204, 204)" stroke-width="1px"></line><line x1="268.034875" y1="0" x2="268.034875" y2="5" style="visibility: inherit;" fill="rgb(0, 0, 0)" stroke="rgb(204, 204, 204)" stroke-width="1px"></line></g><g transform="translate(0, 8)"><text x="0" y="0" dx="0em" dy="0.95em" style="text-anchor: middle; visibility: hidden; font-family: Roboto, sans-serif; font-size: 12px; font-weight: 200;" fill="rgb(33, 33, 33)" stroke="none" stroke-width="1px">-200k</text><text x="26.803487500000003" y="0" dx="0em" dy="0.95em" style="text-anchor: middle; visibility: inherit; font-family: Roboto, sans-serif; font-size: 12px; font-weight: 200;" fill="rgb(33, 33, 33)" stroke="none" stroke-width="1px">0</text><text x="53.606975000000006" y="0" dx="0em" dy="0.95em" style="text-anchor: middle; visibility: hidden; font-family: Roboto, sans-serif; font-size: 12px; font-weight: 200;" fill="rgb(33, 33, 33)" stroke="none" stroke-width="1px">200k</text><text x="80.4104625" y="0" dx="0em" dy="0.95em" style="text-anchor: middle; visibility: inherit; font-family: Roboto, sans-serif; font-size: 12px; font-weight: 200;" fill="rgb(33, 33, 33)" stroke="none" stroke-width="1px">400k</text><text x="107.21395000000001" y="0" dx="0em" dy="0.95em" style="text-anchor: middle; visibility: hidden; font-family: Roboto, sans-serif; font-size: 12px; font-weight: 200;" fill="rgb(33, 33, 33)" stroke="none" stroke-width="1px">600k</text><text x="134.0174375" y="0" dx="0em" dy="0.95em" style="text-anchor: middle; visibility: inherit; font-family: Roboto, sans-serif; font-size: 12px; font-weight: 200;" fill="rgb(33, 33, 33)" stroke="none" stroke-width="1px">800k</text><text x="160.820925" y="0" dx="0em" dy="0.95em" style="text-anchor: middle; visibility: hidden; font-family: Roboto, sans-serif; font-size: 12px; font-weight: 200;" fill="rgb(33, 33, 33)" stroke="none" stroke-width="1px">1M</text><text x="187.62441249999998" y="0" dx="0em" dy="0.95em" style="text-anchor: middle; visibility: inherit; font-family: Roboto, sans-serif; font-size: 12px; font-weight: 200;" fill="rgb(33, 33, 33)" stroke="none" stroke-width="1px">1.2M</text><text x="214.42790000000002" y="0" dx="0em" dy="0.95em" style="text-anchor: middle; visibility: hidden; font-family: Roboto, sans-serif; font-size: 12px; font-weight: 200;" fill="rgb(33, 33, 33)" stroke="none" stroke-width="1px">1.4M</text><text x="241.2313875" y="0" dx="0em" dy="0.95em" style="text-anchor: middle; visibility: inherit; font-family: Roboto, sans-serif; font-size: 12px; font-weight: 200;" fill="rgb(33, 33, 33)" stroke="none" stroke-width="1px">1.6M</text><text x="268.034875" y="0" dx="0em" dy="0.95em" style="text-anchor: middle; visibility: hidden; font-family: Roboto, sans-serif; font-size: 12px; font-weight: 200;" fill="rgb(33, 33, 33)" stroke="none" stroke-width="1px">1.8M</text></g><line x1="0" y1="0" x2="268.034875" y2="0" fill="rgb(0, 0, 0)" stroke="rgb(204, 204, 204)" stroke-width="1px"></line></g></g></g></g></svg>