<svg viewBox="0 0 329.9884338378906 199.98843383789062" xmlns="http://www.w3.org/2000/svg"><g><g><g><g><g><line x1="61.953125" y1="176.988" x2="56.953125" y2="176.988" style="visibility: inherit;" fill="rgb(0, 0, 0)" stroke="rgb(204, 204, 204)" stroke-width="1px"></line><line x1="61.953125" y1="154.8645" x2="56.953125" y2="154.8645" style="visibility: inherit;" fill="rgb(0, 0, 0)" stroke="rgb(204, 204, 204)" stroke-width="1px"></line><line x1="61.953125" y1="132.74099999999999" x2="56.953125" y2="132.74099999999999" style="visibility: inherit;" fill="rgb(0, 0, 0)" stroke="rgb(204, 204, 204)" stroke-width="1px"></line><line x1="61.953125" y1="110.6175" x2="56.953125" y2="110.6175" style="visibility: inherit;" fill="rgb(0, 0, 0)" stroke="rgb(204, 204, 204)" stroke-width="1px"></line><line x1="61.953125" y1="88.494" x2="56.953125" y2="88.494" style="visibility: inherit;" fill="rgb(0, 0, 0)" stroke="rgb(204, 204, 204)" stroke-width="1px"></line><line x1="61.953125" y1="66.37049999999999" x2="56.953125" y2="66.37049999999999" style="visibility: inherit;" fill="rgb(0, 0, 0)" stroke="rgb(204, 204, 204)" stroke-width="1px"></line><line x1="61.953125" y1="44.247" x2="56.953125" y2="44.247" style="visibility: inherit;" fill="rgb(0, 0, 0)" stroke="rgb(204, 204, 204)" stroke-width="1px"></line><line x1="61.953125" y1="22.12349999999998" x2="56.953125" y2="22.12349999999998" style="visibility: inherit;" fill="rgb(0, 0, 0)" stroke="rgb(204, 204, 204)" stroke-width="1px"></line><line x1="61.953125" y1="0" x2="56.953125" y2="0" style="visibility: inherit;" fill="rgb(0, 0, 0)" stroke="rgb(204, 204, 204)" stroke-width="1px"></line></g><g transform="translate(51.953125, 0)"><text x="0" y="176.988" dx="0em" dy="0.3em" style="text-anchor: end; visibility: hidden; font-family: Roboto, sans-serif; font-size: 12px; font-weight: 200;" fill="rgb(33, 33, 33)" stroke="none" stroke-width="1px">-0.03</text><text x="0" y="154.8645" dx="0em" dy="0.3em" style="text-anchor: end; visibility: inherit; font-family: Roboto, sans-serif; font-size: 12px; font-weight: 200;" fill="rgb(33, 33, 33)" stroke="none" stroke-width="1px">-0.02</text><text x="0" y="132.74099999999999" dx="0em" dy="0.3em" style="text-anchor: end; visibility: hidden; font-family: Roboto, sans-serif; font-size: 12px; font-weight: 200;" fill="rgb(33, 33, 33)" stroke="none" stroke-width="1px">-0.01</text><text x="0" y="110.6175" dx="0em" dy="0.3em" style="text-anchor: end; visibility: inherit; font-family: Roboto, sans-serif; font-size: 12px; font-weight: 200;" fill="rgb(33, 33, 33)" stroke="none" stroke-width="1px">0</text><text x="0" y="88.494" dx="0em" dy="0.3em" style="text-anchor: end; visibility: hidden; font-family: Roboto, sans-serif; font-size: 12px; font-weight: 200;" fill="rgb(33, 33, 33)" stroke="none" stroke-width="1px">0.01</text><text x="0" y="66.37049999999999" dx="0em" dy="0.3em" style="text-anchor: end; visibility: inherit; font-family: Roboto, sans-serif; font-size: 12px; font-weight: 200;" fill="rgb(33, 33, 33)" stroke="none" stroke-width="1px">0.02</text><text x="0" y="44.247" dx="0em" dy="0.3em" style="text-anchor: end; visibility: hidden; font-family: Roboto, sans-serif; font-size: 12px; font-weight: 200;" fill="rgb(33, 33, 33)" stroke="none" stroke-width="1px">0.03</text><text x="0" y="22.12349999999998" dx="0em" dy="0.3em" style="text-anchor: end; visibility: inherit; font-family: Roboto, sans-serif; font-size: 12px; font-weight: 200;" fill="rgb(33, 33, 33)" stroke="none" stroke-width="1px">0.04</text><text x="0" y="0" dx="0em" dy="0.3em" style="text-anchor: end; visibility: hidden; font-family: Roboto, sans-serif; font-size: 12px; font-weight: 200;" fill="rgb(33, 33, 33)" stroke="none" stroke-width="1px">0.05</text></g><line x1="61.953125" y1="0" x2="61.953125" y2="176.988" fill="rgb(0, 0, 0)" stroke="rgb(204, 204, 204)" stroke-width="1px"></line></g></g><g transform="translate(61, 0)" clip-path="url(#clip_0)"><clipPath id="clip_0"><rect width="268" height="176"></rect></clipPath><g><g><g><line x1="0" y1="0" x2="0" y2="176.988" fill="rgb(0, 0, 0)" stroke="rgb(66, 66, 66)" stroke-width="1px" opacity="0.25"></line><line x1="26.803487500000003" y1="0" x2="26.803487500000003" y2="176.988" fill="rgb(0, 0, 0)" stroke="rgb(66, 66, 66)" stroke-width="1px" opacity="0.25"></line><line x1="53.606975000000006" y1="0" x2="53.606975000000006" y2="176.988" fill="rgb(0, 0, 0)" stroke="rgb(66, 66, 66)" stroke-width="1px" opacity="0.25"></line><line x1="80.4104625" y1="0" x2="80.4104625" y2="176.988" fill="rgb(0, 0, 0)" stroke="rgb(66, 66, 66)" stroke-width="1px" opacity="0.25"></line><line x1="107.21395000000001" y1="0" x2="107.21395000000001" y2="176.988" fill="rgb(0, 0, 0)" stroke="rgb(66, 66, 66)" stroke-width="1px" opacity="0.25"></line><line x1="134.0174375" y1="0" x2="134.0174375" y2="176.988" fill="rgb(0, 0, 0)" stroke="rgb(66, 66, 66)" stroke-width="1px" opacity="0.25"></line><line x1="160.820925" y1="0" x2="160.820925" y2="176.988" fill="rgb(0, 0, 0)" stroke="rgb(66, 66, 66)" stroke-width="1px" opacity="0.25"></line><line x1="187.62441249999998" y1="0" x2="187.62441249999998" y2="176.988" fill="rgb(0, 0, 0)" stroke="rgb(66, 66, 66)" stroke-width="1px" opacity="0.25"></line><line x1="214.42790000000002" y1="0" x2="214.42790000000002" y2="176.988" fill="rgb(0, 0, 0)" stroke="rgb(66, 66, 66)" stroke-width="1px" opacity="0.25"></line><line x1="241.2313875" y1="0" x2="241.2313875" y2="176.988" fill="rgb(0, 0, 0)" stroke="rgb(66, 66, 66)" stroke-width="1px" opacity="0.25"></line><line x1="268.034875" y1="0" x2="268.034875" y2="176.988" fill="rgb(0, 0, 0)" stroke="rgb(66, 66, 66)" stroke-width="1px" opacity="0.25"></line></g><g><line x1="0" y1="176.988" x2="268.034875" y2="176.988" fill="rgb(0, 0, 0)" stroke="rgb(66, 66, 66)" stroke-width="1px" opacity="0.25"></line><line x1="0" y1="154.8645" x2="268.034875" y2="154.8645" fill="rgb(0, 0, 0)" stroke="rgb(66, 66, 66)" stroke-width="1px" opacity="0.25"></line><line x1="0" y1="132.74099999999999" x2="268.034875" y2="132.74099999999999" fill="rgb(0, 0, 0)" stroke="rgb(66, 66, 66)" stroke-width="1px" opacity="0.25"></line><line x1="0" y1="110.6175" x2="268.034875" y2="110.6175" fill="rgb(0, 0, 0)" stroke="rgb(66, 66, 66)" stroke-width="1px" opacity="0.25"></line><line x1="0" y1="88.494" x2="268.034875" y2="88.494" fill="rgb(0, 0, 0)" stroke="rgb(66, 66, 66)" stroke-width="1px" opacity="0.25"></line><line x1="0" y1="66.37049999999999" x2="268.034875" y2="66.37049999999999" fill="rgb(0, 0, 0)" stroke="rgb(66, 66, 66)" stroke-width="1px" opacity="0.25"></line><line x1="0" y1="44.247" x2="268.034875" y2="44.247" fill="rgb(0, 0, 0)" stroke="rgb(66, 66, 66)" stroke-width="1px" opacity="0.25"></line><line x1="0" y1="22.12349999999998" x2="268.034875" y2="22.12349999999998" fill="rgb(0, 0, 0)" stroke="rgb(66, 66, 66)" stroke-width="1px" opacity="0.25"></line><line x1="0" y1="0" x2="268.034875" y2="0" fill="rgb(0, 0, 0)" stroke="rgb(66, 66, 66)" stroke-width="1px" opacity="0.25"></line></g></g></g><g><g><line x1="0" y1="110.6175" x2="268.034875" y2="110.6175" fill="rgb(0, 0, 0)" stroke="rgb(153, 153, 153)" stroke-width="1.5px"></line></g></g><g><g><line x1="26.803487500000003" y1="0" x2="26.803487500000003" y2="176.988" fill="rgb(0, 0, 0)" stroke="rgb(153, 153, 153)" stroke-width="1.5px"></line></g></g><g><g><g><g><g><path stroke="rgb(255, 112, 67)" stroke-width="2px" d="M36.452743000000005,-7.328273512212054L36.98881275,12.539432269666626L37.524882500000004,48.43496020326588L38.06095225,92.99257395377697L38.597021999999996,118.75828849415161L39.13309175,135.20284123646294L39.6691615,158.36734638786817L40.20523125,167.0278906254457L40.741301,177.37034669197146L43.42164975,193.5903958667417L43.9577195,167.95090051134596L44.49378925,168.50197542376864L45.029859,163.309105315662L45.565928750000005,160.99689933914377L46.10199849999999,162.16022513146126L46.638068249999996,162.94323977142076L47.174138,153.3796917612281L47.710207749999995,163.26732986243124L48.2462775,174.51545460500813L48.78234725,194.94128493210394L52.5348355,187.39815339769925L53.07090525,157.00475967330374L53.606975000000006,135.09423131458902L54.14304475,121.60290333912762L54.6791145,109.76975898059214L55.21518425,106.26703601004394L55.751253999999996,100.95458139816392L56.28732375,98.43076635036513L56.8233935,94.86995299723175L57.35946325,91.4453064309734L57.895533,90.19098918233739L58.43160275,88.79513012184968L58.9676725,87.18742462597717L59.50374225,87.8078833113085L60.039812,88.20646255985476L60.57588175,87.29808452931388L61.1119515,89.56349937825931L61.64802125,87.7695200802656L62.184091,87.58137095324827L62.720160750000005,87.13714423155864L63.256230499999994,90.93656037584404L63.79230025,165.3754515777854L64.32836999999999,144.47326222403765L64.86443975,123.79708251868288L65.4005095,109.24185040023312L65.93657925,103.60443407578103L66.472649,97.83654286935752L67.00871875,93.41568605738401L67.5447885,93.08011788627888L68.08085825,89.48426057904669L68.616928,89.16641674307185L69.15299775,87.05837062129572L69.68906750000001,84.51183760266271L70.22513725,84.15634303202192L70.761207,85.84121851374557L71.29727675000001,164.72737848368197L71.8333465,145.07726998931935L72.36941625,122.85630080617156L72.90548600000001,107.71779416743183L73.44155575,99.84467590217002L73.9776255,94.47533983304997L74.51369525000001,91.06582124548345L75.04976500000001,88.72013725545072L75.58583474999999,90.20304903414737L76.1219045,88.7290409327113L76.65797425,87.95285465287424L77.19404399999999,84.96025339972081L77.73011375,85.0804550169772L78.2661835,86.69580029852264L78.80225324999999,84.48379887194677L79.338323,84.97380678237971L79.87439275,85.14915902378931L80.4104625,85.99457319927379L80.94653225,88.19004706284204L81.482602,91.11736494707792L82.01867175,88.52884644802424L82.5547415,88.33796239966385L83.09081125,92.13327130165237L83.626881,89.024509668948L84.16295075,87.00042875358193L84.6990205,85.84694860475125L85.23509025,84.7809230260066L85.77116,85.13252549720625L86.30722975,84.83152170006748L86.8432995,85.27905482272027L87.37936925,85.42111570437828L87.915439,84.59775114684226L88.45150875,85.73001191099462L88.9875785,85.79765527235332L89.52364825000001,84.17798313239956L90.059718,83.829376855085L90.59578775,87.42100967407731L91.13185750000001,87.61877398947931L91.66792725,88.03651037345858L92.20399699999999,87.35657394411359L92.74006675,86.48860214298038L93.27613649999999,86.78708400293851L93.81220624999999,85.41319894051352L94.348276,83.98882827330857L94.88434575,84.26626847644437L95.42041549999999,87.02987469817572L95.95648525,90.31158953298292L96.492555,87.68557071551554L97.02862474999999,86.61667147973849L97.5646945,85.1620718609038L98.10076425,85.58097911268058L98.636834,89.03327986721074L99.17290375,160.70946093957946L99.7089735,138.9331828103312L100.24504325,121.58672519667287L100.781113,109.93860323474313L101.31718275,100.60183016749028L101.8532525,96.63364379925238L102.38932225,94.78761150651923L102.925392,91.13683198811113L103.46146175,89.68855169605983L103.99753150000001,89.13765583708452L104.53360125,88.86876088873036L105.069671,86.0217409928135L105.60574075000001,87.1573106530639L106.1418105,86.66361625522495L106.67788025,87.40086163982821L107.21395000000001,139.89145162984775L107.75001975,126.34578121868641L108.2860895,111.80830466907693L108.82215925000001,102.1972300175777L109.358229,94.75065508509135L109.89429874999999,90.58145578200417L110.4303685,87.60276055635391L110.96643825,86.96520853193181L111.50250799999999,87.38900699453251L112.03857775,87.03313806353403L112.5746475,86.63755132749463L113.11071725,86.25204498502856L113.646787,84.784090440125L114.18285675,84.34271859674199L114.7189265,85.23470116376755L115.25499625,85.38408112348542L115.791066,86.11917338511455L116.32713575,87.66376536044392L116.8632055,161.69875833912442L117.39927525,130.89997695982456L117.935345,115.14211859452352L118.47141475,105.28110608707443L119.0074845,96.92357523420051L119.54355425,92.99892209845689L120.079624,89.70879652754088L120.61569375,87.80859517883879L121.1517635,87.4530939029999L121.68783325,86.177700460179L122.223903,84.6271344312196L122.75997275,84.69316283687071L123.2960425,86.62345632733997L123.83211225000001,85.07350502018761L124.368182,85.2995973366477L124.90425175,86.1031499485472L125.44032150000001,85.42118198592883L125.97639124999999,86.22545006598558L126.51246099999999,86.1645930405626L127.04853075,87.07584668608645L127.5846005,86.57628977232213L128.12067025,87.62459056073745L128.65673999999999,154.44875408091735L129.19280975,141.29343266719113L129.7288795,121.65936895858738L130.26494925,108.14440628045942L130.801019,100.00064315834506L131.33708875,99.9075461018614L131.8731585,94.90700521379155L132.40922825,91.16354135184402L132.945298,90.69146414777735L133.48136775,88.59578838946952L134.0174375,87.76050026223457L134.55350725,87.30665256550772L135.089577,91.0829050154812L135.62564675,91.08612768537638L136.1617165,92.74899979195908L136.69778625,96.01430357290829L137.233856,97.16139154493487L137.76992575,96.99887693195598L138.3059955,96.19478589210657L138.84206525,106.34965685648469L139.37813500000001,146.41668484486786L139.91420475,133.96857291653282L140.4502745,129.56451676452807L140.98634425,126.74744259475897L141.522414,114.52982966085622L142.05848375,105.0049768138139L142.59455350000002,94.02418325466417L143.13062325,87.91635249593482L143.666693,83.30975175937189L144.20276275,81.07738407722219L144.7388325,79.48605673402834L145.27490225,78.66553816959805L145.81097200000002,111.65798553409756L146.34704175000002,113.7008337215348L146.8831115,98.40445495625671L147.41918125,89.37578665457865L147.955251,40.75148293890179L148.49132075,55.94933097917658L149.02739050000002,64.36312770083963L149.56346025000002,68.68271977930765L150.09953000000002,71.9506328501895L150.63559975,73.45325231697232L151.17166949999998,74.46445766868337L151.70773924999997,77.50325022782543L152.243809,77.0731377727913L152.77987875,75.84469477987304L153.3159485,74.02057895441212L153.85201825,75.85693190442016L154.38808799999998,76.07496230479845L154.92415774999998,76.73018988616703L155.4602275,77.05989543077685L155.99629725,76.93992088809885L156.532367,75.56806128417121L157.06843675,74.01100881462347L157.60450649999999,74.48813448405296L158.14057624999998,74.41868396141248L158.676646,74.05415046275775L159.21271575,73.66609585668817L159.7487855,73.95434280920728L160.28485525,72.8913605611545L160.820925,74.46013511530444L161.35699474999998,74.76495521936943L161.8930645,73.84411451228189L162.42913425,73.78867364777014L162.965204,73.8012508123987L163.50127375,74.9725340085103L164.0373435,74.81321292047195L164.57341325,75.25346736509796L165.109483,74.15806327410309L165.64555275,74.11568387373697L166.1816225,74.41520455502369L166.71769225,76.01466081391511L167.253762,108.03734721006148L167.78983175,108.97002645072233L168.3259015,99.12005020972722L168.86197125,90.55628907068302L169.398041,87.36388006093341L169.93411075,82.75292191700483L170.4701805,79.77786140865143L171.00625025,79.55359835164134L171.54232,109.65912480596532L172.07838975,99.88705852846478L172.6144595,92.07021322691541L173.15052925,86.54454819538655L173.686599,85.09872206482119L174.22266875,81.87440738709466L174.7587385,79.492190061706L175.29480825000002,78.2324521368691L175.830878,77.15369592285593L176.36694775,76.71457672232505L176.9030175,76.73842051958512L177.43908725,75.29590378250461L177.975157,74.06252457475384L178.51122675000002,74.24451636047347L179.04729650000002,74.71540760455984L179.58336625,77.72808401305429L180.119436,76.23679879953087L180.65550575,76.11233641069903L181.1915755,119.83984481592043L181.72764525000002,104.68528557703085L182.26371500000002,92.34801839954517L182.79978475000001,75.3345010834522L183.3358545,76.55476471142242L183.87192425,78.18158323054028L184.40799399999997,75.64757874238201L184.94406375,76.44339917321255L185.4801335,76.80380896042215L186.01620325,75.2940687250297L186.55227299999999,75.6806201683775L187.08834274999998,75.17080948844077L187.62441249999998,74.74707908110035L188.16048225,73.38459659015366L188.696552,75.52350501671197L189.23262175,77.21814529504486L189.7686915,76.68991753783736L190.30476124999998,75.43813757197954L190.84083099999998,74.35662738974034L191.37690075,73.8754338313424L191.9129705,75.92696769058905L192.44904025,87.10788937051062L192.98511,86.04866486396396L193.52117975,82.65228424585092L194.05724949999998,79.9056784405111L194.59331925,76.58106911164813L195.129389,73.40089273636664L195.66545875,73.89198115761656L196.2015285,74.18539796346771L196.73759825,73.83480357144383L197.273668,74.76370779329751L197.80973775,75.41018125531727L198.3458075,75.08745330765936L198.88187725,74.57922302158232L199.417947,75.20506915081847L199.95401675,74.19588387447929L200.4900865,75.34714136417337L201.02615624999999,120.59840131336824L201.562226,105.16788805742563L202.09829575,92.67146953610035L202.6343655,85.0996941554171L203.17043525,79.91485195362549L203.706505,76.83642201441664L204.24257475,81.90203720903406L204.7786445,81.86076806384554L205.31471425,80.5618654138564L205.850784,81.25712489386834L206.38685375,80.48512315164395L206.9229235,79.59581005274737L207.45899325,81.13891423885215L207.99506300000002,95.8621264014075L208.53113275,94.25649485391331L209.0672025,-35.54187908695963L209.60327225,5.151199197057927L210.139342,32.511957706576005L210.67541175,49.056577000776194L211.21148150000002,57.97042391163663L211.74755125000001,66.5119042269777L212.283621,70.41076186178347L212.81969075,72.41142143971157L213.3557605,72.98006864792963L213.89183025,73.96085485504184L214.42790000000002,74.7269620720289L214.96396975000002,73.70837016221834L215.5000395,73.46408859099866L216.03610925,72.97768691409931L216.572179,74.0201057575229L217.10824875,74.85769703140605L217.64431850000003,74.01226960559636L218.18038825,74.321310274027L218.716458,75.14693419742417L219.25252774999998,74.4662470967119L219.78859749999998,75.43814653115615L220.32466724999998,74.74654174046007L220.860737,74.68476636337512L221.39680675,74.47172221524879L221.9328765,74.40870803045252L222.46894625,75.66591512341883L223.00501599999998,74.25411805726341L223.54108574999998,77.87836600670444L224.0771555,79.31145509471655L224.61322525,78.38281449994541L225.149295,78.23720970226732L225.68536475,77.17459142517095L226.2214345,75.80676447082189L226.75750424999998,77.00233259524332L227.293574,74.81342678879456L227.82964375,74.82805313026759L228.3657135,86.577381461943L228.90178325,82.29645606389482L229.437853,78.64381778791301L229.97392274999999,77.72939490012678L230.5099925,76.46533497711182L231.04606225,75.18384460876234L231.582132,74.65270703965334L232.11820175,74.89936020499562L232.6542715,76.30978271228726L233.19034125,76.77012938474212L233.726411,76.50977986088155L234.26248075,76.21379842386101L234.7985505,76.19680545128035L235.33462025,75.29217926731943L235.87069,75.11580406112962L236.40675975,78.72019488835926L236.9428295,77.54504847113547L237.47889925,77.69498771172692L238.014969,75.4750313432108L238.55103875,75.64952986132148L239.0871085,77.97624184058111L239.62317825,77.17584976720661L240.159248,75.58909772563935L240.69531775000002,75.32532778575397L241.2313875,75.67830830932782" style="fill: none;" fill="none"></path></g></g></g></g><g opacity="0.2"><g><g><g><path stroke="rgb(255, 112, 67)" stroke-width="2px" d="M35.3806035,-24.179004751592874L35.91667325,6.229133292026818L36.452743000000005,30.796771212033928L36.98881275,42.33796429747716L37.524882500000004,102.27497111022939L38.06095225,159.82655093410983L38.597021999999996,157.4060124729015L39.13309175,159.86934568092227L39.6691615,193.1138297093287L43.42164975,193.23567420367152L43.9577195,129.4916625796538L44.49378925,169.32858772661538L45.029859,155.51980052545667L45.565928750000005,157.52859047373758L46.10199849999999,163.9052137899399L46.638068249999996,164.11776171924546L47.174138,139.03436983471735L47.710207749999995,178.09878695916385L51.998765750000004,202.6381313084811L52.5348355,125.65961243642494L53.07090525,111.41466908773407L53.606975000000006,102.22843877695966L54.14304475,101.3659113760991L54.6791145,92.02004244287498L55.21518425,101.01295155423693L55.751253999999996,92.98589948035777L56.28732375,94.64504377867095L56.8233935,89.52873296753503L57.35946325,86.3083365815878L57.895533,88.30951330938376L58.43160275,86.70134153111837L58.9676725,84.7758663821686L59.50374225,88.7385713393055L60.039812,88.80433143267408L60.57588175,85.93551748350262L61.1119515,92.96162165167742L61.64802125,85.07855113327503L62.184091,87.29914726272226L62.720160750000005,86.47080414902419L63.256230499999994,96.63568459227216L63.79230025,277.0337883806974L64.32836999999999,113.11997819341603L64.86443975,92.78281296065077L65.4005095,87.40900222255848L65.93657925,95.14830958910287L66.472649,89.18470605972223L67.00871875,86.78440083942377L67.5447885,92.57676562962122L68.08085825,84.09047461819836L68.616928,88.68965098910965L69.15299775,83.8963014386315L69.68906750000001,80.6920380747132L70.22513725,83.62310117606074L70.761207,88.36853173633106L71.29727675000001,283.0566184385866L71.8333465,115.60210724777542L72.36941625,89.5248470314499L72.90548600000001,85.01003420932219L73.44155575,88.03499850427733L73.9776255,86.4213357293699L74.51369525000001,85.95154336413368L75.04976500000001,85.20161127040163L75.58583474999999,92.42741670219228L76.1219045,86.51802878055722L76.65797425,86.7885752331186L77.19404399999999,80.47135151999072L77.73011375,85.2607574428618L78.2661835,89.11881822084077L78.80225324999999,81.16579673208297L79.338323,85.70881864802912L79.87439275,85.41218738590368L80.4104625,87.26269446250052L80.94653225,91.4832578581944L81.482602,95.50834177343175L82.01867175,84.64606869944372L82.5547415,88.05163632712328L83.09081125,97.82623465463519L83.626881,84.3613672198914L84.16295075,83.96430738053284L84.6990205,84.11672838150524L85.23509025,83.18188465788961L85.77116,85.65992920400575L86.30722975,84.38001600435935L86.8432995,85.95035450669937L87.37936925,85.63420702686534L87.915439,83.36270431053825L88.45150875,87.42840305722319L88.9875785,85.89912031439133L89.52364825000001,81.74847492246889L90.059718,83.30646743911319L90.59578775,92.80845890256576L91.13185750000001,87.91542046258226L91.66792725,88.66311494942755L92.20399699999999,86.3366693000961L92.74006675,85.18664444128052L93.27613649999999,87.23480679287576L93.81220624999999,83.35237134687603L94.348276,81.85227227250114L94.88434575,84.68242878114805L95.42041549999999,91.17528403077274L95.95648525,95.23416178519372L96.492555,83.74654248931445L97.02862474999999,85.01332262607292L97.5646945,82.98017243265174L98.10076425,86.20933999034577L98.636834,94.21173099900597L99.17290375,268.22373254813255L99.7089735,106.26876561645884L100.24504325,95.56703877618537L100.781113,92.46642029184848L101.31718275,86.596670566611L101.8532525,90.68136424689554L102.38932225,92.01856306741945L102.925392,85.66066271049903L103.46146175,87.51613125798292L103.99753150000001,88.31131204862147L104.53360125,88.4654184661992L105.069671,81.75121114893817L105.60574075000001,88.86066514343955L106.1418105,85.9230746584665L106.67788025,88.5067297167331L107.21395000000001,218.62733661487698L107.75001975,106.02727560194442L108.2860895,90.00208984466269L108.82215925000001,87.78061804032885L109.358229,83.58079268636182L109.89429874999999,84.32765682737343L110.4303685,83.13471771787852L110.96643825,86.00888049529865L111.50250799999999,88.02470468843356L112.03857775,86.49933466703631L112.5746475,86.04417122343555L113.11071725,85.67378547132947L113.646787,82.58215862276964L114.18285675,83.68066083166748L114.7189265,86.57267501430586L115.25499625,85.60815106306225L115.791066,87.22181177755817L116.32713575,89.98065332343802L116.8632055,272.7512478071451L117.39927525,84.70180489087477L117.935345,91.50533104657195L118.47141475,90.4895873259008L119.0074845,84.38727895488962L119.54355425,87.11194239484146L120.079624,84.77360817116686L120.61569375,84.95829315578565L121.1517635,86.91984198924155L121.68783325,84.26461029594765L122.223903,82.30128538778052L122.75997275,84.79220544534735L123.2960425,89.51889656304382L123.83211225000001,82.7485780594591L124.368182,85.63873581133782L124.90425175,87.30847886639647L125.44032150000001,84.39823004200123L125.97639124999999,87.43185218607076L126.51246099999999,86.07330750242807L127.04853075,88.44272715437226L127.5846005,85.82695440167561L128.12067025,89.19704174336046L128.65673999999999,254.6849993611872L129.19280975,121.56045054660179L129.7288795,92.20827339568176L130.26494925,87.87196226326749L130.801019,87.7849984751735L131.33708875,99.76790051713586L131.8731585,87.40619388168678L132.40922825,85.54834555892273L132.945298,89.98334834167734L133.48136775,85.4522747520078L134.0174375,86.50756807138212L134.55350725,86.62588102041744L135.089577,96.7472836904414L135.62564675,91.09096169021912L136.1617165,95.24330795183312L136.69778625,100.91225924433209L137.233856,98.88202350297477L137.76992575,96.75510501248762L138.3059955,94.98864933233243L138.84206525,121.5819633030519L139.37813500000001,206.51722682744264L139.91420475,115.29640502403025L140.4502745,122.95843253652099L140.98634425,122.52183134010527L141.522414,96.20341026000213L142.05848375,90.7176975432504L142.59455350000002,77.55299291593954L143.13062325,78.75460635784083L143.666693,76.39985065452754L144.20276275,77.72883255399763L144.7388325,77.09906571923756L145.27490225,77.43476032295264L145.81097200000002,161.14665658084675L146.34704175000002,116.76510600269073L146.8831115,75.4598868083395L147.41918125,75.83278420206159L147.955251,-32.184972634613516L148.49132075,78.74610303958877L149.02739050000002,76.98382278333418L149.56346025000002,75.1621078970097L150.09953000000002,76.8525024565123L150.63559975,75.70718151714652L151.17166949999998,75.9812656962499L151.70773924999997,82.06143906653858L152.243809,76.42796909024008L152.77987875,74.00203029049561L153.3159485,71.28440521622076L153.85201825,78.6114613294322L154.38808799999998,76.4020079053659L154.92415774999998,77.71303125821986L155.4602275,77.55445374769158L155.99629725,76.75995907408185L156.532367,73.51027187827975L157.06843675,71.67543011030182L157.60450649999999,75.2038229881972L158.14057624999998,74.31450817745178L158.676646,73.50735021477566L159.21271575,73.08401394758374L159.7487855,74.38671323798597L160.28485525,71.29688718907535L160.820925,76.8132969465293L161.35699474999998,75.22218537546695L161.8930645,72.46285345165059L162.42913425,73.70551235100254L162.965204,73.82011655934156L163.50127375,76.7294588026777L164.0373435,74.57423128841445L164.57341325,75.91384903203696L165.109483,72.51495713761076L165.64555275,74.05211477318778L166.1816225,74.86448557695374L166.71769225,78.41384520225228L167.253762,156.07137680428102L167.78983175,110.36904531171356L168.3259015,84.34508584823459L168.86197125,77.71064736211673L169.398041,82.575266546309L169.93411075,75.83648470111191L170.4701805,75.31527064612135L171.00625025,79.21720376612619L171.54232,154.81741448745132L172.07838975,85.22895911221393L172.6144595,80.34494527459145L173.15052925,78.25605064809322L173.686599,82.92998286897317L174.22266875,77.03793537050485L174.7587385,75.91886407362297L175.29480825000002,76.34284524961375L175.830878,75.53556160183624L176.36694775,76.05589792152867L176.9030175,76.7741862154752L177.43908725,73.13212867688388L177.975157,72.21245576312765L178.51122675000002,74.51750403905288L179.04729650000002,75.42174447068945L179.58336625,82.24709862579591L180.119436,73.99987097924576L180.65550575,75.92564282745123L181.1915755,185.43110742375254L181.72764525000002,81.95344671869651L182.26371500000002,73.84211763331666L182.79978475000001,49.81422510931268L183.3358545,78.3851601533778L183.87192425,80.62181100921705L184.40799399999997,71.8465720101446L184.94406375,77.63712981945835L185.4801335,77.3444236412365L186.01620325,73.029458371941L186.55227299999999,76.26044733339921L187.08834274999998,74.40609346853569L187.62441249999998,74.11148347008974L188.16048225,71.3408728537336L188.696552,78.73186765654944L189.23262175,79.76010571254417L189.7686915,75.89757590202615L190.30476124999998,73.56046762319282L190.84083099999998,72.73436211638153L191.37690075,73.15364349374548L191.9129705,79.00426847945899L192.44904025,103.879271890393L192.98511,84.45982810414397L193.52117975,77.55771331868135L194.05724949999998,75.78576973250136L194.59331925,71.59415511835367L195.129389,68.63062817344442L195.66545875,74.62861378949135L196.2015285,74.62552317224443L196.73759825,73.30891198340804L197.273668,76.15706412607804L197.80973775,76.3798914483469L198.3458075,74.60336138617248L198.88187725,73.81687759246677L199.417947,76.1438383446727L199.95401675,72.6821059599705L200.4900865,77.07402759871445L201.02615624999999,188.47529123716058L201.562226,82.0221181735117L202.09829575,73.92684175411239L202.6343655,73.74203108439222L203.17043525,72.13758865093813L203.706505,72.21877710560337L204.24257475,89.50046000096016L204.7786445,81.79886434606277L205.31471425,78.61351143887266L205.850784,82.30001411388628L206.38685375,79.32712053830735L206.9229235,78.26184040440246L207.45899325,83.45357051800937L207.99506300000002,117.94694464524044L208.53113275,91.84804753267207L209.0672025,-230.2394399982691L209.60327225,66.19081662308425L210.139342,73.55309547085315L210.67541175,73.87350594207645L211.21148150000002,71.34119427792729L211.74755125000001,79.32412469998934L212.283621,76.2590483139921L212.81969075,75.41241080660373L213.3557605,73.8330394602567L213.89183025,75.4320341657102L214.42790000000002,75.87612289750949L214.96396975000002,72.18048229750246L215.5000395,73.09766623416915L216.03610925,72.24808439875022L216.572179,75.58373402265832L217.10824875,76.11408394223079L217.64431850000003,72.74412846688182L218.18038825,74.78487127667293L218.716458,76.38537008251996L219.25252774999998,73.44521644564345L219.78859749999998,76.89599568282254L220.32466724999998,73.70913455441594L220.860737,74.59210329774767L221.39680675,74.15215599305928L221.9328765,74.31418675325811L222.46894625,77.5517257628683L223.00501599999998,72.13642245803028L223.54108574999998,83.31473793086596L224.0771555,81.46108872673474L224.61322525,76.98985360778869L225.149295,78.01880250575022L225.68536475,75.58066400952637L226.2214345,73.75502403929829L226.75750424999998,78.79568478187547L227.293574,71.5300680791214L227.82964375,74.84999264247716L228.3657135,104.2013739594561L228.90178325,75.87506796682254L229.437853,73.16486037394031L229.97392274999999,76.35776056844742L230.5099925,74.56924509258941L231.04606225,73.26160905623809L231.582132,73.85600068598986L232.11820175,75.26933995300904L232.6542715,78.42541647322476L233.19034125,77.46064939342439L233.726411,76.11925557509065L234.26248075,75.76982626833022L234.7985505,76.17131599240936L235.33462025,73.93523999137804L235.87069,74.85124125184491L236.40675975,84.12678112920374L236.9428295,75.78232884529979L237.47889925,77.91989657261409L238.014969,72.14509679043665L238.55103875,75.91127763848752L239.0871085,81.46630980947054L239.62317825,75.97526165714487L240.159248,73.20896966328844L240.69531775000002,74.9296728759259L241.2313875,76.20777909468859" style="fill: none;" fill="none"></path></g></g></g></g></g><g><g><circle r="4" cx="241.2313875" cy="75.67830830932782" fill="rgb(255, 112, 67)" style="stroke: none;" stroke="none" stroke-width="1px"></circle></g></g></g><g transform="translate(61, 176)" clip-path="url(#clip_1)"><clipPath id="clip_1"><rect width="268" height="22"></rect></clipPath><g><g><line x1="0" y1="0" x2="0" y2="5" style="visibility: inherit;" fill="rgb(0, 0, 0)" stroke="rgb(204, 204, 204)" stroke-width="1px"></line><line x1="26.803487500000003" y1="0" x2="26.803487500000003" y2="5" style="visibility: inherit;" fill="rgb(0, 0, 0)" stroke="rgb(204, 204, 204)" stroke-width="1px"></line><line x1="53.606975000000006" y1="0" x2="53.606975000000006" y2="5" style="visibility: inherit;" fill="rgb(0, 0, 0)" stroke="rgb(204, 204, 204)" stroke-width="1px"></line><line x1="80.4104625" y1="0" x2="80.4104625" y2="5" style="visibility: inherit;" fill="rgb(0, 0, 0)" stroke="rgb(204, 204, 204)" stroke-width="1px"></line><line x1="107.21395000000001" y1="0" x2="107.21395000000001" y2="5" style="visibility: inherit;" fill="rgb(0, 0, 0)" stroke="rgb(204, 204, 204)" stroke-width="1px"></line><line x1="134.0174375" y1="0" x2="134.0174375" y2="5" style="visibility: inherit;" fill="rgb(0, 0, 0)" stroke="rgb(204, 204, 204)" stroke-width="1px"></line><line x1="160.820925" y1="0" x2="160.820925" y2="5" style="visibility: inherit;" fill="rgb(0, 0, 0)" stroke="rgb(204, 204, 204)" stroke-width="1px"></line><line x1="187.62441249999998" y1="0" x2="187.62441249999998" y2="5" style="visibility: inherit;" fill="rgb(0, 0, 0)" stroke="rgb(204, 204, 204)" stroke-width="1px"></line><line x1="214.42790000000002" y1="0" x2="214.42790000000002" y2="5" style="visibility: inherit;" fill="rgb(0, 0, 0)" stroke="rgb(204, 204, 204)" stroke-width="1px"></line><line x1="241.2313875" y1="0" x2="241.2313875" y2="5" style="visibility: inherit;" fill="rgb(0, 0, 0)" stroke="rgb(204, 204, 204)" stroke-width="1px"></line><line x1="268.034875" y1="0" x2="268.034875" y2="5" style="visibility: inherit;" fill="rgb(0, 0, 0)" stroke="rgb(204, 204, 204)" stroke-width="1px"></line></g><g transform="translate(0, 8)"><text x="0" y="0" dx="0em" dy="0.95em" style="text-anchor: middle; visibility: hidden; font-family: Roboto, sans-serif; font-size: 12px; font-weight: 200;" fill="rgb(33, 33, 33)" stroke="none" stroke-width="1px">-200k</text><text x="26.803487500000003" y="0" dx="0em" dy="0.95em" style="text-anchor: middle; visibility: inherit; font-family: Roboto, sans-serif; font-size: 12px; font-weight: 200;" fill="rgb(33, 33, 33)" stroke="none" stroke-width="1px">0</text><text x="53.606975000000006" y="0" dx="0em" dy="0.95em" style="text-anchor: middle; visibility: hidden; font-family: Roboto, sans-serif; font-size: 12px; font-weight: 200;" fill="rgb(33, 33, 33)" stroke="none" stroke-width="1px">200k</text><text x="80.4104625" y="0" dx="0em" dy="0.95em" style="text-anchor: middle; visibility: inherit; font-family: Roboto, sans-serif; font-size: 12px; font-weight: 200;" fill="rgb(33, 33, 33)" stroke="none" stroke-width="1px">400k</text><text x="107.21395000000001" y="0" dx="0em" dy="0.95em" style="text-anchor: middle; visibility: hidden; font-family: Roboto, sans-serif; font-size: 12px; font-weight: 200;" fill="rgb(33, 33, 33)" stroke="none" stroke-width="1px">600k</text><text x="134.0174375" y="0" dx="0em" dy="0.95em" style="text-anchor: middle; visibility: inherit; font-family: Roboto, sans-serif; font-size: 12px; font-weight: 200;" fill="rgb(33, 33, 33)" stroke="none" stroke-width="1px">800k</text><text x="160.820925" y="0" dx="0em" dy="0.95em" style="text-anchor: middle; visibility: hidden; font-family: Roboto, sans-serif; font-size: 12px; font-weight: 200;" fill="rgb(33, 33, 33)" stroke="none" stroke-width="1px">1M</text><text x="187.62441249999998" y="0" dx="0em" dy="0.95em" style="text-anchor: middle; visibility: inherit; font-family: Roboto, sans-serif; font-size: 12px; font-weight: 200;" fill="rgb(33, 33, 33)" stroke="none" stroke-width="1px">1.2M</text><text x="214.42790000000002" y="0" dx="0em" dy="0.95em" style="text-anchor: middle; visibility: hidden; font-family: Roboto, sans-serif; font-size: 12px; font-weight: 200;" fill="rgb(33, 33, 33)" stroke="none" stroke-width="1px">1.4M</text><text x="241.2313875" y="0" dx="0em" dy="0.95em" style="text-anchor: middle; visibility: inherit; font-family: Roboto, sans-serif; font-size: 12px; font-weight: 200;" fill="rgb(33, 33, 33)" stroke="none" stroke-width="1px">1.6M</text><text x="268.034875" y="0" dx="0em" dy="0.95em" style="text-anchor: middle; visibility: hidden; font-family: Roboto, sans-serif; font-size: 12px; font-weight: 200;" fill="rgb(33, 33, 33)" stroke="none" stroke-width="1px">1.8M</text></g><line x1="0" y1="0" x2="268.034875" y2="0" fill="rgb(0, 0, 0)" stroke="rgb(204, 204, 204)" stroke-width="1px"></line></g></g></g></g></svg>