<svg viewBox="0 0 329.9884338378906 199.98843383789062" xmlns="http://www.w3.org/2000/svg"><g><g><g><g><g><line x1="61.953125" y1="176.988" x2="56.953125" y2="176.988" style="visibility: inherit;" fill="rgb(0, 0, 0)" stroke="rgb(204, 204, 204)" stroke-width="1px"></line><line x1="61.953125" y1="154.86450000000008" x2="56.953125" y2="154.86450000000008" style="visibility: inherit;" fill="rgb(0, 0, 0)" stroke="rgb(204, 204, 204)" stroke-width="1px"></line><line x1="61.953125" y1="132.74100000000016" x2="56.953125" y2="132.74100000000016" style="visibility: inherit;" fill="rgb(0, 0, 0)" stroke="rgb(204, 204, 204)" stroke-width="1px"></line><line x1="61.953125" y1="110.61750000000004" x2="56.953125" y2="110.61750000000004" style="visibility: inherit;" fill="rgb(0, 0, 0)" stroke="rgb(204, 204, 204)" stroke-width="1px"></line><line x1="61.953125" y1="88.4940000000001" x2="56.953125" y2="88.4940000000001" style="visibility: inherit;" fill="rgb(0, 0, 0)" stroke="rgb(204, 204, 204)" stroke-width="1px"></line><line x1="61.953125" y1="66.37049999999998" x2="56.953125" y2="66.37049999999998" style="visibility: inherit;" fill="rgb(0, 0, 0)" stroke="rgb(204, 204, 204)" stroke-width="1px"></line><line x1="61.953125" y1="44.24700000000006" x2="56.953125" y2="44.24700000000006" style="visibility: inherit;" fill="rgb(0, 0, 0)" stroke="rgb(204, 204, 204)" stroke-width="1px"></line><line x1="61.953125" y1="22.12350000000002" x2="56.953125" y2="22.12350000000002" style="visibility: inherit;" fill="rgb(0, 0, 0)" stroke="rgb(204, 204, 204)" stroke-width="1px"></line><line x1="61.953125" y1="0" x2="56.953125" y2="0" style="visibility: inherit;" fill="rgb(0, 0, 0)" stroke="rgb(204, 204, 204)" stroke-width="1px"></line></g><g transform="translate(51.953125, 0)"><text x="0" y="176.988" dx="0em" dy="0.3em" style="text-anchor: end; visibility: hidden; font-family: Roboto, sans-serif; font-size: 12px; font-weight: 200;" fill="rgb(33, 33, 33)" stroke="none" stroke-width="1px">-2.3</text><text x="0" y="154.86450000000008" dx="0em" dy="0.3em" style="text-anchor: end; visibility: inherit; font-family: Roboto, sans-serif; font-size: 12px; font-weight: 200;" fill="rgb(33, 33, 33)" stroke="none" stroke-width="1px">-2.25</text><text x="0" y="132.74100000000016" dx="0em" dy="0.3em" style="text-anchor: end; visibility: hidden; font-family: Roboto, sans-serif; font-size: 12px; font-weight: 200;" fill="rgb(33, 33, 33)" stroke="none" stroke-width="1px">-2.2</text><text x="0" y="110.61750000000004" dx="0em" dy="0.3em" style="text-anchor: end; visibility: inherit; font-family: Roboto, sans-serif; font-size: 12px; font-weight: 200;" fill="rgb(33, 33, 33)" stroke="none" stroke-width="1px">-2.15</text><text x="0" y="88.4940000000001" dx="0em" dy="0.3em" style="text-anchor: end; visibility: hidden; font-family: Roboto, sans-serif; font-size: 12px; font-weight: 200;" fill="rgb(33, 33, 33)" stroke="none" stroke-width="1px">-2.1</text><text x="0" y="66.37049999999998" dx="0em" dy="0.3em" style="text-anchor: end; visibility: inherit; font-family: Roboto, sans-serif; font-size: 12px; font-weight: 200;" fill="rgb(33, 33, 33)" stroke="none" stroke-width="1px">-2.05</text><text x="0" y="44.24700000000006" dx="0em" dy="0.3em" style="text-anchor: end; visibility: hidden; font-family: Roboto, sans-serif; font-size: 12px; font-weight: 200;" fill="rgb(33, 33, 33)" stroke="none" stroke-width="1px">-2</text><text x="0" y="22.12350000000002" dx="0em" dy="0.3em" style="text-anchor: end; visibility: inherit; font-family: Roboto, sans-serif; font-size: 12px; font-weight: 200;" fill="rgb(33, 33, 33)" stroke="none" stroke-width="1px">-1.95</text><text x="0" y="0" dx="0em" dy="0.3em" style="text-anchor: end; visibility: hidden; font-family: Roboto, sans-serif; font-size: 12px; font-weight: 200;" fill="rgb(33, 33, 33)" stroke="none" stroke-width="1px">-1.9</text></g><line x1="61.953125" y1="0" x2="61.953125" y2="176.988" fill="rgb(0, 0, 0)" stroke="rgb(204, 204, 204)" stroke-width="1px"></line></g></g><g transform="translate(61, 0)" clip-path="url(#clip_0)"><clipPath id="clip_0"><rect width="268" height="176"></rect></clipPath><g><g><g><line x1="0" y1="0" x2="0" y2="176.988" fill="rgb(0, 0, 0)" stroke="rgb(66, 66, 66)" stroke-width="1px" opacity="0.25"></line><line x1="26.803487500000003" y1="0" x2="26.803487500000003" y2="176.988" fill="rgb(0, 0, 0)" stroke="rgb(66, 66, 66)" stroke-width="1px" opacity="0.25"></line><line x1="53.606975000000006" y1="0" x2="53.606975000000006" y2="176.988" fill="rgb(0, 0, 0)" stroke="rgb(66, 66, 66)" stroke-width="1px" opacity="0.25"></line><line x1="80.4104625" y1="0" x2="80.4104625" y2="176.988" fill="rgb(0, 0, 0)" stroke="rgb(66, 66, 66)" stroke-width="1px" opacity="0.25"></line><line x1="107.21395000000001" y1="0" x2="107.21395000000001" y2="176.988" fill="rgb(0, 0, 0)" stroke="rgb(66, 66, 66)" stroke-width="1px" opacity="0.25"></line><line x1="134.0174375" y1="0" x2="134.0174375" y2="176.988" fill="rgb(0, 0, 0)" stroke="rgb(66, 66, 66)" stroke-width="1px" opacity="0.25"></line><line x1="160.820925" y1="0" x2="160.820925" y2="176.988" fill="rgb(0, 0, 0)" stroke="rgb(66, 66, 66)" stroke-width="1px" opacity="0.25"></line><line x1="187.62441249999998" y1="0" x2="187.62441249999998" y2="176.988" fill="rgb(0, 0, 0)" stroke="rgb(66, 66, 66)" stroke-width="1px" opacity="0.25"></line><line x1="214.42790000000002" y1="0" x2="214.42790000000002" y2="176.988" fill="rgb(0, 0, 0)" stroke="rgb(66, 66, 66)" stroke-width="1px" opacity="0.25"></line><line x1="241.2313875" y1="0" x2="241.2313875" y2="176.988" fill="rgb(0, 0, 0)" stroke="rgb(66, 66, 66)" stroke-width="1px" opacity="0.25"></line><line x1="268.034875" y1="0" x2="268.034875" y2="176.988" fill="rgb(0, 0, 0)" stroke="rgb(66, 66, 66)" stroke-width="1px" opacity="0.25"></line></g><g><line x1="0" y1="176.988" x2="268.034875" y2="176.988" fill="rgb(0, 0, 0)" stroke="rgb(66, 66, 66)" stroke-width="1px" opacity="0.25"></line><line x1="0" y1="154.86450000000008" x2="268.034875" y2="154.86450000000008" fill="rgb(0, 0, 0)" stroke="rgb(66, 66, 66)" stroke-width="1px" opacity="0.25"></line><line x1="0" y1="132.74100000000016" x2="268.034875" y2="132.74100000000016" fill="rgb(0, 0, 0)" stroke="rgb(66, 66, 66)" stroke-width="1px" opacity="0.25"></line><line x1="0" y1="110.61750000000004" x2="268.034875" y2="110.61750000000004" fill="rgb(0, 0, 0)" stroke="rgb(66, 66, 66)" stroke-width="1px" opacity="0.25"></line><line x1="0" y1="88.4940000000001" x2="268.034875" y2="88.4940000000001" fill="rgb(0, 0, 0)" stroke="rgb(66, 66, 66)" stroke-width="1px" opacity="0.25"></line><line x1="0" y1="66.37049999999998" x2="268.034875" y2="66.37049999999998" fill="rgb(0, 0, 0)" stroke="rgb(66, 66, 66)" stroke-width="1px" opacity="0.25"></line><line x1="0" y1="44.24700000000006" x2="268.034875" y2="44.24700000000006" fill="rgb(0, 0, 0)" stroke="rgb(66, 66, 66)" stroke-width="1px" opacity="0.25"></line><line x1="0" y1="22.12350000000002" x2="268.034875" y2="22.12350000000002" fill="rgb(0, 0, 0)" stroke="rgb(66, 66, 66)" stroke-width="1px" opacity="0.25"></line><line x1="0" y1="0" x2="268.034875" y2="0" fill="rgb(0, 0, 0)" stroke="rgb(66, 66, 66)" stroke-width="1px" opacity="0.25"></line></g></g></g><g><g><line x1="0" y1="-840.6930000000002" x2="268.034875" y2="-840.6930000000002" fill="rgb(0, 0, 0)" stroke="rgb(153, 153, 153)" stroke-width="1.5px"></line></g></g><g><g><line x1="26.803487500000003" y1="0" x2="26.803487500000003" y2="176.988" fill="rgb(0, 0, 0)" stroke="rgb(153, 153, 153)" stroke-width="1.5px"></line></g></g><g><g><g><g><g><path stroke="rgb(255, 112, 67)" stroke-width="2px" d="M37.524882500000004,189.21049386377243L38.06095225,164.64708248202933L38.597021999999996,136.6968749155147L39.13309175,113.07452393799815L39.6691615,93.29965084741808L40.20523125,80.34643297647479L40.741301,69.89381578280116L41.27737075,62.11294490077154L41.8134405,56.74386866749131L42.34951025,53.00981292940148L42.88558,50.49615325876004L43.42164975,48.565563508943036L43.9577195,47.21576098664046L44.49378925,46.17687517755316L45.029859,45.378446323413336L45.565928750000005,44.829763599034685L46.10199849999999,44.35999500426484L46.638068249999996,44.204978717088046L47.174138,44.07781028962565L47.710207749999995,43.553712254455874L48.2462775,42.92859744499281L48.78234725,42.16744502672994L49.318417,51.29832234021828L49.85448675,47.313382009338L50.3905565,43.43336204804352L50.92662625,40.51925168058011L51.462696,37.144124538144005L51.998765750000004,34.2301847545729L52.5348355,29.643867449015364L53.07090525,26.040811297207267L53.606975000000006,24.34949779115103L54.14304475,22.415274298002714L54.6791145,21.295882498910974L55.21518425,20.652878238302087L55.751253999999996,19.799551500093912L56.28732375,20.678755849893683L56.8233935,20.85899527762885L57.35946325,20.60525551141833L57.895533,20.81957896679372L58.43160275,20.866880081282535L58.9676725,20.676679111639462L59.50374225,20.930539452075916L60.039812,19.857912339877995L60.57588175,19.736758847350977L61.1119515,19.892501442787186L61.64802125,20.077430589221258L62.184091,20.564513064207116L62.720160750000005,21.308167390144728L63.256230499999994,20.426075659153934L63.79230025,35.46996060469037L64.32836999999999,32.52449506560746L64.86443975,27.945888757275377L65.4005095,25.275502827672298L65.93657925,23.49979846774832L66.472649,21.672125134630633L67.00871875,21.30855027189471L67.5447885,21.481784639111897L68.08085825,20.66850522436605L68.616928,20.88430293539716L69.15299775,20.914554781601165L69.68906750000001,20.692962341407117L70.22513725,21.382283150541326L70.761207,19.954873896996737L71.29727675000001,40.9396077944283L71.8333465,35.04316761912375L72.36941625,29.754646038946344L72.90548600000001,26.534335491905704L73.44155575,24.790074516254755L73.9776255,24.05172648036364L74.51369525000001,22.723820700001056L75.04976500000001,22.028477169413204L75.58583474999999,21.156026262413757L76.1219045,20.163111562521017L76.65797425,20.86874633662159L77.19404399999999,19.94270206356198L77.73011375,19.513224111271796L78.2661835,20.400453614445226L78.80225324999999,20.748326136429146L79.338323,21.567369249247943L79.87439275,21.158686057605443L80.4104625,21.272743337367807L80.94653225,20.829262040075616L81.482602,20.278004398403734L82.01867175,20.49581377061498L82.5547415,19.689720943929558L83.09081125,20.34790112485997L83.626881,20.979577876797425L84.16295075,20.690222041935325L84.6990205,19.88037984371815L85.23509025,20.03152606802366L85.77116,20.236061922342685L86.30722975,19.03406477410269L86.8432995,18.948462224046416L87.37936925,19.278816813778967L87.915439,18.858038437743218L88.45150875,19.10676898149204L88.9875785,19.920803528043912L89.52364825000001,20.125405703957785L90.059718,20.615008606586436L90.59578775,20.862859764667615L91.13185750000001,20.317763645322515L91.66792725,19.955091513723982L92.20399699999999,18.941416439778116L92.74006675,19.69875587382714L93.27613649999999,20.322349317829644L93.81220624999999,21.15404992177528L94.348276,20.978842983498858L94.88434575,20.645790496310518L95.42041549999999,19.6577991891629L95.95648525,20.308704388947852L96.492555,20.637386373336074L97.02862474999999,20.68901512916985L97.5646945,21.939618848467582L98.10076425,22.4991230201631L98.636834,21.00179906014849L99.17290375,42.097591280533386L99.7089735,36.04139797358123L100.24504325,29.892980415084445L100.781113,27.21263350423486L101.31718275,25.645820837881047L101.8532525,23.66960141595944L102.38932225,22.63508352747407L102.925392,21.500579352610306L103.46146175,19.707536832757643L103.99753150000001,19.91513999459021L104.53360125,19.566670971661043L105.069671,19.40687591959792L105.60574075000001,19.680245727406582L106.1418105,20.640972365490555L106.67788025,18.79874766375545L107.21395000000001,54.358921376192185L107.75001975,44.93428060424538L108.2860895,34.450761907697945L108.82215925000001,29.482394446063793L109.358229,26.39887690353923L109.89429874999999,23.31359023390141L110.4303685,22.66835169759943L110.96643825,21.77933585080844L111.50250799999999,21.700664764650767L112.03857775,20.740525096469003L112.5746475,19.396768234665913L113.11071725,19.308310055599083L113.646787,21.175082406726776L114.18285675,21.16141180813749L114.7189265,21.12099186580439L115.25499625,20.788510252291374L115.791066,21.11663431795494L116.32713575,19.94100173640288L116.8632055,43.68672125515962L117.39927525,35.52048373166098L117.935345,29.126220913358747L118.47141475,25.71769079930082L119.0074845,23.157049202767L119.54355425,21.187636296467232L120.079624,20.755411312697156L120.61569375,20.75455543935161L121.1517635,19.866760813163978L121.68783325,19.285768211988938L122.223903,20.31678990506432L122.75997275,21.231395373054152L123.2960425,21.329703250520108L123.83211225000001,20.85873299710308L124.368182,19.31259706545093L124.90425175,19.08629672298567L125.44032150000001,20.660770147190924L125.97639124999999,20.49792467071205L126.51246099999999,20.053356174955283L127.04853075,20.419742278581644L127.5846005,21.6180221529042L128.12067025,20.979821748735677L128.65673999999999,39.652747463036896L129.19280975,35.63697567375265L129.7288795,29.664463106392436L130.26494925,24.804405040310982L130.801019,23.35379551651912L131.33708875,21.425714098279713L131.8731585,21.61244606885018L132.40922825,21.501937073473304L132.945298,21.562645330956137L133.48136775,21.31179156077543L134.0174375,21.619498991850822L134.55350725,21.22011382220018L135.089577,21.900340082203314L135.62564675,21.1010021739215L136.1617165,21.362256151784138L136.69778625,20.715889806526164L137.233856,21.392178583298456L137.76992575,20.714031667133824L138.3059955,20.69250969737801L138.84206525,19.302152418959352L139.37813500000001,33.0417210976769L139.91420475,28.15807362540301L140.4502745,22.375837832640027L140.98634425,17.696406464594883L141.522414,16.16350478726523L142.05848375,14.996066055571394L142.59455350000002,11.689691935035736L143.13062325,10.901188325484501L143.666693,11.576779086160679L144.20276275,10.484153065709997L144.7388325,9.87959390146062L145.27490225,11.176601951304283L145.81097200000002,25.17304609147499L146.34704175000002,24.3422523344504L146.8831115,19.19083549652982L147.41918125,15.205509664311991L147.955251,14.8078588813394L148.49132075,12.89783623115126L149.02739050000002,10.725016406201718L149.56346025000002,9.653789037408446L150.09953000000002,8.856125495446985L150.63559975,9.47273531084853L151.17166949999998,9.023484225831032L151.70773924999997,9.045410923625028L152.243809,9.642893049803448L152.77987875,8.099384494165758L153.3159485,8.624167731773996L153.85201825,8.00339854946858L154.38808799999998,7.772761921639038L154.92415774999998,6.896329337736896L155.4602275,7.843427308357333L155.99629725,9.647009925148806L156.532367,10.462916088451117L157.06843675,9.048014515894211L157.60450649999999,9.021349845610608L158.14057624999998,9.144264316298113L158.676646,9.534196824203553L159.21271575,10.289587468892801L159.7487855,10.521708383721329L160.28485525,10.434635004426328L160.820925,9.411707054558642L161.35699474999998,10.189361663498445L161.8930645,9.385775684546187L162.42913425,9.23221390754627L162.965204,8.824947946540412L163.50127375,8.167583005995684L164.0373435,8.802881885201431L164.57341325,8.001462814039403L165.109483,8.630714933220391L165.64555275,8.342963617696705L166.1816225,6.805506801446896L166.71769225,8.260572198105166L167.253762,16.941322239132088L167.78983175,16.87971832678997L168.3259015,15.875616624202069L168.86197125,14.163136435226079L169.398041,13.022686343881768L169.93411075,12.009277914746548L170.4701805,11.901818566837274L171.00625025,9.930450248359694L171.54232,24.03853308541724L172.07838975,21.264910798973787L172.6144595,16.71092359911615L173.15052925,14.61431690561299L173.686599,12.64125757405478L174.22266875,11.295004846556848L174.7587385,10.756766901960289L175.29480825000002,10.352341288942283L175.830878,10.530687659679739L176.36694775,9.31443262563879L176.9030175,8.27906618520461L177.43908725,8.0056780670455L177.975157,7.742017542074353L178.51122675000002,8.696519918459709L179.04729650000002,9.34407922583706L179.58336625,10.170368848120487L180.119436,11.609524937603101L180.65550575,10.982401530631336L181.1915755,27.212213402013766L181.72764525000002,21.87222939962199L182.26371500000002,19.118504513991137L182.79978475000001,16.168303964002344L183.3358545,14.376515357699118L183.87192425,13.785338900021483L184.40799399999997,12.174822437055028L184.94406375,10.673852588514752L185.4801335,10.372998774922088L186.01620325,9.655653358791007L186.55227299999999,10.044420886143342L187.08834274999998,10.00352601562994L187.62441249999998,9.44994135381615L188.16048225,9.469061376868815L188.696552,7.940777658640777L189.23262175,7.805278981983399L189.7686915,7.723515606486636L190.30476124999998,8.469411149647135L190.84083099999998,8.314414264384741L191.37690075,8.941406327071126L191.9129705,10.057930822171189L192.44904025,22.82895542924252L192.98511,19.702815156654452L193.52117975,15.554936885092255L194.05724949999998,11.674460965474658L194.59331925,10.881627028560741L195.129389,10.739622341308612L195.66545875,10.4565989265405L196.2015285,9.883294988534617L196.73759825,8.36445741828783L197.273668,8.660712934878525L197.80973775,9.266493821756333L198.3458075,9.701908626733015L198.88187725,9.342351899062207L199.417947,10.011704708811463L199.95401675,9.614480681274483L200.4900865,8.669827972611373L201.02615624999999,25.03503254940546L201.562226,20.950907292952753L202.09829575,16.93259415213506L202.6343655,13.85748520298157L203.17043525,13.534600420304217L203.706505,12.53711786031016L204.24257475,12.83610005693015L204.7786445,11.486219653870956L205.31471425,10.263518132845375L205.850784,9.602307662582204L206.38685375,8.38459212261186L206.9229235,8.59333637813176L207.45899325,9.77868277876048L207.99506300000002,11.539926427700964L208.53113275,12.528587390529418L209.0672025,9.63247412945473L209.60327225,14.478881773433981L210.139342,14.110702407337403L210.67541175,12.719771162782353L211.21148150000002,12.47327297818323L211.74755125000001,11.984631455538647L212.283621,10.958691686795971L212.81969075,10.697858818344482L213.3557605,9.947559712202688L213.89183025,9.084796856851142L214.42790000000002,10.324927950078777L214.96396975000002,9.771758340272044L215.5000395,11.294277031751093L216.03610925,10.45571716452335L216.572179,11.521790641025845L217.10824875,10.525595907900454L217.64431850000003,9.535465951093286L218.18038825,8.91193431222932L218.716458,9.637728260353223L219.25252774999998,10.159603452488726L219.78859749999998,8.198108119180821L220.32466724999998,8.456127639586398L220.860737,8.948474974426446L221.39680675,9.777340725107734L221.9328765,9.4187949091934L222.46894625,9.262574749204125L223.00501599999998,8.94445889609609L223.54108574999998,10.996519714984654L224.0771555,10.614324115081601L224.61322525,11.58003223731764L225.149295,9.372625616327865L225.68536475,8.104092970142267L226.2214345,9.29162024875259L226.75750424999998,10.521010455297082L227.293574,11.22906432276164L227.82964375,10.001347722132268L228.3657135,13.021705713033253L228.90178325,11.89458823313695L229.437853,10.267403223981825L229.97392274999999,9.992220251649853L230.5099925,10.561405522209562L231.04606225,11.567881693757842L231.582132,11.44515223812888L232.11820175,11.048199407814895L232.6542715,9.897196186208118L233.19034125,9.595146323861707L233.726411,9.335851535619511L234.26248075,9.944846227348668L234.7985505,9.492186491883327L235.33462025,9.52675263457097L235.87069,11.580660233143627L236.40675975,11.741237411572785L236.9428295,11.263342748495564L237.47889925,10.15272618275437L238.014969,11.084133163151536L238.55103875,9.664518143854949L239.0871085,10.229964115740303L239.62317825,10.135148819805107L240.159248,10.88834091675342L240.69531775000002,9.750560024142683L241.2313875,9.745557863259602" style="fill: none;" fill="none"></path></g></g></g></g><g opacity="0.2"><g><g><g><path stroke="rgb(255, 112, 67)" stroke-width="2px" d="M36.98881275,179.11250381183632L37.524882500000004,156.48666691732416L38.06095225,127.80331252527245L38.597021999999996,94.77248327922827L39.13309175,77.64146385383611L39.6691615,63.63757546377188L40.20523125,60.916698235988676L40.741301,54.214934567928374L41.27737075,50.44165848684317L41.8134405,48.69026256036764L42.34951025,47.40873276185995L42.88558,46.725665142059384L43.42164975,45.66967952442175L43.9577195,45.191057471752224L44.49378925,44.61854658794409L45.029859,44.180803099393884L45.565928750000005,44.00673953604702L46.10199849999999,43.65534212422375L46.638068249999996,43.972454288721124L47.174138,43.887057649612466L47.710207749999995,42.767565204620404L48.2462775,41.99092523288731L48.78234725,41.02571640086178L49.318417,64.99463829946524L49.85448675,41.335971515893974L50.3905565,37.613332107782405L50.92662625,36.148086130142254L51.462696,32.08143382501606L51.998765750000004,29.859275079488793L52.5348355,22.76439149093632L53.07090525,20.636227069616357L53.606975000000006,21.812527532100717L54.14304475,19.513939058303873L54.6791145,19.616794800281564L55.21518425,19.688371847391167L55.751253999999996,18.51956139278416L56.28732375,21.997562374591865L56.8233935,21.129354419231454L57.35946325,20.224645862102548L57.895533,21.141064149856607L58.43160275,20.93783175301556L58.9676725,20.391377657175102L59.50374225,21.311329962730447L60.039812,18.24897167158131L60.57588175,19.5550286085606L61.1119515,20.126115335941353L61.64802125,20.354824308872264L62.184091,21.295136776685755L62.720160750000005,22.423648879051246L63.256230499999994,19.102938062667885L63.79230025,58.03578802299506L64.32836999999999,28.106296756982843L64.86443975,21.077979294776956L65.4005095,21.269923933267634L65.93657925,20.836241927862208L66.472649,18.930615134954493L67.00871875,20.76318797779087L67.5447885,21.74163618993763L68.08085825,19.448586102247276L68.616928,21.20799950194363L69.15299775,20.959932550907173L69.68906750000001,20.360573681116144L70.22513725,22.416264364242593L70.761207,17.813760016679804L71.29727675000001,72.41670864057546L71.8333465,26.19850735616688L72.36941625,21.82186366868023L72.90548600000001,21.703869671344798L73.44155575,22.173683052778284L73.9776255,22.94420442652706L74.51369525000001,20.731962029457133L75.04976500000001,20.98546187353138L75.58583474999999,19.847349901914637L76.1219045,18.673739512682L76.65797425,21.927198497772256L77.19404399999999,18.553635653972666L77.73011375,18.869007182836572L78.2661835,21.731297869205513L78.80225324999999,21.270134919405024L79.338323,22.795933918476145L79.87439275,20.54566127014164L80.4104625,21.44382925701145L80.94653225,20.16404009413723L81.482602,19.451117935895958L82.01867175,20.822527828931847L82.5547415,18.48058170390133L83.09081125,21.335171396255532L83.626881,21.92709300470356L84.16295075,20.256188289642374L84.6990205,18.66561654639248L85.23509025,20.258245404481926L85.77116,20.54286570382122L86.30722975,17.231069051742594L86.8432995,18.82005839896206L87.37936925,19.774348698377647L87.915439,18.22687087368969L88.45150875,19.479864797115365L88.9875785,21.141855347871818L89.52364825000001,20.43230896782879L90.059718,21.349412960529367L90.59578775,21.234636501789133L91.13185750000001,19.500119466304817L91.66792725,19.41108331632618L92.20399699999999,17.42090382885937L92.74006675,20.834765024900477L93.27613649999999,21.25773948383335L93.81220624999999,22.40160082769398L94.348276,20.716032576084178L94.88434575,20.146211765527763L95.42041549999999,18.175812228441277L95.95648525,21.285062188625375L96.492555,21.130409349918406L97.02862474999999,20.76645826292042L97.5646945,23.81552442741398L98.10076425,23.338379277706185L98.636834,18.755813120126763L99.17290375,73.74127961111074L99.7089735,26.957108013153114L100.24504325,20.670354077339212L100.781113,23.192113137960472L101.31718275,23.295601838350336L101.8532525,20.705272283077278L102.38932225,21.083306694746057L102.925392,19.798823090314905L103.46146175,17.017973052978554L103.99753150000001,20.226544737339058L104.53360125,19.043967437267344L105.069671,19.167183341503183L105.60574075000001,20.09030043911938L106.1418105,22.082062322616615L106.67788025,16.035410611152688L107.21395000000001,107.69918194484717L107.75001975,30.797319446325343L108.2860895,18.72548386287693L108.82215925000001,22.029843253612558L109.358229,21.773600589752238L109.89429874999999,18.685660229444544L110.4303685,21.700493893146554L110.96643825,20.44581208062176L111.50250799999999,21.582658135414164L112.03857775,19.30031559419636L112.5746475,17.38113294196133L113.11071725,19.175622786998787L113.646787,23.975240933418313L114.18285675,21.140905910253565L114.7189265,21.06036195230488L115.25499625,20.28978783202175L115.791066,21.60882041645054L116.32713575,18.177552864074745L116.8632055,79.30530053329474L117.39927525,23.27112744641308L117.935345,19.534826685905497L118.47141475,20.60489562821392L119.0074845,19.316086807966272L119.54355425,18.23351693701748L120.079624,20.107073837041895L120.61569375,20.753271629333536L121.1517635,18.535068873882334L121.68783325,18.41427931022648L122.223903,21.863322444677394L122.75997275,22.60330357503895L123.2960425,21.477165066719095L123.83211225000001,20.15227761697773L124.368182,16.993393167972602L124.90425175,18.746846209287682L125.44032150000001,23.022480283498805L125.97639124999999,20.253656455993692L126.51246099999999,19.38650343132023L127.04853075,20.969321434021037L127.5846005,23.415441964387934L128.12067025,20.0225211424828L128.65673999999999,67.66213603448874L129.19280975,29.613317989826243L129.7288795,20.70569425535206L130.26494925,17.514317941188853L130.801019,21.177881230831186L131.33708875,18.5335919709206L131.8731585,21.892544024705927L132.40922825,21.336173580408136L132.945298,21.653707717180293L133.48136775,20.935510905504266L134.0174375,22.081060138464014L134.55350725,20.621036067724265L135.089577,22.92067947220806L135.62564675,19.90199531149868L136.1617165,21.754137118577997L136.69778625,19.746340288639107L137.233856,22.406611748456996L137.76992575,19.696811292886775L138.3059955,20.660226742744484L138.84206525,17.21661650133137L139.37813500000001,53.65107411575323L139.91420475,20.832602416992227L140.4502745,13.7024841434956L140.98634425,10.677259412527123L141.522414,13.864152271270791L142.05848375,13.24490795803074L142.59455350000002,6.730130754232446L143.13062325,9.718432911157647L143.666693,12.590165227174799L144.20276275,8.84521403503422L144.7388325,8.972755155086556L145.27490225,13.12211402606968L145.81097200000002,46.16771230173117L146.34704175000002,23.096061698913612L146.8831115,11.463710239648858L147.41918125,9.227520915985147L147.955251,14.21138270688061L148.49132075,10.032802255868951L149.02739050000002,7.465786668777505L149.56346025000002,8.046947984218637L150.09953000000002,7.659630182504693L150.63559975,10.397650033950844L151.17166949999998,8.349607598304788L151.70773924999997,9.078300970315972L152.243809,10.539116239070932L152.77987875,5.78412166070942L153.3159485,9.411342588186303L153.85201825,7.072244776010552L154.38808799999998,7.426806979894677L154.92415774999998,5.581680461883584L155.4602275,9.264074264287988L155.99629725,12.352383850336114L156.532367,11.68677533340458L157.06843675,6.925662157058755L157.60450649999999,8.981352840185204L158.14057624999998,9.32863602232937L158.676646,10.119095586061517L159.21271575,11.422673435926477L159.7487855,10.86988975596432L160.28485525,10.304024935483971L160.820925,7.877315129756966L161.35699474999998,11.355843576908152L161.8930645,8.180396716117897L162.42913425,9.001871242046395L162.965204,8.214049005031624L163.50127375,7.1815355951786435L164.0373435,9.75583020401005L164.57341325,6.799334207296411L165.109483,9.574593111991922L165.64555275,7.911336644411127L166.1816225,4.499321577072183L166.71769225,10.443170293092766L167.253762,29.96244730067257L167.78983175,16.787312458276787L168.3259015,14.369464070320168L168.86197125,11.594416151762047L169.398041,11.31201120686535L169.93411075,10.489165271043817L170.4701805,11.740629544973412L171.00625025,6.973397770643274L171.54232,45.20065734100348L172.07838975,17.104477369308512L172.6144595,9.879942799329797L173.15052925,11.469406865358392L173.686599,9.681668576717415L174.22266875,9.275625755310099L174.7587385,9.949409985065499L175.29480825000002,9.745702869415322L175.830878,10.79820721578602L176.36694775,7.490050074577371L176.9030175,6.726016524553338L177.43908725,7.595595889806787L177.975157,7.34652675461773L178.51122675000002,10.128273483037988L179.04729650000002,10.31541818690304L179.58336625,11.409803281545678L180.119436,13.768259071826973L180.65550575,10.041716420173683L181.1915755,51.55693120908743L181.72764525000002,13.86225339603428L182.26371500000002,14.987917185545006L182.79978475000001,11.743003139019052L183.3358545,11.688832448244135L183.87192425,12.89857421350483L184.40799399999997,9.759047742605249L184.94406375,8.422397815704384L185.4801335,9.921718054533043L186.01620325,8.579635234594384L186.55227299999999,10.627572177171746L187.08834274999998,9.942183709859886L187.62441249999998,8.619564361095467L188.16048225,9.497741411447564L188.696552,5.648352081298867L189.23262175,7.6020309669971855L189.7686915,7.60087054324154L190.30476124999998,9.588254464387933L190.84083099999998,8.081918936491052L191.37690075,9.881894421100656L191.9129705,11.732717564821282L192.44904025,41.985492339849515L192.98511,15.013604747772256L193.52117975,9.33311947774891L194.05724949999998,5.853747086048165L194.59331925,9.692376123189966L195.129389,10.526615310430566L195.66545875,10.032063804388086L196.2015285,9.023339081525842L196.73759825,6.086201062917748L197.273668,9.10509620976452L197.80973775,10.175165152072946L198.3458075,10.355030834198038L198.88187725,8.803016807556192L199.417947,11.015733923435251L199.95401675,9.018644639968912L200.4900865,7.252848909616509L201.02615624999999,49.58283941459661L201.562226,14.824719408273737L202.09829575,10.905124440908471L202.6343655,9.244821779251138L203.17043525,13.050273246288338L203.706505,11.040894020319024L204.24257475,13.284573351860086L204.7786445,9.461399049282113L205.31471425,8.429465851306954L205.850784,8.610491957187692L206.38685375,6.558018812656442L206.9229235,8.906452761411707L207.45899325,11.55670237970356L207.99506300000002,14.181791901111643L208.53113275,14.011578834772148L209.0672025,5.288304237842599L209.60327225,21.74849323940281L210.139342,13.558433358192483L210.67541175,10.633374295949976L211.21148150000002,12.103525701284449L211.74755125000001,11.251669171571772L212.283621,9.419782033681908L212.81969075,10.306609515667L213.3557605,8.82211105299L213.89183025,7.7906525738239685L214.42790000000002,12.185124589920083L214.96396975000002,8.942003925561945L215.5000395,13.578055068969766L216.03610925,9.197877363681833L216.572179,13.120900855779688L217.10824875,9.03130380821232L217.64431850000003,8.050271015882531L218.18038825,7.976636853933374L218.716458,10.726419182539026L219.25252774999998,10.942416240692179L219.78859749999998,5.255865119218866L220.32466724999998,8.843156920194666L220.860737,9.686995976686516L221.39680675,11.02063935112957L221.9328765,8.880976185321847L222.46894625,9.028244509220162L223.00501599999998,8.467285116434137L223.54108574999998,14.074610943317452L224.0771555,10.041030715227166L224.61322525,13.028594420671503L225.149295,6.061515684843102L225.68536475,6.201294000864068L226.2214345,11.072911166667977L226.75750424999998,12.36509576511387L227.293574,12.291145123958627L227.82964375,8.159772821188012L228.3657135,17.552242699384728L228.90178325,10.203912013292351L229.437853,7.826625710248987L229.97392274999999,9.579445793151894L230.5099925,11.415183428049128L231.04606225,13.077595951080362L231.582132,11.261058054685632L232.11820175,10.452770162344018L232.6542715,8.170691353797952L233.19034125,9.142071530342141L233.726411,8.946909353256265L234.26248075,10.858338264942208L234.7985505,8.813196888685265L235.33462025,9.578601848602334L235.87069,14.661521631002465L236.40675975,11.982103179216423L236.9428295,10.546500753879586L237.47889925,8.486801334142724L238.014969,12.48124363374714L238.55103875,7.535095614910165L239.0871085,11.078133073568383L239.62317825,9.992925875902214L240.159248,12.01812906217579L240.69531775000002,8.043888685226479L241.2313875,9.73805462193493" style="fill: none;" fill="none"></path></g></g></g></g></g></g><g transform="translate(61, 176)" clip-path="url(#clip_1)"><clipPath id="clip_1"><rect width="268" height="22"></rect></clipPath><g><g><line x1="0" y1="0" x2="0" y2="5" style="visibility: inherit;" fill="rgb(0, 0, 0)" stroke="rgb(204, 204, 204)" stroke-width="1px"></line><line x1="26.803487500000003" y1="0" x2="26.803487500000003" y2="5" style="visibility: inherit;" fill="rgb(0, 0, 0)" stroke="rgb(204, 204, 204)" stroke-width="1px"></line><line x1="53.606975000000006" y1="0" x2="53.606975000000006" y2="5" style="visibility: inherit;" fill="rgb(0, 0, 0)" stroke="rgb(204, 204, 204)" stroke-width="1px"></line><line x1="80.4104625" y1="0" x2="80.4104625" y2="5" style="visibility: inherit;" fill="rgb(0, 0, 0)" stroke="rgb(204, 204, 204)" stroke-width="1px"></line><line x1="107.21395000000001" y1="0" x2="107.21395000000001" y2="5" style="visibility: inherit;" fill="rgb(0, 0, 0)" stroke="rgb(204, 204, 204)" stroke-width="1px"></line><line x1="134.0174375" y1="0" x2="134.0174375" y2="5" style="visibility: inherit;" fill="rgb(0, 0, 0)" stroke="rgb(204, 204, 204)" stroke-width="1px"></line><line x1="160.820925" y1="0" x2="160.820925" y2="5" style="visibility: inherit;" fill="rgb(0, 0, 0)" stroke="rgb(204, 204, 204)" stroke-width="1px"></line><line x1="187.62441249999998" y1="0" x2="187.62441249999998" y2="5" style="visibility: inherit;" fill="rgb(0, 0, 0)" stroke="rgb(204, 204, 204)" stroke-width="1px"></line><line x1="214.42790000000002" y1="0" x2="214.42790000000002" y2="5" style="visibility: inherit;" fill="rgb(0, 0, 0)" stroke="rgb(204, 204, 204)" stroke-width="1px"></line><line x1="241.2313875" y1="0" x2="241.2313875" y2="5" style="visibility: inherit;" fill="rgb(0, 0, 0)" stroke="rgb(204, 204, 204)" stroke-width="1px"></line><line x1="268.034875" y1="0" x2="268.034875" y2="5" style="visibility: inherit;" fill="rgb(0, 0, 0)" stroke="rgb(204, 204, 204)" stroke-width="1px"></line></g><g transform="translate(0, 8)"><text x="0" y="0" dx="0em" dy="0.95em" style="text-anchor: middle; visibility: hidden; font-family: Roboto, sans-serif; font-size: 12px; font-weight: 200;" fill="rgb(33, 33, 33)" stroke="none" stroke-width="1px">-200k</text><text x="26.803487500000003" y="0" dx="0em" dy="0.95em" style="text-anchor: middle; visibility: inherit; font-family: Roboto, sans-serif; font-size: 12px; font-weight: 200;" fill="rgb(33, 33, 33)" stroke="none" stroke-width="1px">0</text><text x="53.606975000000006" y="0" dx="0em" dy="0.95em" style="text-anchor: middle; visibility: hidden; font-family: Roboto, sans-serif; font-size: 12px; font-weight: 200;" fill="rgb(33, 33, 33)" stroke="none" stroke-width="1px">200k</text><text x="80.4104625" y="0" dx="0em" dy="0.95em" style="text-anchor: middle; visibility: inherit; font-family: Roboto, sans-serif; font-size: 12px; font-weight: 200;" fill="rgb(33, 33, 33)" stroke="none" stroke-width="1px">400k</text><text x="107.21395000000001" y="0" dx="0em" dy="0.95em" style="text-anchor: middle; visibility: hidden; font-family: Roboto, sans-serif; font-size: 12px; font-weight: 200;" fill="rgb(33, 33, 33)" stroke="none" stroke-width="1px">600k</text><text x="134.0174375" y="0" dx="0em" dy="0.95em" style="text-anchor: middle; visibility: inherit; font-family: Roboto, sans-serif; font-size: 12px; font-weight: 200;" fill="rgb(33, 33, 33)" stroke="none" stroke-width="1px">800k</text><text x="160.820925" y="0" dx="0em" dy="0.95em" style="text-anchor: middle; visibility: hidden; font-family: Roboto, sans-serif; font-size: 12px; font-weight: 200;" fill="rgb(33, 33, 33)" stroke="none" stroke-width="1px">1M</text><text x="187.62441249999998" y="0" dx="0em" dy="0.95em" style="text-anchor: middle; visibility: inherit; font-family: Roboto, sans-serif; font-size: 12px; font-weight: 200;" fill="rgb(33, 33, 33)" stroke="none" stroke-width="1px">1.2M</text><text x="214.42790000000002" y="0" dx="0em" dy="0.95em" style="text-anchor: middle; visibility: hidden; font-family: Roboto, sans-serif; font-size: 12px; font-weight: 200;" fill="rgb(33, 33, 33)" stroke="none" stroke-width="1px">1.4M</text><text x="241.2313875" y="0" dx="0em" dy="0.95em" style="text-anchor: middle; visibility: inherit; font-family: Roboto, sans-serif; font-size: 12px; font-weight: 200;" fill="rgb(33, 33, 33)" stroke="none" stroke-width="1px">1.6M</text><text x="268.034875" y="0" dx="0em" dy="0.95em" style="text-anchor: middle; visibility: hidden; font-family: Roboto, sans-serif; font-size: 12px; font-weight: 200;" fill="rgb(33, 33, 33)" stroke="none" stroke-width="1px">1.8M</text></g><line x1="0" y1="0" x2="268.034875" y2="0" fill="rgb(0, 0, 0)" stroke="rgb(204, 204, 204)" stroke-width="1px"></line></g></g></g></g></svg>