<svg viewBox="0 0 329.9884338378906 199.98843383789062" xmlns="http://www.w3.org/2000/svg"><g><g><g><g><g><line x1="51.5625" y1="176.988" x2="46.5625" y2="176.988" style="visibility: inherit;" fill="rgb(0, 0, 0)" stroke="rgb(204, 204, 204)" stroke-width="1px"></line><line x1="51.5625" y1="154.8645" x2="46.5625" y2="154.8645" style="visibility: inherit;" fill="rgb(0, 0, 0)" stroke="rgb(204, 204, 204)" stroke-width="1px"></line><line x1="51.5625" y1="132.74099999999999" x2="46.5625" y2="132.74099999999999" style="visibility: inherit;" fill="rgb(0, 0, 0)" stroke="rgb(204, 204, 204)" stroke-width="1px"></line><line x1="51.5625" y1="110.6175" x2="46.5625" y2="110.6175" style="visibility: inherit;" fill="rgb(0, 0, 0)" stroke="rgb(204, 204, 204)" stroke-width="1px"></line><line x1="51.5625" y1="88.494" x2="46.5625" y2="88.494" style="visibility: inherit;" fill="rgb(0, 0, 0)" stroke="rgb(204, 204, 204)" stroke-width="1px"></line><line x1="51.5625" y1="66.37049999999999" x2="46.5625" y2="66.37049999999999" style="visibility: inherit;" fill="rgb(0, 0, 0)" stroke="rgb(204, 204, 204)" stroke-width="1px"></line><line x1="51.5625" y1="44.247" x2="46.5625" y2="44.247" style="visibility: inherit;" fill="rgb(0, 0, 0)" stroke="rgb(204, 204, 204)" stroke-width="1px"></line><line x1="51.5625" y1="22.1235" x2="46.5625" y2="22.1235" style="visibility: inherit;" fill="rgb(0, 0, 0)" stroke="rgb(204, 204, 204)" stroke-width="1px"></line><line x1="51.5625" y1="0" x2="46.5625" y2="0" style="visibility: inherit;" fill="rgb(0, 0, 0)" stroke="rgb(204, 204, 204)" stroke-width="1px"></line></g><g transform="translate(41.5625, 0)"><text x="0" y="176.988" dx="0em" dy="0.3em" style="text-anchor: end; visibility: hidden; font-family: Roboto, sans-serif; font-size: 12px; font-weight: 200;" fill="rgb(33, 33, 33)" stroke="none" stroke-width="1px">-0.5</text><text x="0" y="154.8645" dx="0em" dy="0.3em" style="text-anchor: end; visibility: inherit; font-family: Roboto, sans-serif; font-size: 12px; font-weight: 200;" fill="rgb(33, 33, 33)" stroke="none" stroke-width="1px">0</text><text x="0" y="132.74099999999999" dx="0em" dy="0.3em" style="text-anchor: end; visibility: hidden; font-family: Roboto, sans-serif; font-size: 12px; font-weight: 200;" fill="rgb(33, 33, 33)" stroke="none" stroke-width="1px">0.5</text><text x="0" y="110.6175" dx="0em" dy="0.3em" style="text-anchor: end; visibility: inherit; font-family: Roboto, sans-serif; font-size: 12px; font-weight: 200;" fill="rgb(33, 33, 33)" stroke="none" stroke-width="1px">1</text><text x="0" y="88.494" dx="0em" dy="0.3em" style="text-anchor: end; visibility: hidden; font-family: Roboto, sans-serif; font-size: 12px; font-weight: 200;" fill="rgb(33, 33, 33)" stroke="none" stroke-width="1px">1.5</text><text x="0" y="66.37049999999999" dx="0em" dy="0.3em" style="text-anchor: end; visibility: inherit; font-family: Roboto, sans-serif; font-size: 12px; font-weight: 200;" fill="rgb(33, 33, 33)" stroke="none" stroke-width="1px">2</text><text x="0" y="44.247" dx="0em" dy="0.3em" style="text-anchor: end; visibility: hidden; font-family: Roboto, sans-serif; font-size: 12px; font-weight: 200;" fill="rgb(33, 33, 33)" stroke="none" stroke-width="1px">2.5</text><text x="0" y="22.1235" dx="0em" dy="0.3em" style="text-anchor: end; visibility: inherit; font-family: Roboto, sans-serif; font-size: 12px; font-weight: 200;" fill="rgb(33, 33, 33)" stroke="none" stroke-width="1px">3</text><text x="0" y="0" dx="0em" dy="0.3em" style="text-anchor: end; visibility: hidden; font-family: Roboto, sans-serif; font-size: 12px; font-weight: 200;" fill="rgb(33, 33, 33)" stroke="none" stroke-width="1px">3.5</text></g><line x1="51.5625" y1="0" x2="51.5625" y2="176.988" fill="rgb(0, 0, 0)" stroke="rgb(204, 204, 204)" stroke-width="1px"></line></g></g><g transform="translate(51, 0)" clip-path="url(#clip_0)"><clipPath id="clip_0"><rect width="278" height="176"></rect></clipPath><g><g><g><line x1="0" y1="0" x2="0" y2="176.988" fill="rgb(0, 0, 0)" stroke="rgb(66, 66, 66)" stroke-width="1px" opacity="0.25"></line><line x1="27.842550000000003" y1="0" x2="27.842550000000003" y2="176.988" fill="rgb(0, 0, 0)" stroke="rgb(66, 66, 66)" stroke-width="1px" opacity="0.25"></line><line x1="55.685100000000006" y1="0" x2="55.685100000000006" y2="176.988" fill="rgb(0, 0, 0)" stroke="rgb(66, 66, 66)" stroke-width="1px" opacity="0.25"></line><line x1="83.52765" y1="0" x2="83.52765" y2="176.988" fill="rgb(0, 0, 0)" stroke="rgb(66, 66, 66)" stroke-width="1px" opacity="0.25"></line><line x1="111.37020000000001" y1="0" x2="111.37020000000001" y2="176.988" fill="rgb(0, 0, 0)" stroke="rgb(66, 66, 66)" stroke-width="1px" opacity="0.25"></line><line x1="139.21275" y1="0" x2="139.21275" y2="176.988" fill="rgb(0, 0, 0)" stroke="rgb(66, 66, 66)" stroke-width="1px" opacity="0.25"></line><line x1="167.0553" y1="0" x2="167.0553" y2="176.988" fill="rgb(0, 0, 0)" stroke="rgb(66, 66, 66)" stroke-width="1px" opacity="0.25"></line><line x1="194.89784999999998" y1="0" x2="194.89784999999998" y2="176.988" fill="rgb(0, 0, 0)" stroke="rgb(66, 66, 66)" stroke-width="1px" opacity="0.25"></line><line x1="222.74040000000002" y1="0" x2="222.74040000000002" y2="176.988" fill="rgb(0, 0, 0)" stroke="rgb(66, 66, 66)" stroke-width="1px" opacity="0.25"></line><line x1="250.58295" y1="0" x2="250.58295" y2="176.988" fill="rgb(0, 0, 0)" stroke="rgb(66, 66, 66)" stroke-width="1px" opacity="0.25"></line><line x1="278.4255" y1="0" x2="278.4255" y2="176.988" fill="rgb(0, 0, 0)" stroke="rgb(66, 66, 66)" stroke-width="1px" opacity="0.25"></line></g><g><line x1="0" y1="176.988" x2="278.4255" y2="176.988" fill="rgb(0, 0, 0)" stroke="rgb(66, 66, 66)" stroke-width="1px" opacity="0.25"></line><line x1="0" y1="154.8645" x2="278.4255" y2="154.8645" fill="rgb(0, 0, 0)" stroke="rgb(66, 66, 66)" stroke-width="1px" opacity="0.25"></line><line x1="0" y1="132.74099999999999" x2="278.4255" y2="132.74099999999999" fill="rgb(0, 0, 0)" stroke="rgb(66, 66, 66)" stroke-width="1px" opacity="0.25"></line><line x1="0" y1="110.6175" x2="278.4255" y2="110.6175" fill="rgb(0, 0, 0)" stroke="rgb(66, 66, 66)" stroke-width="1px" opacity="0.25"></line><line x1="0" y1="88.494" x2="278.4255" y2="88.494" fill="rgb(0, 0, 0)" stroke="rgb(66, 66, 66)" stroke-width="1px" opacity="0.25"></line><line x1="0" y1="66.37049999999999" x2="278.4255" y2="66.37049999999999" fill="rgb(0, 0, 0)" stroke="rgb(66, 66, 66)" stroke-width="1px" opacity="0.25"></line><line x1="0" y1="44.247" x2="278.4255" y2="44.247" fill="rgb(0, 0, 0)" stroke="rgb(66, 66, 66)" stroke-width="1px" opacity="0.25"></line><line x1="0" y1="22.1235" x2="278.4255" y2="22.1235" fill="rgb(0, 0, 0)" stroke="rgb(66, 66, 66)" stroke-width="1px" opacity="0.25"></line><line x1="0" y1="0" x2="278.4255" y2="0" fill="rgb(0, 0, 0)" stroke="rgb(66, 66, 66)" stroke-width="1px" opacity="0.25"></line></g></g></g><g><g><line x1="0" y1="154.8645" x2="278.4255" y2="154.8645" fill="rgb(0, 0, 0)" stroke="rgb(153, 153, 153)" stroke-width="1.5px"></line></g></g><g><g><line x1="27.842550000000003" y1="0" x2="27.842550000000003" y2="176.988" fill="rgb(0, 0, 0)" stroke="rgb(153, 153, 153)" stroke-width="1.5px"></line></g></g><g><g><g><g><g><path stroke="rgb(255, 112, 67)" stroke-width="2px" d="M38.97957,-1.3075835236007491L39.536421,8.512423433678535L40.093272,19.599520414928012L40.650123,34.37450887907316L41.206973999999995,48.796904427686464L41.763825,60.067345860500794L42.320676,72.0920555161082L42.877527,83.82209218561916L43.434378,93.33637847381435L43.991229,99.73700872125477L44.54808,105.06965266252922L45.104931,109.39637173025785L45.661782,112.94284901122465L46.218633000000004,114.97268466178264L46.775484000000006,116.20273562715282L47.332335,116.13112163669636L47.889185999999995,115.33431031584686L48.446037,114.30373733566951L49.002888,113.11664771334665L49.559739,111.83665345426736L50.116589999999995,110.040323124799L50.673441,104.22607391810962L51.230292,102.25792426162745L51.787143,101.28083652781517L52.343994,100.25600489397816L52.900845000000004,100.66704710556948L53.457696,102.99443248859787L54.014547,108.44732328330265L54.571398,115.18869736125576L55.128249000000004,119.47409136657829L55.685100000000006,122.34385733018402L56.241951,124.7343720650913L56.798801999999995,126.86868543800985L57.355653,128.96715911348994L57.912504,130.82552201383507L58.469355,132.3332224057636L59.026205999999995,133.77039907989086L59.583057,134.907518220575L60.139908,135.22128711953843L60.696759,135.64477162883932L61.25361,135.72840927134902L61.810461000000004,135.67785019597383L62.367312,135.74229816310984L62.924163,135.77463261208166L63.481014,135.63930712507505L64.037865,135.91826833418807L64.594716,137.2502706042278L65.151567,138.1568966130345L65.708418,136.30755149629886L66.265269,135.47479621601804L66.82212,136.05175467027843L67.37897099999999,136.79017670818342L67.935822,137.58351755566702L68.492673,137.519550517388L69.049524,138.10989474227895L69.606375,139.13635322014613L70.163226,139.81650998081042L70.720077,140.817599037631L71.276928,141.58418990398863L71.833779,142.29610723386656L72.39063,142.41759463004144L72.947481,142.28345850282832L73.504332,138.82406812144472L74.061183,136.2237577858755L74.61803400000001,137.83869247174198L75.174885,139.31201617215834L75.73173600000001,140.55828624947523L76.288587,141.35181435385738L76.845438,141.7211643189871L77.40228900000001,141.36155074171327L77.95914,140.21900752557576L78.51599099999999,140.19072767726934L79.072842,140.5248544150016L79.62969299999999,140.20137750588782L80.186544,138.99005967649776L80.74339499999999,137.80056794012165L81.300246,137.00122202089176L81.857097,136.32909753096547L82.41394799999999,135.51313395227461L82.970799,134.80582918804566L83.52765,134.6418670463543L84.084501,134.36570071027165L84.641352,134.51449157036237L85.19820299999999,134.85309262469346L85.755054,135.56182034956774L86.311905,135.76379725602484L86.868756,137.08933077709207L87.425607,137.37381019895273L87.982458,136.83484070430396L88.539309,137.50862960202812L89.09616,137.57604194624017L89.653011,136.94536143848177L90.209862,136.92078796300217L90.76671300000001,136.62833864902808L91.323564,136.35106508456084L91.880415,136.89167171265134L92.43726600000001,136.91734788945584L92.994117,136.78636139157575L93.55096800000001,136.9777631782124L94.107819,136.95162014839826L94.66467,137.30559311998948L95.22152100000001,137.78161779571215L95.77837199999999,138.42211708635472L96.335223,138.5893224746727L96.892074,138.27438648430962L97.44892499999999,137.34022870987926L98.005776,136.66742295949624L98.56262699999999,136.14108113589862L99.119478,135.81752810330974L99.676329,135.50145895551316L100.23317999999999,135.67097916851446L100.790031,135.55249403163197L101.346882,135.19229181022885L101.903733,135.42093822191623L102.460584,131.69282152697124L103.01743499999999,128.7106915064852L103.574286,130.57068616528517L104.131137,132.1493032971096L104.687988,132.82095416390135L105.244839,133.35968683518908L105.80169000000001,134.58606684062445L106.358541,135.07724481334427L106.915392,135.81238515877806L107.472243,135.85267166000654L108.029094,135.4582665803793L108.58594500000001,135.3239375676729L109.142796,135.15385460959777L109.699647,135.45798057742658L110.25649800000001,136.0604177350148L110.813349,136.48274478301673L111.37020000000001,132.7353870619134L111.927051,134.51902880996442L112.483902,135.86399640201316L113.04075300000001,136.48059994575254L113.59760399999999,136.71951858206313L114.154455,137.04907663433386L114.711306,137.88315673283716L115.26815699999999,138.08544814949025L115.825008,138.28569330989592L116.38185899999999,138.64787368111178L116.93871,139.0114738893888L117.495561,138.82067694692503L118.05241199999999,138.59646858364755L118.609263,138.70747973799953L119.166114,138.511634444727L119.722965,138.22648981569617L120.279816,138.80341957568174L120.836667,138.60679291222718L121.393518,136.4759891197695L121.950369,137.10696356306156L122.50722,137.514162696455L123.064071,137.5709139179552L123.62092200000001,137.48492936264063L124.177773,137.215465377072L124.734624,137.21943114726514L125.291475,137.15176901388628L125.848326,137.23502481622972L126.40517700000001,136.9880232212393L126.962028,136.82329466517263L127.518879,136.74797562880212L128.07573,137.52324810931023L128.63258100000002,137.6322759646114L129.189432,136.87757901244976L129.746283,136.96064980616342L130.303134,136.7413114211212L130.859985,136.08709309045375L131.416836,135.84026595374286L131.97368699999998,135.99598865462744L132.530538,135.74533236820344L133.087389,133.11024083315635L133.64424,129.84733523625914L134.201091,131.3085948063301L134.75794199999999,132.70062775015634L135.314793,133.50544652391554L135.871644,134.0500543981497L136.428495,134.17069357844025L136.985346,134.82019854499L137.542197,135.33170171217378L138.099048,136.11232129239L138.655899,136.43791239176366L139.21275,136.16162389267788L139.769601,135.9573885478455L140.326452,134.97802103276717L140.883303,133.683670281146L141.440154,132.56164598520638L141.997005,131.20635647761847L142.553856,130.33234175555722L143.110707,129.18948402681838L143.667558,127.72637197760874L144.224409,123.28643001024803L144.78126,120.79464745176364L145.338111,121.0335453332694L145.894962,122.13951991825292L146.45181300000002,124.71243321393126L147.008664,128.34475511890764L147.565515,132.50496893177103L148.122366,135.6362583269338L148.679217,137.8191094049609L149.23606800000002,139.09182257765508L149.792919,139.71643698999867L150.34977,140.49394863562338L150.906621,140.57051631852718L151.46347200000002,139.86555251810987L152.02032300000002,142.09241797156955L152.577174,143.15666208940044L153.134025,144.43413656129417L153.690876,144.81001311390386L154.24772700000003,145.83248353186718L154.80457800000002,146.75064849005622L155.36142900000002,147.4764444235592L155.91828,147.92008846584136L156.475131,148.2339661977063L157.03198199999997,148.83926566321375L157.588833,149.0055015193684L158.145684,149.48629837061844L158.70253499999998,149.88624085335064L159.25938599999998,150.12724070252852L159.816237,150.41132222880051L160.373088,150.4919759719558L160.929939,150.4276211820178L161.48678999999998,150.46029630415634L162.04364099999998,150.57576833548245L162.600492,150.83891497982202L163.157343,151.22772017301713L163.714194,151.45977403095122L164.271045,151.735102492103L164.82789599999998,151.92984369388017L165.384747,152.12576364564623L165.941598,152.12461580480772L166.498449,152.10497184198877L167.0553,151.90149717396366L167.61215099999998,151.93855130460184L168.169002,151.9172630130936L168.725853,151.92160562925275L169.282704,151.88352951126834L169.839555,151.95116049830938L170.39640599999998,151.79963225645022L170.953257,151.46221862462576L171.510108,151.48168526923905L172.066959,151.72766048252433L172.62381,151.82660592131228L173.180661,150.11067345180757L173.737512,146.50607985486175L174.294363,146.51573191102497L174.851214,147.24324922701211L175.408065,148.10121075562532L175.964916,148.64094799217818L176.521767,149.45837420497978L177.078618,150.10523448377336L177.635469,149.03450876201083L178.19232,147.24961688903505L178.749171,147.71866852712952L179.306022,148.1980401107688L179.862873,148.97174848449941L180.419724,149.28207639600168L180.976575,149.66359013106722L181.53342600000002,149.7474493586409L182.09027700000001,149.9268396207236L182.647128,149.99079674647408L183.203979,149.81310882180128L183.76083,149.2645456467342L184.31768100000002,148.4946012618942L184.87453200000002,147.54929862054604L185.431383,147.14078388570795L185.988234,146.8904774013105L186.545085,147.2973013968374L187.10193600000002,148.24117180177305L187.65878700000002,148.85401081777653L188.215638,148.87298816378737L188.772489,149.59804559855652L189.32934,149.94020106067953L189.88619100000003,150.33750728320598L190.44304200000002,150.6041296650828L190.99989300000001,150.68780167188413L191.55674399999998,150.7440703318159L192.11359499999998,151.12399991191566L192.670446,151.441141368384L193.227297,151.62723974983385L193.784148,151.71910761968488L194.34099899999998,151.84604485797104L194.89784999999998,151.72132268421183L195.454701,151.75470759834843L196.011552,151.86708150891363L196.568403,152.18595999092548L197.12525399999998,152.43046567452961L197.68210499999998,152.40335375972248L198.238956,152.34027267700827L198.795807,152.50707359173234L199.352658,149.38327791739903L199.90950899999999,147.90258934998155L200.46635999999998,148.2178186292925L201.023211,148.78229789796939L201.580062,149.56734970943316L202.136913,149.98165862380375L202.693764,150.2484675044442L203.25061499999998,150.61828294336942L203.807466,151.00270247660367L204.364317,151.03089572322838L204.921168,150.84218181250975L205.478019,151.0387128955542L206.03486999999998,151.30206086135917L206.591721,151.24303294849702L207.148572,151.08794670978077L207.705423,150.69239913045396L208.262274,149.39359418286102L208.81912499999999,148.62616995388996L209.375976,149.22405563943823L209.932827,150.03741404563033L210.489678,150.71647110276726L211.046529,151.24178685240034L211.60338000000002,149.85628495984128L212.160231,146.06844721276076L212.717082,144.56802661757771L213.273933,143.84603961274092L213.830784,143.34030721101203L214.38763500000002,143.3167129255595L214.944486,143.72145218745246L215.501337,144.1475211172186L216.058188,143.92271961204304L216.615039,144.8534998871034L217.17189000000002,145.7311863857535L217.728741,147.22837961522504L218.285592,148.41796521223344L218.842443,148.83074286745645L219.399294,148.8845522327641L219.95614500000002,149.36433193297202L220.51299600000002,149.8564742895902L221.069847,150.1771307865823L221.626698,150.57429095083742L222.183549,150.48217629678706L222.74040000000002,150.21472547116673L223.29725100000002,150.17894896978913L223.854102,150.12447943055497L224.410953,150.1083192402355L224.967804,150.0957709890653L225.52465500000002,149.90789807703788L226.08150600000002,150.0411431555879L226.63835699999998,149.9878354461987L227.19520799999998,150.33537466249757L227.75205899999997,150.31904987006124L228.30891,149.8812962519034L228.865761,149.67055339598977L229.422612,149.81814386219872L229.97946299999998,149.93103433794138L230.53631399999998,149.72047421591196L231.093165,149.75233897703419L231.650016,149.7696872644158L232.206867,149.4786964737315L232.76371799999998,149.48871645193333L233.32056899999998,149.49563620671054L233.87742,149.7375884251679L234.434271,149.7834342079422L234.991122,149.69103575026756L235.54797299999998,149.4991107983158L236.10482399999998,149.25659668263592L236.661675,148.7839230867493L237.218526,148.33762962853717L237.775377,148.70625842433455L238.332228,148.9853330671059L238.889079,149.38533916883569L239.44593,149.6353566275531L240.002781,149.698136994141L240.559632,149.52059961768845L241.116483,149.51538574607585L241.673334,149.51177347365567L242.230185,149.35147371449202L242.787036,149.22671077576356L243.343887,148.77054884319352L243.900738,148.03726928375272L244.457589,145.89901452465122L245.01444,144.40428011406223L245.571291,144.16103126918532L246.128142,144.19584143440875L246.684993,144.4230616903362L247.24184400000001,144.08290275121075L247.798695,143.5862049553534L248.355546,143.4353295924509L248.912397,143.62015763542917L249.469248,143.6780494688503L250.02609900000002,143.42134677999925L250.58295,143.47717461626357" style="fill: none;" fill="none"></path></g></g></g></g><g opacity="0.2"><g><g><g><path stroke="rgb(255, 112, 67)" stroke-width="2px" d="M37.865868000000006,-5.237762508630753L38.422719,1.6717908568382263L38.97957,9.98365303516388L39.536421,23.24189531707764L40.093272,36.22980106115341L40.650123,56.53669986891747L41.206973999999995,70.43032690358162L41.763825,76.97292790424824L42.320676,90.12906871962548L42.877527,101.4171171759367L43.434378,107.60779329943657L43.991229,109.33794819653035L44.54808,113.0686156271696L45.104931,115.88644889706373L45.661782,118.26256422704458L46.218633000000004,118.017437895298L46.775484000000006,118.04781198710204L47.332335,116.02370065408945L47.889185999999995,114.13909335511923L48.446037,112.75787788134814L49.002888,111.33601329088211L49.559739,109.91666207277775L50.116589999999995,107.34582763659954L50.673441,95.50470011973381L51.230292,99.30569977927208L51.787143,99.81520492780209L52.343994,98.71875744366646L52.900845000000004,101.28361042284965L53.457696,106.48551056277752L54.014547,116.6266594748497L54.571398,125.30075847780705L55.128249000000004,125.90218237441778L55.685100000000006,126.64850627553463L56.241951,128.32014416742325L56.798801999999995,130.07015549737216L57.355653,132.11486962670088L57.912504,133.61306636434793L58.469355,134.594772993654L59.026205999999995,135.92616409108044L59.583057,136.61319693160058L60.139908,135.69194046798347L60.696759,136.27999839279056L61.25361,135.85386573511363L61.810461000000004,135.60201158291102L62.367312,135.83897011381387L62.924163,135.8231342855394L63.481014,135.43631889456512L64.037865,136.33671014785767L64.594716,139.24827400928734L65.151567,139.51683562624456L65.708418,133.53353382119536L66.265269,134.22566329559683L66.82212,136.9171923516691L67.37897099999999,137.89780976504088L67.935822,138.77352882689237L68.492673,137.42359995996952L69.049524,138.99541107961537L69.606375,140.67604093694686L70.163226,140.83674512180687L70.720077,142.31923262286188L71.276928,142.73407620352506L71.833779,143.36398322868348L72.39063,142.5998257243037L72.947481,142.08225431200862L73.504332,133.63498254936934L74.061183,132.32329228252172L74.61803400000001,140.26109450054167L75.174885,141.52200172278285L75.73173600000001,142.4276913654506L76.288587,142.54210651043059L76.845438,142.27518926668168L77.40228900000001,140.82213037580252L77.95914,138.50519270136954L78.51599099999999,140.1483079048097L79.072842,141.0260445216L79.62969299999999,139.71616214221717L80.186544,137.17308293241263L80.74339499999999,136.01633033555746L81.300246,135.80220314204692L81.857097,135.32091079607605L82.41394799999999,134.2891885842383L82.970799,133.74487204170228L83.52765,134.39592383381725L84.084501,133.95145120614768L84.641352,134.73767786049842L85.19820299999999,135.3609942061901L85.755054,136.62491193687916L86.311905,136.0667626157105L86.868756,139.07763105869293L87.425607,137.80052933174372L87.982458,136.0263864623308L88.539309,138.51931294861436L89.09616,137.67716046255828L89.653011,135.99934067684413L90.209862,136.8839277497828L90.76671300000001,136.18966467806698L91.323564,135.93515473785996L91.880415,137.70258165478705L92.43726600000001,136.9558621546626L92.994117,136.5898816447556L93.55096800000001,137.2648658581674L94.107819,136.91240560367703L94.66467,137.83655257737635L95.22152100000001,138.49565480929613L95.77837199999999,139.3828660223186L96.335223,138.84013055714965L96.892074,137.801982498765L97.44892499999999,135.93899204823376L98.005776,135.65821433392168L98.56262699999999,135.3515684005022L99.119478,135.33219855442644L99.676329,135.0273552338183L100.23317999999999,135.92525948801637L100.790031,135.37476632630825L101.346882,134.65198847812414L101.903733,135.76390783944726L102.460584,126.10064648455382L103.01743499999999,124.23749647575617L103.574286,133.36067815348505L104.131137,134.51722899484633L104.687988,133.8284304640889L105.244839,134.16778584212065L105.80169000000001,136.42563684877754L106.358541,135.81401177242398L106.915392,136.91509567692876L107.472243,135.91310141184925L108.029094,134.86665896093845L108.58594500000001,135.12244404861332L109.142796,134.8987301724851L109.699647,135.9141695291698L110.25649800000001,136.96407347139717L110.813349,137.11623535501957L111.37020000000001,127.11435048025847L111.927051,137.19449143204093L112.483902,137.88144779008627L113.04075300000001,137.4055052613616L113.59760399999999,137.07789653652907L114.154455,137.54341371273995L114.711306,139.1342768805921L115.26815699999999,138.38888527446986L115.825008,138.58606105050444L116.38185899999999,139.19114423793553L116.93871,139.5568742018044L117.495561,138.53448153322935L118.05241199999999,138.26015603873134L118.609263,138.87399646952747L119.166114,138.2178665048182L119.722965,137.79877287214995L120.279816,139.6688142156601L120.836667,138.31185291704534L121.393518,133.27978343108296L121.950369,138.0534252279997L122.50722,138.12496139654516L123.064071,137.6560407502055L123.62092200000001,137.3559525296688L124.177773,136.81126939871908L124.734624,137.22537980255484L125.291475,137.050275813818L125.848326,137.35990851974486L126.40517700000001,136.6175208287537L126.962028,136.57620183107258L127.518879,136.6349970742464L128.07573,138.6861568300724L128.63258100000002,137.79581774756312L129.189432,135.7455335842073L129.746283,137.0852559967339L130.303134,136.41230384355782L130.859985,135.1057655944526L131.416836,135.47002524867654L131.97368699999998,136.22957270595433L132.530538,135.3693479385674L133.087389,129.15760353058576L133.64424,124.9529768409133L134.201091,133.50048416143656L134.75794199999999,134.7886771658957L135.314793,134.71267468455434L135.871644,134.86696620950102L136.428495,134.351652348876L136.985346,135.79445599481463L137.542197,136.0989564629495L138.099048,137.28325066271424L138.655899,136.92629904082418L139.21275,135.74719114404917L139.769601,135.65103553059697L140.326452,133.5089697601497L140.883303,131.74214415371418L141.440154,130.87860954129695L141.997005,129.1734222162366L142.553856,129.02131967246532L143.110707,127.4751974337101L143.667558,125.5317039037943L144.224409,116.62651705920696L144.78126,117.05697361403703L145.338111,121.39189215552807L145.894962,123.79848179572821L146.45181300000002,128.57180315744876L147.008664,133.79323797637224L147.565515,138.74528965106606L148.122366,140.33319241967797L148.679217,141.0933860220015L149.23606800000002,141.00089233669638L149.792919,140.65335860851408L150.34977,141.66021610406042L150.906621,140.68536784288287L151.46347200000002,138.8081068174839L152.02032300000002,145.43271615175902L152.577174,144.75302826614677L153.134025,146.35034826913477L153.690876,145.3738279428184L154.24772700000003,147.36618915881218L154.80457800000002,148.12789592733978L155.36142900000002,148.56513832381367L155.91828,148.58555452926456L156.475131,148.70478279550375L157.03198199999997,149.74721486147493L157.588833,149.25485530360044L158.145684,150.2074936474934L158.70253499999998,150.48615457744896L159.25938599999998,150.48874047629536L159.816237,150.8374445182085L160.373088,150.61295658668877L160.929939,150.33108899711073L161.48678999999998,150.50930898736416L162.04364099999998,150.74897638247162L162.600492,151.2336349463314L163.157343,151.8109279628098L163.714194,151.8078548178524L164.271045,152.14809518383072L164.82789599999998,152.2219554965459L165.384747,152.41964357329533L165.941598,152.1228940435499L166.498449,152.0755058977604L167.0553,151.596285171926L167.61215099999998,151.9941325005591L168.169002,151.88533057583123L168.725853,151.92811955349148L169.282704,151.82641533429177L169.839555,152.05260697887093L170.39640599999998,151.57233989366145L170.953257,150.95609817688913L171.510108,151.51088523615897L172.066959,152.09662330245226L172.62381,151.97502407949418L173.180661,147.53677474755048L173.737512,141.0991894594431L174.294363,146.5302099952698L174.851214,148.33452520099283L175.408065,149.38815304854512L175.964916,149.45055384700746L176.521767,150.68451352418214L177.078618,151.07552490196377L177.635469,147.42842017936707L178.19232,144.57227907957136L178.749171,148.42224598427117L179.306022,148.91709748622776L179.862873,150.13231104509532L180.419724,149.74756826325506L180.976575,150.23586073366553L181.53342600000002,149.87323820000142L182.09027700000001,150.19592501384764L182.647128,150.08673243509978L183.203979,149.5465769347921L183.76083,148.44170088413358L184.31768100000002,147.33968468463422L184.87453200000002,146.1313446585238L185.431383,146.52801178345084L185.988234,146.51501767471433L186.545085,147.90753739012777L187.10193600000002,149.65697740917653L187.65878700000002,149.77326934178174L188.215638,148.90145418280363L188.772489,150.68563175071031L189.32934,150.453434253864L189.88619100000003,150.93346661699564L190.44304200000002,151.00406323789804L190.99989300000001,150.8133096820861L191.55674399999998,150.82847332171352L192.11359499999998,151.69389428206534L192.670446,151.91685355308653L193.227297,151.9063873220086L193.784148,151.85690942446143L194.34099899999998,152.0364507154003L194.89784999999998,151.534239423573L195.454701,151.80478496955334L196.011552,152.0356423747614L196.568403,152.66427771394328L197.12525399999998,152.79722419993578L197.68210499999998,152.36268588751182L198.238956,152.24565105293692L198.795807,152.7572749638185L199.352658,144.69758440589905L199.90950899999999,145.68155649885534L200.46635999999998,148.6906625482589L201.023211,149.62901680098474L201.580062,150.74492742662878L202.136913,150.60312199535966L202.693764,150.64868082540482L203.25061499999998,151.1730061017573L203.807466,151.57933177645504L204.364317,151.07318559316545L204.921168,150.55911094643176L205.478019,151.3335095201209L206.03486999999998,151.69708281006663L206.591721,151.15449107920378L207.148572,150.85531735170633L207.705423,150.09907776146383L208.262274,147.44538676147164L208.81912499999999,147.47503361043334L209.375976,150.1208841677606L209.932827,151.2574516549185L210.489678,151.73505668847264L211.046529,152.02976047685L211.60338000000002,147.77803212100267L212.160231,140.38669059213996L212.717082,142.31739572480322L213.273933,142.76305910548567L213.830784,142.5817086084187L214.38763500000002,143.28132149738073L214.944486,144.32856108029188L215.501337,144.78662451186776L216.058188,143.58551735427974L216.615039,146.24967029969395L217.17189000000002,147.0477161337286L217.728741,149.47416945943237L218.285592,150.20234360774606L218.842443,149.44990935029088L219.399294,148.9652662807256L219.95614500000002,150.08400148328394L220.51299600000002,150.59468782451748L221.069847,150.6581155320704L221.626698,151.17003119722008L222.183549,150.34400431571154L222.74040000000002,149.81354923273622L223.29725100000002,150.1252842177227L223.854102,150.04277512170376L224.410953,150.08407895475625L224.967804,150.07694861231L225.52465500000002,149.62608870899678L226.08150600000002,150.24101077341288L226.63835699999998,149.9078738821149L227.19520799999998,150.85668348694594L227.75205899999997,150.29456268140675L228.30891,149.22466582466663L228.865761,149.35443911211937L229.422612,150.03952956151218L229.97946299999998,150.10037005155533L230.53631399999998,149.40463403286785L231.093165,149.8001361187175L231.650016,149.79570969548823L232.206867,149.04221028770507L232.76371799999998,149.50374641923605L233.32056899999998,149.50601583887638L233.87742,150.100516752854L234.434271,149.85220288210363L234.991122,149.55243806375563L235.54797299999998,149.21122337038815L236.10482399999998,148.89282550911605L236.661675,148.07491269291938L237.218526,147.66818944121897L237.775377,149.25920161803066L238.332228,149.40394503126294L238.889079,149.9853483214304L239.44593,150.01038281562924L240.002781,149.7923075440228L240.559632,149.25429355300963L241.116483,149.507564938657L241.673334,149.5063550650254L242.230185,149.11102407574654L242.787036,149.0395663676709L243.343887,148.08630594433845L243.900738,146.93734994459152L244.457589,142.69163238599896L245.01444,142.16217849817872L245.571291,143.7961580018699L246.128142,144.24805668224394L246.684993,144.76389207422733L247.24184400000001,143.57266434252261L247.798695,142.84115826156736L248.355546,143.20901654809714L248.912397,143.89739969989657L249.469248,143.76488721898198L250.02609900000002,143.0362927467227L250.58295,143.56091637066007" style="fill: none;" fill="none"></path></g></g></g></g></g></g><g transform="translate(51, 176)" clip-path="url(#clip_1)"><clipPath id="clip_1"><rect width="278" height="22"></rect></clipPath><g><g><line x1="0" y1="0" x2="0" y2="5" style="visibility: inherit;" fill="rgb(0, 0, 0)" stroke="rgb(204, 204, 204)" stroke-width="1px"></line><line x1="27.842550000000003" y1="0" x2="27.842550000000003" y2="5" style="visibility: inherit;" fill="rgb(0, 0, 0)" stroke="rgb(204, 204, 204)" stroke-width="1px"></line><line x1="55.685100000000006" y1="0" x2="55.685100000000006" y2="5" style="visibility: inherit;" fill="rgb(0, 0, 0)" stroke="rgb(204, 204, 204)" stroke-width="1px"></line><line x1="83.52765" y1="0" x2="83.52765" y2="5" style="visibility: inherit;" fill="rgb(0, 0, 0)" stroke="rgb(204, 204, 204)" stroke-width="1px"></line><line x1="111.37020000000001" y1="0" x2="111.37020000000001" y2="5" style="visibility: inherit;" fill="rgb(0, 0, 0)" stroke="rgb(204, 204, 204)" stroke-width="1px"></line><line x1="139.21275" y1="0" x2="139.21275" y2="5" style="visibility: inherit;" fill="rgb(0, 0, 0)" stroke="rgb(204, 204, 204)" stroke-width="1px"></line><line x1="167.0553" y1="0" x2="167.0553" y2="5" style="visibility: inherit;" fill="rgb(0, 0, 0)" stroke="rgb(204, 204, 204)" stroke-width="1px"></line><line x1="194.89784999999998" y1="0" x2="194.89784999999998" y2="5" style="visibility: inherit;" fill="rgb(0, 0, 0)" stroke="rgb(204, 204, 204)" stroke-width="1px"></line><line x1="222.74040000000002" y1="0" x2="222.74040000000002" y2="5" style="visibility: inherit;" fill="rgb(0, 0, 0)" stroke="rgb(204, 204, 204)" stroke-width="1px"></line><line x1="250.58295" y1="0" x2="250.58295" y2="5" style="visibility: inherit;" fill="rgb(0, 0, 0)" stroke="rgb(204, 204, 204)" stroke-width="1px"></line><line x1="278.4255" y1="0" x2="278.4255" y2="5" style="visibility: inherit;" fill="rgb(0, 0, 0)" stroke="rgb(204, 204, 204)" stroke-width="1px"></line></g><g transform="translate(0, 8)"><text x="0" y="0" dx="0em" dy="0.95em" style="text-anchor: middle; visibility: hidden; font-family: Roboto, sans-serif; font-size: 12px; font-weight: 200;" fill="rgb(33, 33, 33)" stroke="none" stroke-width="1px">-200k</text><text x="27.842550000000003" y="0" dx="0em" dy="0.95em" style="text-anchor: middle; visibility: inherit; font-family: Roboto, sans-serif; font-size: 12px; font-weight: 200;" fill="rgb(33, 33, 33)" stroke="none" stroke-width="1px">0</text><text x="55.685100000000006" y="0" dx="0em" dy="0.95em" style="text-anchor: middle; visibility: hidden; font-family: Roboto, sans-serif; font-size: 12px; font-weight: 200;" fill="rgb(33, 33, 33)" stroke="none" stroke-width="1px">200k</text><text x="83.52765" y="0" dx="0em" dy="0.95em" style="text-anchor: middle; visibility: inherit; font-family: Roboto, sans-serif; font-size: 12px; font-weight: 200;" fill="rgb(33, 33, 33)" stroke="none" stroke-width="1px">400k</text><text x="111.37020000000001" y="0" dx="0em" dy="0.95em" style="text-anchor: middle; visibility: hidden; font-family: Roboto, sans-serif; font-size: 12px; font-weight: 200;" fill="rgb(33, 33, 33)" stroke="none" stroke-width="1px">600k</text><text x="139.21275" y="0" dx="0em" dy="0.95em" style="text-anchor: middle; visibility: inherit; font-family: Roboto, sans-serif; font-size: 12px; font-weight: 200;" fill="rgb(33, 33, 33)" stroke="none" stroke-width="1px">800k</text><text x="167.0553" y="0" dx="0em" dy="0.95em" style="text-anchor: middle; visibility: hidden; font-family: Roboto, sans-serif; font-size: 12px; font-weight: 200;" fill="rgb(33, 33, 33)" stroke="none" stroke-width="1px">1M</text><text x="194.89784999999998" y="0" dx="0em" dy="0.95em" style="text-anchor: middle; visibility: inherit; font-family: Roboto, sans-serif; font-size: 12px; font-weight: 200;" fill="rgb(33, 33, 33)" stroke="none" stroke-width="1px">1.2M</text><text x="222.74040000000002" y="0" dx="0em" dy="0.95em" style="text-anchor: middle; visibility: hidden; font-family: Roboto, sans-serif; font-size: 12px; font-weight: 200;" fill="rgb(33, 33, 33)" stroke="none" stroke-width="1px">1.4M</text><text x="250.58295" y="0" dx="0em" dy="0.95em" style="text-anchor: middle; visibility: inherit; font-family: Roboto, sans-serif; font-size: 12px; font-weight: 200;" fill="rgb(33, 33, 33)" stroke="none" stroke-width="1px">1.6M</text><text x="278.4255" y="0" dx="0em" dy="0.95em" style="text-anchor: middle; visibility: hidden; font-family: Roboto, sans-serif; font-size: 12px; font-weight: 200;" fill="rgb(33, 33, 33)" stroke="none" stroke-width="1px">1.8M</text></g><line x1="0" y1="0" x2="278.4255" y2="0" fill="rgb(0, 0, 0)" stroke="rgb(204, 204, 204)" stroke-width="1px"></line></g></g></g></g></svg>