<svg viewBox="0 0 329.9884338378906 199.98843383789062" xmlns="http://www.w3.org/2000/svg"><g><g><g><g><g><line x1="63.984375" y1="175.988" x2="58.984375" y2="175.988" style="visibility: inherit;" fill="rgb(0, 0, 0)" stroke="rgb(204, 204, 204)" stroke-width="1px"></line><line x1="63.984375" y1="153.98950000000008" x2="58.984375" y2="153.98950000000008" style="visibility: inherit;" fill="rgb(0, 0, 0)" stroke="rgb(204, 204, 204)" stroke-width="1px"></line><line x1="63.984375" y1="131.99100000000016" x2="58.984375" y2="131.99100000000016" style="visibility: inherit;" fill="rgb(0, 0, 0)" stroke="rgb(204, 204, 204)" stroke-width="1px"></line><line x1="63.984375" y1="109.99250000000004" x2="58.984375" y2="109.99250000000004" style="visibility: inherit;" fill="rgb(0, 0, 0)" stroke="rgb(204, 204, 204)" stroke-width="1px"></line><line x1="63.984375" y1="87.9940000000001" x2="58.984375" y2="87.9940000000001" style="visibility: inherit;" fill="rgb(0, 0, 0)" stroke="rgb(204, 204, 204)" stroke-width="1px"></line><line x1="63.984375" y1="65.99549999999998" x2="58.984375" y2="65.99549999999998" style="visibility: inherit;" fill="rgb(0, 0, 0)" stroke="rgb(204, 204, 204)" stroke-width="1px"></line><line x1="63.984375" y1="43.99700000000006" x2="58.984375" y2="43.99700000000006" style="visibility: inherit;" fill="rgb(0, 0, 0)" stroke="rgb(204, 204, 204)" stroke-width="1px"></line><line x1="63.984375" y1="21.998500000000018" x2="58.984375" y2="21.998500000000018" style="visibility: inherit;" fill="rgb(0, 0, 0)" stroke="rgb(204, 204, 204)" stroke-width="1px"></line><line x1="63.984375" y1="0" x2="58.984375" y2="0" style="visibility: inherit;" fill="rgb(0, 0, 0)" stroke="rgb(204, 204, 204)" stroke-width="1px"></line></g><g transform="translate(53.984375, 0)"><text x="0" y="175.988" dx="0em" dy="0.3em" style="text-anchor: end; visibility: hidden; font-family: Roboto, sans-serif; font-size: 12px; font-weight: 200;" fill="rgb(33, 33, 33)" stroke="none" stroke-width="1px">-2.3</text><text x="0" y="153.98950000000008" dx="0em" dy="0.3em" style="text-anchor: end; visibility: inherit; font-family: Roboto, sans-serif; font-size: 12px; font-weight: 200;" fill="rgb(33, 33, 33)" stroke="none" stroke-width="1px">-2.25</text><text x="0" y="131.99100000000016" dx="0em" dy="0.3em" style="text-anchor: end; visibility: hidden; font-family: Roboto, sans-serif; font-size: 12px; font-weight: 200;" fill="rgb(33, 33, 33)" stroke="none" stroke-width="1px">-2.2</text><text x="0" y="109.99250000000004" dx="0em" dy="0.3em" style="text-anchor: end; visibility: inherit; font-family: Roboto, sans-serif; font-size: 12px; font-weight: 200;" fill="rgb(33, 33, 33)" stroke="none" stroke-width="1px">-2.15</text><text x="0" y="87.9940000000001" dx="0em" dy="0.3em" style="text-anchor: end; visibility: hidden; font-family: Roboto, sans-serif; font-size: 12px; font-weight: 200;" fill="rgb(33, 33, 33)" stroke="none" stroke-width="1px">-2.1</text><text x="0" y="65.99549999999998" dx="0em" dy="0.3em" style="text-anchor: end; visibility: inherit; font-family: Roboto, sans-serif; font-size: 12px; font-weight: 200;" fill="rgb(33, 33, 33)" stroke="none" stroke-width="1px">-2.05</text><text x="0" y="43.99700000000006" dx="0em" dy="0.3em" style="text-anchor: end; visibility: hidden; font-family: Roboto, sans-serif; font-size: 12px; font-weight: 200;" fill="rgb(33, 33, 33)" stroke="none" stroke-width="1px">-2</text><text x="0" y="21.998500000000018" dx="0em" dy="0.3em" style="text-anchor: end; visibility: inherit; font-family: Roboto, sans-serif; font-size: 12px; font-weight: 200;" fill="rgb(33, 33, 33)" stroke="none" stroke-width="1px">-1.95</text><text x="0" y="0" dx="0em" dy="0.3em" style="text-anchor: end; visibility: hidden; font-family: Roboto, sans-serif; font-size: 12px; font-weight: 200;" fill="rgb(33, 33, 33)" stroke="none" stroke-width="1px">-1.9</text></g><line x1="63.984375" y1="0" x2="63.984375" y2="175.988" fill="rgb(0, 0, 0)" stroke="rgb(204, 204, 204)" stroke-width="1px"></line></g></g><g transform="translate(63, 0)" clip-path="url(#clip_0)"><clipPath id="clip_0"><rect width="265" height="175"></rect></clipPath><g><g><g><line x1="0" y1="0" x2="0" y2="175.988" fill="rgb(0, 0, 0)" stroke="rgb(66, 66, 66)" stroke-width="1px" opacity="0.25"></line><line x1="26.600362500000003" y1="0" x2="26.600362500000003" y2="175.988" fill="rgb(0, 0, 0)" stroke="rgb(66, 66, 66)" stroke-width="1px" opacity="0.25"></line><line x1="53.200725000000006" y1="0" x2="53.200725000000006" y2="175.988" fill="rgb(0, 0, 0)" stroke="rgb(66, 66, 66)" stroke-width="1px" opacity="0.25"></line><line x1="79.8010875" y1="0" x2="79.8010875" y2="175.988" fill="rgb(0, 0, 0)" stroke="rgb(66, 66, 66)" stroke-width="1px" opacity="0.25"></line><line x1="106.40145000000001" y1="0" x2="106.40145000000001" y2="175.988" fill="rgb(0, 0, 0)" stroke="rgb(66, 66, 66)" stroke-width="1px" opacity="0.25"></line><line x1="133.0018125" y1="0" x2="133.0018125" y2="175.988" fill="rgb(0, 0, 0)" stroke="rgb(66, 66, 66)" stroke-width="1px" opacity="0.25"></line><line x1="159.602175" y1="0" x2="159.602175" y2="175.988" fill="rgb(0, 0, 0)" stroke="rgb(66, 66, 66)" stroke-width="1px" opacity="0.25"></line><line x1="186.20253749999998" y1="0" x2="186.20253749999998" y2="175.988" fill="rgb(0, 0, 0)" stroke="rgb(66, 66, 66)" stroke-width="1px" opacity="0.25"></line><line x1="212.80290000000002" y1="0" x2="212.80290000000002" y2="175.988" fill="rgb(0, 0, 0)" stroke="rgb(66, 66, 66)" stroke-width="1px" opacity="0.25"></line><line x1="239.4032625" y1="0" x2="239.4032625" y2="175.988" fill="rgb(0, 0, 0)" stroke="rgb(66, 66, 66)" stroke-width="1px" opacity="0.25"></line><line x1="266.003625" y1="0" x2="266.003625" y2="175.988" fill="rgb(0, 0, 0)" stroke="rgb(66, 66, 66)" stroke-width="1px" opacity="0.25"></line></g><g><line x1="0" y1="175.988" x2="266.003625" y2="175.988" fill="rgb(0, 0, 0)" stroke="rgb(66, 66, 66)" stroke-width="1px" opacity="0.25"></line><line x1="0" y1="153.98950000000008" x2="266.003625" y2="153.98950000000008" fill="rgb(0, 0, 0)" stroke="rgb(66, 66, 66)" stroke-width="1px" opacity="0.25"></line><line x1="0" y1="131.99100000000016" x2="266.003625" y2="131.99100000000016" fill="rgb(0, 0, 0)" stroke="rgb(66, 66, 66)" stroke-width="1px" opacity="0.25"></line><line x1="0" y1="109.99250000000004" x2="266.003625" y2="109.99250000000004" fill="rgb(0, 0, 0)" stroke="rgb(66, 66, 66)" stroke-width="1px" opacity="0.25"></line><line x1="0" y1="87.9940000000001" x2="266.003625" y2="87.9940000000001" fill="rgb(0, 0, 0)" stroke="rgb(66, 66, 66)" stroke-width="1px" opacity="0.25"></line><line x1="0" y1="65.99549999999998" x2="266.003625" y2="65.99549999999998" fill="rgb(0, 0, 0)" stroke="rgb(66, 66, 66)" stroke-width="1px" opacity="0.25"></line><line x1="0" y1="43.99700000000006" x2="266.003625" y2="43.99700000000006" fill="rgb(0, 0, 0)" stroke="rgb(66, 66, 66)" stroke-width="1px" opacity="0.25"></line><line x1="0" y1="21.998500000000018" x2="266.003625" y2="21.998500000000018" fill="rgb(0, 0, 0)" stroke="rgb(66, 66, 66)" stroke-width="1px" opacity="0.25"></line><line x1="0" y1="0" x2="266.003625" y2="0" fill="rgb(0, 0, 0)" stroke="rgb(66, 66, 66)" stroke-width="1px" opacity="0.25"></line></g></g></g><g><g><line x1="0" y1="-835.9430000000001" x2="266.003625" y2="-835.9430000000001" fill="rgb(0, 0, 0)" stroke="rgb(153, 153, 153)" stroke-width="1.5px"></line></g></g><g><g><line x1="26.600362500000003" y1="0" x2="26.600362500000003" y2="175.988" fill="rgb(0, 0, 0)" stroke="rgb(153, 153, 153)" stroke-width="1.5px"></line></g></g><g><g><g><g><g><path stroke="rgb(255, 112, 67)" stroke-width="2px" d="M37.24050750000001,188.141435544204L37.77251475,163.71680990715402L38.304522,135.92452382439262L38.83652925,112.43564150564116L39.3685365,92.77249843681726L39.90054375,79.89246754957311L40.432551,69.49890869428215L40.964558249999996,61.76200051527212L41.4965655,56.42326010268753L42.02857275,52.71030215505857L42.56058,50.21084491435951L43.09258725,48.29116319079185L43.6245945,46.94898718849233L44.15660175,45.91597118870898L44.688609,45.122053537894466L45.220616250000006,44.576470926090565L45.7526235,44.10935657112664L46.28463075,43.95521614156266L46.816638,43.82876622850498L47.34864525,43.30762939994339L47.8806525,42.6860465520227L48.412659749999996,41.929194721473486L48.944667,51.00848165983193L49.47667425,47.04605664259371L50.0086815,43.18795918430109L50.54068875,40.290313833491155L51.072696,36.93425649885239L51.60470325,34.03678076811861L52.1367105,29.47637661659161L52.66871775,25.893678094407036L53.200725000000006,24.211920679758443L53.732732250000005,22.288625743874736L54.2647395,21.1755586210271L54.79674675,20.536187399158745L55.328753999999996,19.687682042842045L55.860761249999996,20.561918799642292L56.392768499999995,20.741139856483752L56.92477575,20.488833745471382L57.456783,20.70194625176901L57.98879025,20.748980110203803L58.5207975,20.559853795168067L59.05280475,20.812279799149863L59.584812,19.74571313801189L60.11681925,19.625244174902274L60.648826500000006,19.78010680901096L61.180833750000005,19.96399108716902L61.712841000000004,20.448321497184452L62.244848250000004,21.18777410138987L62.776855499999996,20.310666277392716L63.308862749999996,35.26955175999644L63.840869999999995,32.34072839744008L64.37287725,27.78799167522871L64.9048845,25.132693694693383L65.43689175,23.367022242988742L65.968899,21.549675448015545L66.50090625,21.188154819819456L67.0329135,21.360410395439377L67.56492075,20.55172609117981L68.096928,20.766304523440432L68.62893525,20.796385443670903L69.1609425,20.5760450230499L69.69294975,21.261471100286276L70.224957,19.842126852581316L70.75696425000001,40.70829489302014L71.2889715,34.8451701977216L71.82097875000001,29.586529296348278L72.352986,26.384413827770814L72.88499325000001,24.650008102055743L73.4170005,23.915831806824396L73.94900775,22.595428827670723L74.48101500000001,21.904014057962637L75.01302224999999,21.036492586331686L75.5450295,20.049187954352547L76.07703674999999,20.7508358210125L76.609044,19.830023791229607L77.14105124999999,19.40297243256323L77.6730585,20.28518899981347L78.20506574999999,20.631096007062016L78.737073,21.445511443920758L79.26908025,21.039137353413036L79.8010875,21.1525501980738L80.33309475,20.71157461471302L80.865102,20.16343163415755L81.39710925,20.380010361510323L81.92911649999999,19.578472040365874L82.46112375,20.232933437079666L82.993131,20.861041151839814L83.52513825,20.57332020654572L84.0571455,19.76805369819575L84.58915275,19.91834593113289L85.12116,20.121726137304474L85.65316725,18.926520393839038L86.1851745,18.841401506799787L86.71718175000001,19.169889559875998L87.249189,18.751488623983285L87.78119625000001,18.998813815144647L88.3132035,19.80824898463959L88.84521075,20.01169513768234L89.377218,20.4985317346709L89.90922525,20.744982508782087L90.44123250000001,20.202966237332582L90.97323975,19.842343239752164L91.505247,18.83439553192121L92.03725424999999,19.587455922000874L92.5692615,20.207526000328855L93.10126874999999,21.03452741221658L93.633276,20.860310410762295L94.16528325,20.529139703622253L94.6972905,19.546730646724075L95.22929775,20.19395816666754L95.761305,20.52078306478783L96.29331225,20.572120112958753L96.82531949999999,21.815657795466997L97.35732675,22.3720007123221L97.889334,20.88313678327012L98.42134125,41.85973565596825L98.9533485,35.83776045028259L99.48535575,29.724082069348665L100.017363,27.058879388112665L100.54937025,25.50091937090091L101.0813775,23.535865787465085L101.61338475,22.507193029092967L102.145392,21.379098916916302L102.67739925000001,19.596187267630302L103.2094065,19.802617450719495L103.74141375,19.45611731281603L104.273421,19.29722511886794L104.80542825,19.56905035976919L105.3374355,20.52434879572599L105.86944275,18.692532848831526L106.40145000000001,54.05178800344267L106.93345725,44.68039739971035L107.46546450000001,34.25611163814466L107.99747175,29.315815952346345L108.529479,26.249720594051922L109.06148624999999,23.181866104390366L109.5934935,22.540273230711282L110.12550075,21.65628041286458L110.65750799999999,21.57805382625579L111.18951525,20.62333904376222L111.72152249999999,19.28717454337235L112.25352975,19.19921616191364L112.78553699999999,21.055441061512823L113.31754425,21.041847703180444L113.8495515,21.00165613758663L114.38155875,20.671053078628237L114.913566,20.99732321032078L115.44557325,19.828333071089965L115.9775805,43.439886886416204L116.50958775,35.31978942621846L117.041595,28.961654835922094L117.57360225000001,25.572383259810564L118.1056095,23.026209545825473L118.63761675,21.06792402051368L119.169624,20.638141151371546L119.70163125,20.637290113796478L120.2336385,19.7545116165339L120.76564575,19.176801681986966L121.29765300000001,20.201997998804774L121.82966025,21.111435853916955L122.36166750000001,21.20918828198823L122.89367475,20.74087905786933L123.42568200000001,19.20347894972867L123.95768925,18.978457226957772L124.48969650000001,20.544034717968653L125.02170374999999,20.38210933480955L125.55371099999999,19.940052695764855L126.08571825,20.30436868105762L126.61772549999999,21.495878153577102L127.14973275,20.86128364587709L127.68173999999999,39.42870545192294L128.21374724999998,35.435623177121506L128.7457545,29.496855906433158L129.27776175,24.664257657209806L129.809769,23.221844223117767L130.34177625,21.30465665880201L130.8737835,21.490333574958786L131.40579075,21.380448966519875L131.937798,21.440814216242394L132.46980525,21.191377795092016L133.0018125,21.497346648235148L133.53381975,21.100218044959917L134.065827,21.776600958182456L134.59783425,20.98177938947328L135.1298415,21.241557256086214L135.66184875,20.59884294568517L136.193856,21.271310622853125L136.72586325,20.59699530496727L137.2578705,20.57559493650508L137.78987775000002,19.19309331654021L138.321885,32.85503205040998L138.85389225,27.99897767751161L139.3858995,22.24941209850754L139.91790675000001,17.596419988310647L140.449914,16.072179359624567L140.98192125,14.911336774176206L141.51392850000002,11.62364399994954L142.04593575,10.839595515093487L142.577943,11.511369120026473L143.10995025,10.424916546478693L143.64195750000002,9.823773202308923L144.17396475,11.113453026228548L144.705972,25.030815849359847L145.23797925000002,24.20471616061686L145.76998650000002,19.08240534591775L146.30199375,15.119597005463302L146.834001,14.724192989406955L147.36600825000002,12.824962159286775L147.8980155,10.66441898487258L148.43002275,9.599244158448244L148.96203000000003,8.806087495721314L149.49403725000002,9.419213403652286L150.02604449999998,8.972500632447124L150.55805174999998,8.994303442193377L151.090059,9.588409734269042L151.62206625,8.053622157204124L152.15407349999998,8.575440316741485L152.68608074999997,7.958178542747962L153.218088,7.728845035061196L153.75009525,6.857364383402495L154.28210249999998,7.799111155237588L154.81410975,9.592503348854658L155.346117,10.403799560277166L155.87812424999998,8.99689232390439L156.41013149999998,8.970378311689604L156.94213875,9.092598303255997L157.474146,9.48032765327556L158.00615324999998,10.231450264851325L158.5381605,10.462259673166256L159.07016775,10.375678267221396L159.602175,9.35852996314816L160.13418224999998,10.131790745337335L160.6661895,9.33274510798424L161.19819675,9.180050970468354L161.730204,8.775086103101646L162.26221125,8.121435340583366L162.7942185,8.753144717228453L163.32622575,7.956253744418641L163.85823299999998,8.581950525841243L164.39024025,8.295825034189932L164.9222475,6.7670550035767185L165.45425475,8.213899134405338L165.986262,16.845602064661886L166.51826925,16.784346220620115L167.0502765,15.785917793636143L167.58228375,14.083113289955067L168.114291,12.949106856323958L168.64629825,11.941424286733652L169.1783055,11.834572094947443L169.71031275,9.874342205733303L170.24232,23.902712955886326L170.77432725,21.144761914309438L171.3063345,16.616505200133645L171.83834175,14.531744545308262L172.370349,12.569833197407466L172.90235625,11.231186933214945L173.43436350000002,10.69599008713691L173.96637075,10.293849519506264L174.498378,10.471188215312438L175.03038525,9.261805144534769L175.56239250000002,8.232288628617697L176.09439975,7.960445180821319L176.626407,7.698274364333069L177.15841425000002,8.647383706295836L177.6904215,9.291284238460307L178.22242875,10.112905241276405L178.754436,11.543929954114938L179.28644325000002,10.920349857463485L179.8184505,27.05846165951137L180.35045775,21.74864910378486L180.88246500000002,19.010483040704862L181.41447225000002,16.076951420530456L181.9464795,14.295286600056233L182.47848675,13.70745034882015L183.010494,12.10603346584198L183.54250125,10.61354424790118L184.07450849999998,10.314390288612723L184.60651575,9.601097946227494L185.138523,9.987668897951242L185.67053024999998,9.947005087569112L186.20253749999998,9.39654823476957L186.73454475,9.415560227769053L187.266552,7.895911466251232L187.79855924999998,7.761178370744313L188.3305665,7.679876966542196L188.86257375,8.421558124867788L189.394581,8.26743698759544L189.92658824999998,8.890886482069934L190.4585955,10.001102501481814L190.99060275,22.69996953511838L191.52261,19.591492269471964L192.05461725,15.467049927303636L192.5866245,11.608499086898288L193.11863175,10.820144741464663L193.65063899999998,10.678942394977174L194.18264625,10.397518090966672L194.7146535,9.827453377868727L195.24666075,8.317197392646047L195.778668,8.611779035773058L196.31067525,9.214137199715537L196.8426825,9.647091867253655L197.37468975,9.28956667125545L197.906697,9.955137570311614L198.43870425,9.560157898479748L198.9707115,8.620842572625998L199.50271874999999,24.89358209768328L200.034726,20.832532559677315L200.56673325,16.83692329223419L201.0987405,13.779189017912628L201.63074775,13.458128566730506L202.162755,12.46628188351902L202.69476225,12.763574800658933L203.2267695,11.421321357636911L203.75877675,10.205528223174406L204.290784,9.548053658567342L204.82279125,8.337218333865662L205.35479850000002,8.544783163348091L205.88680575,9.72343223760085L206.418813,11.474724682793395L206.95082025,12.457799611750465L207.4828275,9.578049681868144L208.01483475,14.39707463524702L208.546842,14.030975519597344L209.07884925000002,12.647903176462476L209.6108565,12.402797731397103L210.14286375,11.916917082499014L210.674871,10.896773976630334L211.20687825000002,10.637414840118023L211.7388855,9.891354999384856L212.27089275,9.033466840935649L212.80290000000002,10.266591068764345L213.33490725000001,9.716546922886277L213.8669145,11.23046323063604L214.39892175,10.3966413109936L214.93092900000002,11.456691365136939L215.46293625,10.466125232442794L215.9949435,9.481589609470728L216.52695075,8.861580987076037L217.058958,9.583274126398642L217.59096524999998,10.102200671212659L218.12297249999997,8.15178798380904L218.65497975,8.40834966797484L219.186987,8.89791519085679L219.71899424999998,9.722097766686217L220.2510015,9.365577770691392L220.78300875,9.210240270317398L221.31501599999999,8.893921803772903L221.84702324999998,10.934388272655317L222.3790305,10.554352116329811L222.91103775,11.514603890552223L223.44304499999998,9.319669338973874L223.97505225,8.058304029817826L224.5070595,9.239121659872257L225.03906675,10.461565688107799L225.57107399999998,11.165618980010937L226.10308125,9.944839101648776L226.6350885,12.94813176613836L227.16709575,11.827382613359696L227.699103,10.209391363155204L228.23111025,9.935763202292552L228.7631175,10.501732518829618L229.29512474999999,11.502521998785541L229.827132,11.380485976924001L230.35913925,10.98577597002355L230.8911465,9.841276032377305L231.42315375,9.540932782130847L231.955161,9.283103035519959L232.48716825,9.888656845993161L233.0191755,9.438554683557998L233.55118275,9.472925524063076L234.08319,11.515228338138634L234.61519725,11.674898239360134L235.14720450000002,11.19970372919202L235.67921175,10.09536225874396L236.211219,11.021506696028617L236.74322625,9.609912644364277L237.2752335,10.172163789640566L237.80724075,10.077884209663148L238.339248,10.826820695513824L238.87125525000002,9.695468379375L239.4032625,9.690494481203984" style="fill: none;" fill="none"></path></g></g></g></g><g opacity="0.2"><g><g><g><path stroke="rgb(255, 112, 67)" stroke-width="2px" d="M36.70850025,178.1005001516343L37.24050750000001,155.60250151109705L37.77251475,127.08121095609673L38.304522,94.23700921726233L38.83652925,77.20278177452093L39.3685365,63.278016762256684L39.90054375,60.57251276445395L40.432551,53.908614735126555L40.964558249999996,50.15665804338461L41.4965655,48.415157680034696L42.02857275,47.14086865377432L42.56058,46.46166043472296L43.09258725,45.41164124202734L43.6245945,44.935723452091274L44.15660175,44.3664473123551L44.688609,43.93117711853985L45.220616250000006,43.75809703183178L45.7526235,43.40868505072598L46.28463075,43.724005499601404L46.816638,43.6390913600922L47.34864525,42.525924160003704L47.8806525,41.75367228221897L48.412659749999996,40.79391697716717L48.944667,64.62741205644613L49.47667425,41.10241911959652L50.0086815,37.40081299853329L50.54068875,35.94384580802922L51.072696,31.900170497417488L51.60470325,29.690567172288933L52.1367105,22.635770389556924L52.66871775,20.519630311250726L53.200725000000006,21.689284557819406L53.732732250000005,19.40368334007267L54.2647395,19.505957936763803L54.79674675,19.577130566358605L55.328753999999996,18.414924008369486L55.860761249999996,21.873273934841194L56.392768499999995,21.009971441745797L56.92477575,20.11037457895283L57.456783,21.02161501121525L57.98879025,20.8195308978558L58.5207975,20.276164322614708L59.05280475,21.190918805122415L59.584812,18.145863146305125L60.11681925,19.444540730238L60.648826500000006,20.012400760173836L61.180833750000005,20.239817504406016L61.712841000000004,21.174817112207453L62.244848250000004,22.296953007698097L62.776855499999996,18.995004541397133L63.308862749999996,57.70787998390204L63.840869999999995,27.94749335360531L64.37287725,20.958886591911355L64.9048845,21.149746723890342L65.43689175,20.718515065431635L65.968899,18.823655255556144L66.50090625,20.645873877525368L67.0329135,21.61879375886921L67.56492075,19.33869963479046L68.096928,21.08817217183117L68.62893525,20.84150682401661L69.1609425,20.245534392118493L69.69294975,22.289610216140787L70.224957,17.71311048102383L70.75696425000001,72.00754695367819L71.2889715,26.05048315477375L71.82097875000001,21.698567944288293L72.352986,21.581240624904673L72.88499325000001,22.048399513483087L73.4170005,22.81456736397747L73.94900775,20.614824358940165L74.48101500000001,20.86689190340046L75.01302224999999,19.73521037888531L75.5450295,18.568231006383936L76.07703674999999,21.803307621002237L76.609044,18.44880574655537L77.14105124999999,18.762395394563715L77.6730585,21.608513850688972L78.20506574999999,21.14995651793484L78.737073,22.66713459920887L79.26908025,20.429576217651405L79.8010875,21.32266946506504L80.33309475,20.050111239671747L80.865102,19.341217163324394L81.39710925,20.704878452539482L81.92911649999999,18.3761645586491L82.46112375,21.214625532150308L82.993131,21.80320272397999L83.52513825,20.141738788604776L84.0571455,18.560153935670893L84.58915275,20.143784280538597L85.12116,20.426796446561852L85.65316725,17.133711778640787L86.1851745,18.71372317624096L86.71718175000001,19.662621639490165L87.249189,18.12388722014431L87.78119625000001,19.36980160188679L88.3132035,21.022401738882103L88.84521075,20.316864367246666L89.377218,21.228786630153696L89.90922525,21.114658669948618L90.44123250000001,19.38994183015827L90.97323975,19.30140874338154L91.505247,17.32247397017483L92.03725424999999,20.71704650712017L92.5692615,21.137631117820778L93.10126874999999,22.27502953004841L93.633276,20.598984908580817L94.16528325,20.03238364291195L94.6972905,18.07311706137661L95.22929775,21.164799446582833L95.761305,21.01102041196827L96.29331225,20.649125685215036L96.82531949999999,23.680964319229165L97.35732675,23.20651508760456L97.889334,18.649840889692346L98.42134125,73.32463396501547L98.9533485,26.804797641754188L99.48535575,20.553564497947733L100.017363,23.06107536625866L100.54937025,23.163979345083277L101.0813775,20.588285412311592L101.61338475,20.964183891534844L102.145392,19.686957748651544L102.67739925000001,16.92181979370121L103.2094065,20.11226272535328L103.74141375,18.936367105960883L104.273421,19.05888682794575L104.80542825,19.976788221120874L105.3374355,21.957296449661293L105.86944275,15.944808928489724L106.40145000000001,107.09067073535925L106.93345725,30.623311494112055L107.46546450000001,18.619682995796243L107.99747175,21.905372423648874L108.529479,21.650577556610145L109.06148624999999,18.580084369897882L109.5934935,21.577883920192757L110.12550075,20.330291186094325L110.65750799999999,21.46071394634251L111.18951525,19.19126687002186L111.72152249999999,17.28292779278759L112.25352975,19.067278589725532L112.78553699999999,23.8397784109116L113.31754425,21.02145766568188L113.8495515,20.941368789196055L114.38155875,20.175148490190544L114.913566,21.48672840785984L115.44557325,18.07484786224369L115.9775805,78.85721760940558L116.50958775,23.1396432359219L117.041595,19.42445295047764L117.57360225000001,20.488475895643273L118.1056095,19.206948974847833L118.63761675,18.130495732545892L119.169624,19.993466847658198L119.70163125,20.636013557434122L120.2336385,18.43034387063984L120.76564575,18.310236780166665L121.29765300000001,21.739792474031486L121.82966025,22.475592636585276L122.36166750000001,21.355816924095194L122.89367475,20.03841522169117L123.42568200000001,16.897378787517585L123.95768925,18.640924642801323L124.48969650000001,22.89240095448498L125.02170374999999,20.13922126007084L125.55371099999999,19.276967737197914L126.08571825,20.850842658996623L126.61772549999999,23.283142362356227L127.14973275,19.909391884326975L127.68173999999999,67.27983816099173L128.21374724999998,29.44599976491932L128.7457545,20.588705000400584L129.27776175,17.415360283374824L129.809769,21.058224071979563L130.34177625,18.428875312328376L130.8737835,21.768848949193995L131.40579075,21.215622053861658L131.937798,21.531362090826075L132.46980525,20.817223163366357L133.0018125,21.956299927949946L133.53381975,20.50452514004711L134.065827,22.79117532801632L134.59783425,19.789547036409417L135.1298415,21.631224056005518L135.66184875,19.634771480083504L136.193856,22.280012138605155L136.72586325,19.585522328138392L137.2578705,20.54349438381199L137.78987775000002,17.119340886592905L138.321885,53.34794015121466L138.85389225,20.714896118164102L139.3858995,13.62506373000149L139.91790675000001,10.616931823015252L140.449914,13.785818416595498L140.98192125,13.170072896003763L141.51392850000002,6.692104838609734L142.04593575,9.663522787809411L142.577943,12.519029527425806L143.10995025,8.795237686157266L143.64195750000002,8.922058186054269L144.17396475,13.047972762107888L144.705972,45.906860084056916L145.23797925000002,22.96556662750248L145.76998650000002,11.398939123868981L146.30199375,9.175384494781532L146.834001,14.131086965322533L147.36600825000002,9.976115914106408L147.8980155,7.423604223251382L148.43002275,8.001481918811837L148.96203000000003,7.616352501630822L149.49403725000002,10.338902265548745L150.02604449999998,8.302431475639382L150.55805174999998,9.027007656812707L151.090059,10.479569172382394L151.62206625,5.751440791606942L152.15407349999998,9.358167556047478L152.68608074999997,7.032285881757775L153.218088,7.384844773530999L153.75009525,5.550143405914346L154.28210249999998,9.211731312990228L154.81410975,12.282591639280358L155.346117,11.620743877410927L155.87812424999998,6.886531469345132L156.41013149999998,8.930607293367425L156.94213875,9.275928290605584L157.474146,10.061921678304712L158.00615324999998,11.358134182214776L158.5381605,10.808473785638848L159.07016775,10.245806158304253L159.602175,7.832807507038155L160.13418224999998,11.291681918621101L160.6661895,8.13417665195469L161.19819675,8.951009764194527L161.730204,8.167638802051583L162.26221125,7.140959196805993L162.7942185,9.700708782196084L163.32622575,6.7609172852039725L163.85823299999998,9.520495697975198L164.39024025,7.866636796712914L164.9222475,4.4738999576569L165.45425475,10.384165330648461L165.986262,29.793156460046806L166.51826925,16.692462454557457L167.0502765,14.288275153160134L167.58228375,11.528906534433403L168.114291,11.248097205877343L168.64629825,10.42990043234829L169.1783055,11.674293807268182L169.71031275,6.933997371912041L170.24232,44.94526908111578L170.77432725,17.00783535194401L171.3063345,9.82412012887005L171.83834175,11.404603563070337L172.370349,9.626966175556221L172.90235625,9.223217536926308L173.43436350000002,9.893194818019905L173.96637075,9.690638668060341L174.498378,10.737196259021799L175.03038525,7.447730538368265L175.56239250000002,6.688013854742089L176.09439975,7.552680009126703L176.626407,7.305018139600793L177.15841425000002,10.071047719240228L177.6904215,10.257135036706963L178.22242875,11.345336745500603L178.754436,13.690467023372689L179.28644325000002,9.984979712486306L179.8184505,51.26562936258322L180.35045775,13.783930270195047L180.88246500000002,14.903233946085015L181.41447225000002,11.676653990268747L181.9464795,11.62278936934475L182.47848675,12.825695971965828L183.010494,9.703908141374628L183.54250125,8.374810420990029L184.07450849999998,9.865659349679985L184.60651575,8.531159432649652L185.138523,10.567525325536767L185.67053024999998,9.886009371995964L186.20253749999998,8.57086295557026L186.73454475,9.444078217268029L187.266552,5.6164383239746485L187.79855924999998,7.559078727483788L188.3305665,7.557924860239068L188.86257375,9.534079862356226L189.394581,8.036255281686822L189.92658824999998,9.826060723781625L190.4585955,11.666426530599633L190.99060275,41.74827008557324L191.52261,14.928776371002236L192.05461725,9.280386414051096L192.5866245,5.82067282629017L193.11863175,9.637613223314323L193.65063899999998,10.467138875246087L194.18264625,9.975381634950677L194.7146535,8.972356308221856L195.24666075,6.051813414812127L195.778668,9.053651500463525L196.31067525,10.11767444562916L196.8426825,10.296523868560831L197.37468975,8.75327887725834L197.906697,10.953493918895761L198.43870425,8.967688390731851L198.9707115,7.211869583845178L199.50271874999999,49.30269138526922L200.034726,14.74095825266842L200.56673325,10.843509391069452L201.0987405,9.192587606430093L201.63074775,12.976537889957466L202.162755,10.978511858701745L202.69476225,13.209514176368753L203.2267695,9.407941193103829L203.75877675,8.3818385214806L204.290784,8.561841811656992L204.82279125,6.520965346813241L205.35479850000002,8.85613040757183L205.88680575,11.491405848979989L206.418813,14.101663350582163L206.95082025,13.93241200518612L207.4828275,5.258424787044564L208.01483475,21.625612065315284L208.546842,13.48182684612278L209.07884925000002,10.57329466176037L209.6108565,12.035139563798943L210.14286375,11.188096109151878L210.674871,9.366559317827264L211.20687825000002,10.248376135349313L211.7388855,8.772265238285105L212.27089275,7.746634603261986L212.80290000000002,12.11627741050724L213.33490725000001,8.891480704069176L213.8669145,13.501337692260782L214.39892175,9.145908431530037L214.93092900000002,13.046766446352043L215.46293625,8.980276033401529L215.9949435,8.004786175012628L216.52695075,7.9315680534840025L217.058958,10.665813835382501L217.59096524999998,10.880590488433876L218.12297249999997,5.226168952703515L218.65497975,8.793192194223442L219.186987,9.63226347517971L219.71899424999998,10.95837163043026L220.2510015,8.830797776699105L220.78300875,8.977234019756356L221.31501599999999,8.41944410395626L221.84702324999998,13.99508797597889L222.3790305,9.984297881841698L222.91103775,12.954981551885643L223.44304499999998,6.027267511606255L223.97505225,6.166256066083947L224.5070595,11.010348104953804L225.03906675,12.29523173046116L225.57107399999998,12.221698917865792L226.10308125,8.11366928410534L226.6350885,17.453070762872734L227.16709575,10.146258884191552L227.699103,7.7824044878483205L228.23111025,9.525320960998574L228.7631175,11.350686493635216L229.29512474999999,13.003706218719522L229.827132,11.19743194413189L230.35913925,10.393710959672967L230.8911465,8.124526125907938L231.42315375,9.090417906761209L231.955161,8.896358415603677L232.48716825,10.796987561702768L233.0191755,8.763401439905206L233.55118275,9.524481784820596L234.08319,14.578682559251824L234.61519725,11.914403091192284L235.14720450000002,10.486911963939706L235.67921175,8.438850053072015L236.211219,12.410723351955452L236.74322625,7.492521566867867L237.2752335,11.015540507555047L237.80724075,9.936464839696923L238.339248,11.950225424289743L238.87125525000002,7.9984399051666655L239.4032625,9.683033633947412" style="fill: none;" fill="none"></path></g></g></g></g></g></g><g transform="translate(63, 175)" clip-path="url(#clip_1)"><clipPath id="clip_1"><rect width="265" height="23"></rect></clipPath><g><g><line x1="0" y1="0" x2="0" y2="5" style="visibility: inherit;" fill="rgb(0, 0, 0)" stroke="rgb(204, 204, 204)" stroke-width="1px"></line><line x1="26.600362500000003" y1="0" x2="26.600362500000003" y2="5" style="visibility: inherit;" fill="rgb(0, 0, 0)" stroke="rgb(204, 204, 204)" stroke-width="1px"></line><line x1="53.200725000000006" y1="0" x2="53.200725000000006" y2="5" style="visibility: inherit;" fill="rgb(0, 0, 0)" stroke="rgb(204, 204, 204)" stroke-width="1px"></line><line x1="79.8010875" y1="0" x2="79.8010875" y2="5" style="visibility: inherit;" fill="rgb(0, 0, 0)" stroke="rgb(204, 204, 204)" stroke-width="1px"></line><line x1="106.40145000000001" y1="0" x2="106.40145000000001" y2="5" style="visibility: inherit;" fill="rgb(0, 0, 0)" stroke="rgb(204, 204, 204)" stroke-width="1px"></line><line x1="133.0018125" y1="0" x2="133.0018125" y2="5" style="visibility: inherit;" fill="rgb(0, 0, 0)" stroke="rgb(204, 204, 204)" stroke-width="1px"></line><line x1="159.602175" y1="0" x2="159.602175" y2="5" style="visibility: inherit;" fill="rgb(0, 0, 0)" stroke="rgb(204, 204, 204)" stroke-width="1px"></line><line x1="186.20253749999998" y1="0" x2="186.20253749999998" y2="5" style="visibility: inherit;" fill="rgb(0, 0, 0)" stroke="rgb(204, 204, 204)" stroke-width="1px"></line><line x1="212.80290000000002" y1="0" x2="212.80290000000002" y2="5" style="visibility: inherit;" fill="rgb(0, 0, 0)" stroke="rgb(204, 204, 204)" stroke-width="1px"></line><line x1="239.4032625" y1="0" x2="239.4032625" y2="5" style="visibility: inherit;" fill="rgb(0, 0, 0)" stroke="rgb(204, 204, 204)" stroke-width="1px"></line><line x1="266.003625" y1="0" x2="266.003625" y2="5" style="visibility: inherit;" fill="rgb(0, 0, 0)" stroke="rgb(204, 204, 204)" stroke-width="1px"></line></g><g transform="translate(0, 8)"><text x="0" y="0" dx="0em" dy="0.95em" style="text-anchor: middle; visibility: hidden; font-family: Roboto, sans-serif; font-size: 12px; font-weight: 200;" fill="rgb(33, 33, 33)" stroke="none" stroke-width="1px">-200k</text><text x="26.600362500000003" y="0" dx="0em" dy="0.95em" style="text-anchor: middle; visibility: inherit; font-family: Roboto, sans-serif; font-size: 12px; font-weight: 200;" fill="rgb(33, 33, 33)" stroke="none" stroke-width="1px">0</text><text x="53.200725000000006" y="0" dx="0em" dy="0.95em" style="text-anchor: middle; visibility: hidden; font-family: Roboto, sans-serif; font-size: 12px; font-weight: 200;" fill="rgb(33, 33, 33)" stroke="none" stroke-width="1px">200k</text><text x="79.8010875" y="0" dx="0em" dy="0.95em" style="text-anchor: middle; visibility: inherit; font-family: Roboto, sans-serif; font-size: 12px; font-weight: 200;" fill="rgb(33, 33, 33)" stroke="none" stroke-width="1px">400k</text><text x="106.40145000000001" y="0" dx="0em" dy="0.95em" style="text-anchor: middle; visibility: hidden; font-family: Roboto, sans-serif; font-size: 12px; font-weight: 200;" fill="rgb(33, 33, 33)" stroke="none" stroke-width="1px">600k</text><text x="133.0018125" y="0" dx="0em" dy="0.95em" style="text-anchor: middle; visibility: inherit; font-family: Roboto, sans-serif; font-size: 12px; font-weight: 200;" fill="rgb(33, 33, 33)" stroke="none" stroke-width="1px">800k</text><text x="159.602175" y="0" dx="0em" dy="0.95em" style="text-anchor: middle; visibility: hidden; font-family: Roboto, sans-serif; font-size: 12px; font-weight: 200;" fill="rgb(33, 33, 33)" stroke="none" stroke-width="1px">1M</text><text x="186.20253749999998" y="0" dx="0em" dy="0.95em" style="text-anchor: middle; visibility: inherit; font-family: Roboto, sans-serif; font-size: 12px; font-weight: 200;" fill="rgb(33, 33, 33)" stroke="none" stroke-width="1px">1.2M</text><text x="212.80290000000002" y="0" dx="0em" dy="0.95em" style="text-anchor: middle; visibility: hidden; font-family: Roboto, sans-serif; font-size: 12px; font-weight: 200;" fill="rgb(33, 33, 33)" stroke="none" stroke-width="1px">1.4M</text><text x="239.4032625" y="0" dx="0em" dy="0.95em" style="text-anchor: middle; visibility: inherit; font-family: Roboto, sans-serif; font-size: 12px; font-weight: 200;" fill="rgb(33, 33, 33)" stroke="none" stroke-width="1px">1.6M</text><text x="266.003625" y="0" dx="0em" dy="0.95em" style="text-anchor: middle; visibility: hidden; font-family: Roboto, sans-serif; font-size: 12px; font-weight: 200;" fill="rgb(33, 33, 33)" stroke="none" stroke-width="1px">1.8M</text></g><line x1="0" y1="0" x2="266.003625" y2="0" fill="rgb(0, 0, 0)" stroke="rgb(204, 204, 204)" stroke-width="1px"></line></g></g></g></g></svg>