<svg viewBox="0 0 329.9884338378906 199.98843383789062" xmlns="http://www.w3.org/2000/svg"><g><g><g><g><g><line x1="72.34375" y1="176.988" x2="67.34375" y2="176.988" style="visibility: inherit;" fill="rgb(0, 0, 0)" stroke="rgb(204, 204, 204)" stroke-width="1px"></line><line x1="72.34375" y1="157.32266666666666" x2="67.34375" y2="157.32266666666666" style="visibility: inherit;" fill="rgb(0, 0, 0)" stroke="rgb(204, 204, 204)" stroke-width="1px"></line><line x1="72.34375" y1="137.65733333333333" x2="67.34375" y2="137.65733333333333" style="visibility: inherit;" fill="rgb(0, 0, 0)" stroke="rgb(204, 204, 204)" stroke-width="1px"></line><line x1="72.34375" y1="117.99200000000002" x2="67.34375" y2="117.99200000000002" style="visibility: inherit;" fill="rgb(0, 0, 0)" stroke="rgb(204, 204, 204)" stroke-width="1px"></line><line x1="72.34375" y1="98.32666666666667" x2="67.34375" y2="98.32666666666667" style="visibility: inherit;" fill="rgb(0, 0, 0)" stroke="rgb(204, 204, 204)" stroke-width="1px"></line><line x1="72.34375" y1="78.66133333333333" x2="67.34375" y2="78.66133333333333" style="visibility: inherit;" fill="rgb(0, 0, 0)" stroke="rgb(204, 204, 204)" stroke-width="1px"></line><line x1="72.34375" y1="58.99600000000001" x2="67.34375" y2="58.99600000000001" style="visibility: inherit;" fill="rgb(0, 0, 0)" stroke="rgb(204, 204, 204)" stroke-width="1px"></line><line x1="72.34375" y1="39.330666666666666" x2="67.34375" y2="39.330666666666666" style="visibility: inherit;" fill="rgb(0, 0, 0)" stroke="rgb(204, 204, 204)" stroke-width="1px"></line><line x1="72.34375" y1="19.665333333333344" x2="67.34375" y2="19.665333333333344" style="visibility: inherit;" fill="rgb(0, 0, 0)" stroke="rgb(204, 204, 204)" stroke-width="1px"></line><line x1="72.34375" y1="0" x2="67.34375" y2="0" style="visibility: inherit;" fill="rgb(0, 0, 0)" stroke="rgb(204, 204, 204)" stroke-width="1px"></line></g><g transform="translate(62.34375, 0)"><text x="0" y="176.988" dx="0em" dy="0.3em" style="text-anchor: end; visibility: hidden; font-family: Roboto, sans-serif; font-size: 12px; font-weight: 200;" fill="rgb(33, 33, 33)" stroke="none" stroke-width="1px">1e+3</text><text x="0" y="157.32266666666666" dx="0em" dy="0.3em" style="text-anchor: end; visibility: inherit; font-family: Roboto, sans-serif; font-size: 12px; font-weight: 200;" fill="rgb(33, 33, 33)" stroke="none" stroke-width="1px">1.2e+3</text><text x="0" y="137.65733333333333" dx="0em" dy="0.3em" style="text-anchor: end; visibility: hidden; font-family: Roboto, sans-serif; font-size: 12px; font-weight: 200;" fill="rgb(33, 33, 33)" stroke="none" stroke-width="1px">1.4e+3</text><text x="0" y="117.99200000000002" dx="0em" dy="0.3em" style="text-anchor: end; visibility: inherit; font-family: Roboto, sans-serif; font-size: 12px; font-weight: 200;" fill="rgb(33, 33, 33)" stroke="none" stroke-width="1px">1.6e+3</text><text x="0" y="98.32666666666667" dx="0em" dy="0.3em" style="text-anchor: end; visibility: hidden; font-family: Roboto, sans-serif; font-size: 12px; font-weight: 200;" fill="rgb(33, 33, 33)" stroke="none" stroke-width="1px">1.8e+3</text><text x="0" y="78.66133333333333" dx="0em" dy="0.3em" style="text-anchor: end; visibility: inherit; font-family: Roboto, sans-serif; font-size: 12px; font-weight: 200;" fill="rgb(33, 33, 33)" stroke="none" stroke-width="1px">2e+3</text><text x="0" y="58.99600000000001" dx="0em" dy="0.3em" style="text-anchor: end; visibility: hidden; font-family: Roboto, sans-serif; font-size: 12px; font-weight: 200;" fill="rgb(33, 33, 33)" stroke="none" stroke-width="1px">2.2e+3</text><text x="0" y="39.330666666666666" dx="0em" dy="0.3em" style="text-anchor: end; visibility: inherit; font-family: Roboto, sans-serif; font-size: 12px; font-weight: 200;" fill="rgb(33, 33, 33)" stroke="none" stroke-width="1px">2.4e+3</text><text x="0" y="19.665333333333344" dx="0em" dy="0.3em" style="text-anchor: end; visibility: hidden; font-family: Roboto, sans-serif; font-size: 12px; font-weight: 200;" fill="rgb(33, 33, 33)" stroke="none" stroke-width="1px">2.6e+3</text><text x="0" y="0" dx="0em" dy="0.3em" style="text-anchor: end; visibility: hidden; font-family: Roboto, sans-serif; font-size: 12px; font-weight: 200;" fill="rgb(33, 33, 33)" stroke="none" stroke-width="1px">2.8e+3</text></g><line x1="72.34375" y1="0" x2="72.34375" y2="176.988" fill="rgb(0, 0, 0)" stroke="rgb(204, 204, 204)" stroke-width="1px"></line></g></g><g transform="translate(72, 0)" clip-path="url(#clip_0)"><clipPath id="clip_0"><rect width="257" height="176"></rect></clipPath><g><g><g><line x1="0" y1="0" x2="0" y2="176.988" fill="rgb(0, 0, 0)" stroke="rgb(66, 66, 66)" stroke-width="1px" opacity="0.25"></line><line x1="25.764425000000003" y1="0" x2="25.764425000000003" y2="176.988" fill="rgb(0, 0, 0)" stroke="rgb(66, 66, 66)" stroke-width="1px" opacity="0.25"></line><line x1="51.528850000000006" y1="0" x2="51.528850000000006" y2="176.988" fill="rgb(0, 0, 0)" stroke="rgb(66, 66, 66)" stroke-width="1px" opacity="0.25"></line><line x1="77.293275" y1="0" x2="77.293275" y2="176.988" fill="rgb(0, 0, 0)" stroke="rgb(66, 66, 66)" stroke-width="1px" opacity="0.25"></line><line x1="103.05770000000001" y1="0" x2="103.05770000000001" y2="176.988" fill="rgb(0, 0, 0)" stroke="rgb(66, 66, 66)" stroke-width="1px" opacity="0.25"></line><line x1="128.822125" y1="0" x2="128.822125" y2="176.988" fill="rgb(0, 0, 0)" stroke="rgb(66, 66, 66)" stroke-width="1px" opacity="0.25"></line><line x1="154.58655" y1="0" x2="154.58655" y2="176.988" fill="rgb(0, 0, 0)" stroke="rgb(66, 66, 66)" stroke-width="1px" opacity="0.25"></line><line x1="180.35097499999998" y1="0" x2="180.35097499999998" y2="176.988" fill="rgb(0, 0, 0)" stroke="rgb(66, 66, 66)" stroke-width="1px" opacity="0.25"></line><line x1="206.11540000000002" y1="0" x2="206.11540000000002" y2="176.988" fill="rgb(0, 0, 0)" stroke="rgb(66, 66, 66)" stroke-width="1px" opacity="0.25"></line><line x1="231.879825" y1="0" x2="231.879825" y2="176.988" fill="rgb(0, 0, 0)" stroke="rgb(66, 66, 66)" stroke-width="1px" opacity="0.25"></line><line x1="257.64425" y1="0" x2="257.64425" y2="176.988" fill="rgb(0, 0, 0)" stroke="rgb(66, 66, 66)" stroke-width="1px" opacity="0.25"></line></g><g><line x1="0" y1="176.988" x2="257.64425" y2="176.988" fill="rgb(0, 0, 0)" stroke="rgb(66, 66, 66)" stroke-width="1px" opacity="0.25"></line><line x1="0" y1="157.32266666666666" x2="257.64425" y2="157.32266666666666" fill="rgb(0, 0, 0)" stroke="rgb(66, 66, 66)" stroke-width="1px" opacity="0.25"></line><line x1="0" y1="137.65733333333333" x2="257.64425" y2="137.65733333333333" fill="rgb(0, 0, 0)" stroke="rgb(66, 66, 66)" stroke-width="1px" opacity="0.25"></line><line x1="0" y1="117.99200000000002" x2="257.64425" y2="117.99200000000002" fill="rgb(0, 0, 0)" stroke="rgb(66, 66, 66)" stroke-width="1px" opacity="0.25"></line><line x1="0" y1="98.32666666666667" x2="257.64425" y2="98.32666666666667" fill="rgb(0, 0, 0)" stroke="rgb(66, 66, 66)" stroke-width="1px" opacity="0.25"></line><line x1="0" y1="78.66133333333333" x2="257.64425" y2="78.66133333333333" fill="rgb(0, 0, 0)" stroke="rgb(66, 66, 66)" stroke-width="1px" opacity="0.25"></line><line x1="0" y1="58.99600000000001" x2="257.64425" y2="58.99600000000001" fill="rgb(0, 0, 0)" stroke="rgb(66, 66, 66)" stroke-width="1px" opacity="0.25"></line><line x1="0" y1="39.330666666666666" x2="257.64425" y2="39.330666666666666" fill="rgb(0, 0, 0)" stroke="rgb(66, 66, 66)" stroke-width="1px" opacity="0.25"></line><line x1="0" y1="19.665333333333344" x2="257.64425" y2="19.665333333333344" fill="rgb(0, 0, 0)" stroke="rgb(66, 66, 66)" stroke-width="1px" opacity="0.25"></line><line x1="0" y1="0" x2="257.64425" y2="0" fill="rgb(0, 0, 0)" stroke="rgb(66, 66, 66)" stroke-width="1px" opacity="0.25"></line></g></g></g><g><g><line x1="0" y1="275.31466666666665" x2="257.64425" y2="275.31466666666665" fill="rgb(0, 0, 0)" stroke="rgb(153, 153, 153)" stroke-width="1.5px"></line></g></g><g><g><line x1="25.764425000000003" y1="0" x2="25.764425000000003" y2="176.988" fill="rgb(0, 0, 0)" stroke="rgb(153, 153, 153)" stroke-width="1.5px"></line></g></g><g><g><g><g><g><path stroke="rgb(255, 112, 67)" stroke-width="2px" d="M36.070195000000005,183.81445965058757L36.585483499999995,168.49772645459913L37.100772,145.3453311369875L37.616060499999996,110.80532590933217L38.131349,73.01190713263574L38.6466375,46.04891562301994L39.161926,14.886160215845237L39.6772145,-16.593938756737675L49.467696000000004,-2.5776633528021327L49.9829845,15.44424998899314L50.498273000000005,36.24738732719627L51.0135615,54.353555063228356L51.528850000000006,65.09926370469053L52.0441385,71.42869688951164L52.559427,74.8723808003837L53.074715499999996,77.64654314690169L53.590004,79.1143872214759L54.1052925,79.24781099955229L54.620581,79.52451859973148L55.1358695,79.02192182650542L55.651158,79.70363042923668L56.1664465,79.16871959087528L56.681735,79.31974108785853L57.1970235,78.9777166527151L57.712312000000004,79.51978465829572L58.2276005,79.01908146164409L58.742889000000005,79.38728087698648L59.2581775,79.0969018595252L59.773466000000006,79.98460244904847L60.2887545,80.3992308027624L60.804043,80.49068514832412L61.3193315,95.09790442232782L61.83462,91.78772132006335L62.3499085,87.95307012537134L62.865197,85.37696474188947L63.3804855,83.94929351180035L63.895774,83.0926907737469L64.4110625,82.69672113091482L64.926351,82.34114734521555L65.4416395,82.56044040712935L65.956928,82.4560322442776L66.4722165,81.92141934656657L66.987505,81.40399827460661L67.5027935,80.7789002980973L68.018082,81.15112417885835L68.5333705,99.50589584064834L69.048659,94.94381483772236L69.5639475,89.49275023596672L70.07923600000001,85.75014347491339L70.5945245,83.97654741828137L71.109813,82.44042178430215L71.6251015,81.32209307058129L72.14039000000001,80.72975717568211L72.6556785,80.61033963874257L73.17096699999999,80.10605178324553L73.68625549999999,80.15745506994732L74.201544,80.38495037530174L74.7168325,81.46538355851438L75.23212099999999,81.91699013510862L75.74740949999999,82.6205914143985L76.262698,83.71137351530578L76.7779865,83.22525344251679L77.293275,83.48421073217672L77.80856349999999,83.56092377263938L78.323852,83.13498359691695L78.8391405,82.52544349148353L79.354429,81.92373542822345L79.8697175,82.27066259026739L80.385006,82.12484288749378L80.9002945,82.2733350658296L81.415583,82.8343983728311L81.9308715,83.56434302369868L82.44616,82.94038181421921L82.9614485,82.21202908853154L83.476737,81.57836411978559L83.9920255,81.11950380520467L84.50731400000001,80.96217961645614L85.0226025,80.78912376987368L85.537891,80.6852902619242L86.0531795,80.89830482382118L86.56846800000001,80.9081215609594L87.0837565,80.83535026990897L87.599045,80.98834082861207L88.1143335,80.96214316383393L88.629622,80.78910189830034L89.1449105,80.60661580564688L89.66019899999999,80.92976148338813L90.17548749999999,81.28097155669954L90.690776,81.53102826735304L91.2060645,81.13043296041184L91.721353,81.32271310958045L92.23664149999999,81.39875053241492L92.75193,81.09039698611562L93.2672185,81.6526675250027L93.782507,82.18668318166827L94.29779549999999,82.9003992423343L94.813084,83.17130621206724L95.3283725,103.11717572724037L95.843661,96.63861476967755L96.3589495,91.84687286180652L96.874238,88.42119838375058L97.3895265,87.97835103025032L97.904815,85.94276261815021L98.4201035,84.09211890422345L98.93539200000001,83.06039400920073L99.4506805,81.93006040552046L99.965969,81.95981224331226L100.4812575,82.0563246793207L100.99654600000001,82.35021614092575L101.5118345,82.56588168455544L102.027123,81.83000634406659L102.5424115,81.74245713977331L103.05770000000001,107.805490283864L103.57298850000001,100.12022483698506L104.088277,92.59859623552437L104.6035655,88.04628840798131L105.118854,85.70821037812212L105.6341425,84.26603289353994L106.14943099999999,82.73210506945728L106.66471949999999,82.24438570834104L107.180008,81.5977780916713L107.6952965,81.20981352166945L108.210585,80.544397446335L108.72587349999999,80.18447846780101L109.241162,79.81120441401391L109.7564505,79.58723998174167L110.271739,79.492191989045L110.7870275,79.553155193427L111.302316,79.78638644938954L111.8176045,79.8476638696337L112.332893,100.13972365511356L112.8481815,92.8069488597348L113.36347,87.85665464917422L113.8787585,85.12246212283785L114.394047,83.32462394036939L114.9093355,82.04926769755498L115.42462400000001,81.91334461853296L115.9399125,81.04517743778645L116.455201,80.76026112933855L116.9704895,80.39265801093647L117.48577800000001,80.76205613989522L118.00106650000001,80.7083803506038L118.516355,81.18747354369562L119.0316435,81.47492945955068L119.54693200000001,81.72606434239708L120.06222050000001,82.11272927210491L120.577509,81.63677622992964L121.09279749999999,82.01982573795779L121.608086,82.13166344277467L122.1233745,82.19876606566478L122.638663,81.45241430606553L123.15395149999999,81.830547250306L123.66924,99.52024301685024L124.1845285,95.54238314344349L124.699817,90.32385921939944L125.21510549999999,86.87809953163968L125.730394,85.08595838565046L126.2456825,84.12866569805695L126.760971,83.39696741883417L127.2762595,83.03660978463382L127.791548,83.48901653744697L128.3068365,83.64246858913486L128.822125,83.81320115348092L129.3374135,84.7022540254219L129.852702,86.1402910819198L130.3679905,86.60980664915186L130.883279,87.56013732282445L131.3985675,88.366319727028L131.913856,89.8332958362168L132.4291445,91.22478016839678L132.944433,94.65549476770472L133.4597215,97.97250486062283L133.97501,113.2958069163737L134.4902985,114.46633214982423L135.005587,118.7477379565612L135.52087550000002,123.9124054406034L136.036164,132.3208459310287L136.5514525,137.95587022528392L137.066741,141.218892801837L137.5820295,143.7273356811022L138.097318,144.7604334086613L138.6126065,145.14430804519677L139.127895,145.53195549378472L139.64318350000002,145.8825359629375L140.15847200000002,152.26779891109584L140.67376050000001,151.26128467999084L141.189049,149.00548814132782L141.7043375,147.5733488847967L142.219626,147.38268666421135L142.7349145,147.03230533186016L143.250203,146.2714471991161L143.76549150000002,145.93292431946966L144.28078000000002,145.80847192501514L144.79606850000002,145.61580848834242L145.311357,145.57887175967213L145.82664549999998,145.7140323891366L146.34193399999998,145.244499433482L146.85722249999998,145.3167556600892L147.37251099999997,145.24211739605354L147.8877995,145.0006811042988L148.403088,144.89514999591262L148.9183765,145.10714599754758L149.433665,144.99835959852854L149.9489535,144.93308775911714L150.46424199999998,144.81526332213693L150.97953049999998,144.39059265994882L151.49481899999998,144.68641959596928L152.0101075,144.74592375758155L152.525396,144.27032758788226L153.0406845,144.65359121939605L153.555973,144.56890406497098L154.0712615,144.67541443898259L154.58655,144.73932066338955L155.10183849999999,145.1709710647004L155.61712699999998,145.03665463882024L156.1324155,145.03472611662548L156.647704,145.0335690033086L157.1629925,145.66216540198516L157.678281,145.4100325745244L158.1935695,145.21942221138133L158.708858,145.2623786601621L159.2241465,145.28815252943062L159.739435,145.22495551765837L160.2547235,145.423021310595L160.770012,147.9803621196903L161.2853005,147.6662252718142L161.800589,146.6911298297552L162.3158775,145.90941923118643L162.831166,145.75503820537853L163.3464545,145.38709492322712L163.861743,145.0090062872696L164.37703150000002,144.86081443902845L164.89232,152.7953553300837L165.4076085,150.8305358647169L165.922897,148.86503085216347L166.4381855,147.76438917796474L166.953474,146.98601217344552L167.4687625,146.4796553040673L167.984051,145.78253451577373L168.49933950000002,145.87556070946422L169.01462800000002,145.42007775901186L169.5299165,145.50076398874043L170.045205,145.7851597265776L170.5604935,145.7198131692799L171.075782,146.23123456823458L171.5910705,146.38076474094075L172.106359,146.70646684456446L172.62164750000002,146.90188810673868L173.13693600000002,146.86181819737652L173.65222450000002,146.36580825175926L174.167513,153.2657142843889L174.6828015,150.56212190396667L175.19809,148.70398247571336L175.7133785,147.628429485428L176.228667,146.78644435792344L176.74395550000003,146.4779066147541L177.259244,146.09613063551913L177.7745325,145.94572638131146L178.289821,145.69816116212024L178.8051095,145.51029136393876L179.32039799999998,145.39756948502992L179.83568649999998,145.40859769101797L180.35097499999998,145.21856128127746L180.8662635,145.3798541020998L181.381552,145.20131512792653L181.8968405,145.17285307675593L182.412129,144.80179984605354L182.9274175,144.7364905742988L183.442706,144.93328901124596L183.95799449999998,144.6187307400809L184.47328299999998,144.66597977738186L184.9885715,152.12782519976244L185.50386,151.45261511985746L186.0191485,150.30020640524782L186.534437,148.78281717648204L187.0497255,147.7150609725559L187.565014,147.34972191686686L188.0803025,146.81587315012013L188.59559099999998,146.5742252234054L189.1108795,146.0359298007099L189.626168,145.87027521375927L190.1414565,146.00686646158886L190.656745,145.77417587695334L191.1720335,145.59523085950534L191.687322,145.64518651570322L192.2026105,145.32118390942193L192.717899,145.5200890123198L193.23318749999999,152.83694407405858L193.748476,149.9508837777685L194.2637645,147.78661026666109L194.779053,146.48804615999668L195.2943415,145.63024636266465L195.80963,145.39088115093213L196.3249185,145.44391535722593L196.840207,145.35774388100222L197.3554955,145.14871832860132L197.87078400000001,145.1412949971608L198.3860725,145.49081699829648L198.901361,145.73986086564457L199.4166495,145.57464185272008L199.931938,146.4981077782987L200.4472265,146.50155800031257L200.962515,147.52622546685419L201.4778035,146.84311394677917L201.99309200000002,146.35458570140085L202.50838050000002,145.66816208750717L203.023669,145.4136305858376L203.5389575,145.57555701816923L204.054246,145.39739821090154L204.5695345,145.4478255932076L205.084823,145.24209802259125L205.6001115,145.43330681355474L206.11540000000002,145.15472542146617L206.63068850000002,145.69552858621304L207.14597700000002,145.46938115172784L207.6612655,145.29436202437003L208.176554,145.228681214622L208.6918425,144.83529672877322L209.207131,145.03190337059726L209.72241949999997,144.9138833556917L210.237708,145.000394013415L210.7529965,145.36694574138235L211.268285,145.07557811149604L211.7835735,145.17607220023098L212.29886199999999,145.47235265347192L212.81415049999998,145.68945159208317L213.32943899999998,145.30841228858324L213.84472749999998,145.31577270648327L214.360016,145.59550362388995L214.8753045,145.64535017433397L215.390593,145.75391943793372L215.9058815,145.70106899609357L216.42117,145.1580600643228L216.9364585,145.34355337192702L217.45174699999998,145.49418002315622L217.96703549999998,145.42723334722706L218.482324,145.1117506750029L218.9976125,145.07978373833507L219.512901,147.02713690966772L220.0281895,146.34700747913396L220.543478,145.66361515414704L221.0587665,145.4895637591549L221.574055,145.3851329221596L222.08934349999998,145.2438130866291L222.604632,145.19835185197743L223.1199205,145.3677284445198L223.635209,145.0367170667119L224.1504975,145.27074757336047L224.665786,145.21451254401626L225.1810745,145.02344885974307L225.696363,144.71215731584584L226.2116515,145.19400372284085L226.72694,147.25299156703784L227.2422285,148.0557469402227L227.757517,147.90810949746694L228.2728055,147.93751903181348L228.788094,148.15181808575477L229.3033825,148.59504285145286L229.818671,148.50700171087172L230.3339595,147.5495716931897L230.84924800000002,147.25042834924716L231.3645365,146.87428900954828L231.879825,147.04191207239563" style="fill: none;" fill="none"></path></g></g></g></g><g opacity="0.2"><g><g><g><path stroke="rgb(255, 112, 67)" stroke-width="2px" d="M35.5549065,183.08425333333335L36.070195000000005,170.30178666666666L36.585483499999995,145.52346666666665L37.100772,110.6175L37.616060499999996,58.99600000000001L38.131349,16.322226666666662L38.6466375,5.604619999999992L39.161926,-31.85783999999999L46.8912535,-70.69687333333334L47.406542,17.698799999999995L47.9218305,-36.479193333333335L48.9524075,-0.7866133333333384L49.467696000000004,23.696726666666656L49.9829845,42.47712L50.498273000000005,67.45209333333332L51.0135615,81.51280666666668L51.528850000000006,81.21782666666667L52.0441385,80.92284666666666L52.559427,80.03790666666666L53.074715499999996,81.80778666666666L53.590004,81.31615333333333L54.1052925,79.44794666666667L54.620581,79.93957999999999L55.1358695,78.26802666666666L55.651158,80.72619333333334L56.1664465,78.36635333333334L56.681735,79.54627333333333L57.1970235,78.46468L57.712312000000004,80.33288666666667L58.2276005,78.26802666666666L58.742889000000005,79.93957999999999L59.2581775,78.66133333333333L59.773466000000006,81.31615333333333L60.2887545,81.02117333333332L60.804043,80.62786666666668L61.3193315,117.00873333333332L61.83462,86.82244666666666L62.3499085,82.20109333333333L62.865197,81.51280666666668L63.3804855,81.80778666666666L63.895774,81.80778666666666L64.4110625,82.10276666666667L64.926351,81.80778666666666L65.4416395,82.88938L65.956928,82.29942L66.4722165,81.1195L66.987505,80.62786666666668L67.5027935,79.84125333333334L68.018082,81.70946L68.5333705,127.03805333333335L69.048659,88.10069333333333L69.5639475,81.31615333333333L70.07923600000001,80.13623333333332L70.5945245,81.31615333333333L71.109813,80.13623333333332L71.6251015,79.6446L72.14039000000001,79.84125333333334L72.6556785,80.43121333333333L73.17096699999999,79.34962L73.68625549999999,80.23456L74.201544,80.72619333333334L74.7168325,83.08603333333333L75.23212099999999,82.59440000000001L75.74740949999999,83.67599333333332L76.262698,85.34754666666666L76.7779865,82.49607333333334L77.293275,83.87264666666667L77.80856349999999,83.67599333333332L78.323852,82.49607333333334L78.8391405,81.61113333333334L79.354429,81.02117333333332L79.8697175,82.79105333333332L80.385006,81.90611333333332L80.9002945,82.49607333333334L81.415583,83.67599333333332L81.9308715,84.65926L82.44616,82.00444L82.9614485,81.1195L83.476737,80.62786666666668L83.9920255,80.43121333333333L84.50731400000001,80.72619333333334L85.0226025,80.52954L85.537891,80.52954L86.0531795,81.21782666666667L86.56846800000001,80.92284666666666L87.0837565,80.72619333333334L87.599045,81.21782666666667L88.1143335,80.92284666666666L88.629622,80.52954L89.1449105,80.33288666666667L89.66019899999999,81.41448L90.17548749999999,81.80778666666666L90.690776,81.90611333333332L91.2060645,80.52954L91.721353,81.61113333333334L92.23664149999999,81.51280666666668L92.75193,80.62786666666668L93.2672185,82.49607333333334L93.782507,82.98770666666667L94.29779549999999,83.97097333333333L94.813084,83.57766666666666L95.3283725,133.03598L95.843661,86.92077333333334L96.3589495,84.65926L96.874238,83.28268666666666L97.3895265,87.31407999999999L97.904815,82.88938L98.4201035,81.31615333333333L98.93539200000001,81.51280666666668L99.4506805,80.23456L99.965969,82.00444L100.4812575,82.20109333333333L100.99654600000001,82.79105333333332L101.5118345,82.88938L102.027123,80.72619333333334L102.5424115,81.61113333333334L103.05770000000001,146.90004L103.57298850000001,88.59232666666666L104.088277,81.31615333333333L104.6035655,81.21782666666667L105.118854,82.20109333333333L105.6341425,82.10276666666667L106.14943099999999,80.43121333333333L106.66471949999999,81.51280666666668L107.180008,80.62786666666668L107.6952965,80.62786666666668L108.210585,79.54627333333333L108.72587349999999,79.6446L109.241162,79.25129333333334L109.7564505,79.25129333333334L110.271739,79.34962L110.7870275,79.6446L111.302316,80.13623333333332L111.8176045,79.93957999999999L112.332893,130.57781333333332L112.8481815,81.80778666666666L113.36347,80.43121333333333L113.8787585,81.02117333333332L114.394047,80.62786666666668L114.9093355,80.13623333333332L115.42462400000001,81.70946L115.9399125,79.74292666666668L116.455201,80.33288666666667L116.9704895,79.84125333333334L117.48577800000001,81.31615333333333L118.00106650000001,80.62786666666668L118.516355,81.90611333333332L119.0316435,81.90611333333332L119.54693200000001,82.10276666666667L120.06222050000001,82.69272666666666L120.577509,80.92284666666666L121.09279749999999,82.59440000000001L121.608086,82.29942L122.1233745,82.29942L122.638663,80.33288666666667L123.15395149999999,82.39774666666666L123.66924,126.05478666666666L124.1845285,89.57559333333334L124.699817,82.49607333333334L125.21510549999999,81.70946L125.730394,82.39774666666666L126.2456825,82.69272666666666L126.760971,82.29942L127.2762595,82.49607333333334L127.791548,84.16762666666666L128.3068365,83.87264666666667L128.822125,84.0693L129.3374135,86.03583333333334L129.852702,88.29734666666667L130.3679905,87.31407999999999L130.883279,88.98563333333333L131.3985675,89.57559333333334L131.913856,92.03376L132.4291445,93.31200666666668L132.944433,99.80156666666666L133.4597215,102.94802L133.97501,136.28076000000001L134.4902985,116.22212000000002L135.005587,125.16984666666666L135.52087550000002,131.65940666666665L136.036164,144.93350666666666L136.5514525,146.40840666666665L137.066741,146.11342666666667L137.5820295,147.49L138.097318,146.31008L138.6126065,145.72012L139.127895,146.11342666666667L139.64318350000002,146.40840666666665L140.15847200000002,161.84569333333332L140.67376050000001,149.75151333333335L141.189049,145.62179333333333L141.7043375,145.42514L142.219626,147.09669333333335L142.7349145,146.50673333333333L143.250203,145.13016000000002L143.76549150000002,145.42514L144.28078000000002,145.62179333333333L144.79606850000002,145.32681333333335L145.311357,145.52346666666665L145.82664549999998,145.91677333333334L146.34193399999998,144.5402L146.85722249999998,145.42514L147.37251099999997,145.13016000000002L147.8877995,144.63852666666665L148.403088,144.73685333333333L148.9183765,145.42514L149.433665,144.83518L149.9489535,144.83518L150.46424199999998,144.63852666666665L150.97953049999998,143.75358666666665L151.49481899999998,145.13016000000002L152.0101075,144.83518L152.525396,143.55693333333335L153.0406845,145.22848666666667L153.555973,144.44187333333335L154.0712615,144.83518L154.58655,144.83518L155.10183849999999,145.81844666666666L155.61712699999998,144.83518L156.1324155,145.03183333333334L156.647704,145.03183333333334L157.1629925,146.60506L157.678281,145.03183333333334L158.1935695,144.93350666666666L158.708858,145.32681333333335L159.2241465,145.32681333333335L159.739435,145.13016000000002L160.2547235,145.72012L160.770012,151.81637333333333L161.2853005,147.19502L161.800589,145.22848666666667L162.3158775,144.73685333333333L162.831166,145.52346666666665L163.3464545,144.83518L163.861743,144.44187333333335L164.37703150000002,144.63852666666665L164.89232,164.69716666666667L165.4076085,147.88330666666667L165.922897,145.91677333333334L166.4381855,146.11342666666667L166.953474,145.81844666666666L167.4687625,145.72012L167.984051,144.73685333333333L168.49933950000002,146.0151L169.01462800000002,144.73685333333333L169.5299165,145.62179333333333L170.045205,146.21175333333335L170.5604935,145.62179333333333L171.075782,146.99836666666664L171.5910705,146.60506L172.106359,147.19502L172.62164750000002,147.19502L173.13693600000002,146.80171333333334L173.65222450000002,145.62179333333333L174.167513,163.61557333333332L174.6828015,146.50673333333333L175.19809,145.91677333333334L175.7133785,146.0151L176.228667,145.52346666666665L176.74395550000003,146.0151L177.259244,145.52346666666665L177.7745325,145.72012L178.289821,145.32681333333335L178.8051095,145.22848666666667L179.32039799999998,145.22848666666667L179.83568649999998,145.42514L180.35097499999998,144.93350666666666L180.8662635,145.62179333333333L181.381552,144.93350666666666L181.8968405,145.13016000000002L182.412129,144.24522L182.9274175,144.63852666666665L183.442706,145.22848666666667L183.95799449999998,144.14689333333334L184.47328299999998,144.73685333333333L184.9885715,163.32059333333333L185.50386,150.4398L186.0191485,148.57159333333334L186.534437,146.50673333333333L187.0497255,146.11342666666667L187.565014,146.80171333333334L188.0803025,146.0151L188.59559099999998,146.21175333333335L189.1108795,145.22848666666667L189.626168,145.62179333333333L190.1414565,146.21175333333335L190.656745,145.42514L191.1720335,145.32681333333335L191.687322,145.72012L192.2026105,144.83518L192.717899,145.81844666666666L193.23318749999999,163.81222666666667L193.748476,145.62179333333333L194.2637645,144.5402L194.779053,144.5402L195.2943415,144.34354666666667L195.80963,145.03183333333334L196.3249185,145.52346666666665L196.840207,145.22848666666667L197.3554955,144.83518L197.87078400000001,145.13016000000002L198.3860725,146.0151L198.901361,146.11342666666667L199.4166495,145.32681333333335L199.931938,147.88330666666667L200.4472265,146.50673333333333L200.962515,149.06322666666665L201.4778035,145.81844666666666L201.99309200000002,145.62179333333333L202.50838050000002,144.63852666666665L203.023669,145.03183333333334L203.5389575,145.81844666666666L204.054246,145.13016000000002L204.5695345,145.52346666666665L205.084823,144.93350666666666L205.6001115,145.72012L206.11540000000002,144.73685333333333L206.63068850000002,146.50673333333333L207.14597700000002,145.13016000000002L207.6612655,145.03183333333334L208.176554,145.13016000000002L208.6918425,144.24522L209.207131,145.32681333333335L209.72241949999997,144.73685333333333L210.237708,145.13016000000002L210.7529965,145.91677333333334L211.268285,144.63852666666665L211.7835735,145.32681333333335L212.29886199999999,145.91677333333334L212.81415049999998,146.0151L213.32943899999998,144.73685333333333L213.84472749999998,145.32681333333335L214.360016,146.0151L214.8753045,145.72012L215.390593,145.91677333333334L215.9058815,145.62179333333333L216.42117,144.34354666666667L216.9364585,145.62179333333333L217.45174699999998,145.72012L217.96703549999998,145.32681333333335L218.482324,144.63852666666665L218.9976125,145.03183333333334L219.512901,149.94816666666665L220.0281895,145.32681333333335L220.543478,144.63852666666665L221.0587665,145.22848666666667L221.574055,145.22848666666667L222.08934349999998,145.03183333333334L222.604632,145.13016000000002L223.1199205,145.62179333333333L223.635209,144.5402L224.1504975,145.62179333333333L224.665786,145.13016000000002L225.1810745,144.73685333333333L225.696363,144.24522L226.2116515,145.91677333333334L226.72694,150.34147333333334L227.2422285,149.25987999999998L227.757517,147.68665333333334L228.2728055,147.98163333333335L228.788094,148.47326666666666L229.3033825,149.25987999999998L229.818671,148.37494L230.3339595,146.11342666666667L230.84924800000002,146.80171333333334L231.3645365,146.31008L231.879825,147.29334666666665" style="fill: none;" fill="none"></path></g></g></g></g></g></g><g transform="translate(72, 176)" clip-path="url(#clip_1)"><clipPath id="clip_1"><rect width="257" height="22"></rect></clipPath><g><g><line x1="0" y1="0" x2="0" y2="5" style="visibility: inherit;" fill="rgb(0, 0, 0)" stroke="rgb(204, 204, 204)" stroke-width="1px"></line><line x1="25.764425000000003" y1="0" x2="25.764425000000003" y2="5" style="visibility: inherit;" fill="rgb(0, 0, 0)" stroke="rgb(204, 204, 204)" stroke-width="1px"></line><line x1="51.528850000000006" y1="0" x2="51.528850000000006" y2="5" style="visibility: inherit;" fill="rgb(0, 0, 0)" stroke="rgb(204, 204, 204)" stroke-width="1px"></line><line x1="77.293275" y1="0" x2="77.293275" y2="5" style="visibility: inherit;" fill="rgb(0, 0, 0)" stroke="rgb(204, 204, 204)" stroke-width="1px"></line><line x1="103.05770000000001" y1="0" x2="103.05770000000001" y2="5" style="visibility: inherit;" fill="rgb(0, 0, 0)" stroke="rgb(204, 204, 204)" stroke-width="1px"></line><line x1="128.822125" y1="0" x2="128.822125" y2="5" style="visibility: inherit;" fill="rgb(0, 0, 0)" stroke="rgb(204, 204, 204)" stroke-width="1px"></line><line x1="154.58655" y1="0" x2="154.58655" y2="5" style="visibility: inherit;" fill="rgb(0, 0, 0)" stroke="rgb(204, 204, 204)" stroke-width="1px"></line><line x1="180.35097499999998" y1="0" x2="180.35097499999998" y2="5" style="visibility: inherit;" fill="rgb(0, 0, 0)" stroke="rgb(204, 204, 204)" stroke-width="1px"></line><line x1="206.11540000000002" y1="0" x2="206.11540000000002" y2="5" style="visibility: inherit;" fill="rgb(0, 0, 0)" stroke="rgb(204, 204, 204)" stroke-width="1px"></line><line x1="231.879825" y1="0" x2="231.879825" y2="5" style="visibility: inherit;" fill="rgb(0, 0, 0)" stroke="rgb(204, 204, 204)" stroke-width="1px"></line><line x1="257.64425" y1="0" x2="257.64425" y2="5" style="visibility: inherit;" fill="rgb(0, 0, 0)" stroke="rgb(204, 204, 204)" stroke-width="1px"></line></g><g transform="translate(0, 8)"><text x="0" y="0" dx="0em" dy="0.95em" style="text-anchor: middle; visibility: hidden; font-family: Roboto, sans-serif; font-size: 12px; font-weight: 200;" fill="rgb(33, 33, 33)" stroke="none" stroke-width="1px">-200k</text><text x="25.764425000000003" y="0" dx="0em" dy="0.95em" style="text-anchor: middle; visibility: inherit; font-family: Roboto, sans-serif; font-size: 12px; font-weight: 200;" fill="rgb(33, 33, 33)" stroke="none" stroke-width="1px">0</text><text x="51.528850000000006" y="0" dx="0em" dy="0.95em" style="text-anchor: middle; visibility: hidden; font-family: Roboto, sans-serif; font-size: 12px; font-weight: 200;" fill="rgb(33, 33, 33)" stroke="none" stroke-width="1px">200k</text><text x="77.293275" y="0" dx="0em" dy="0.95em" style="text-anchor: middle; visibility: inherit; font-family: Roboto, sans-serif; font-size: 12px; font-weight: 200;" fill="rgb(33, 33, 33)" stroke="none" stroke-width="1px">400k</text><text x="103.05770000000001" y="0" dx="0em" dy="0.95em" style="text-anchor: middle; visibility: hidden; font-family: Roboto, sans-serif; font-size: 12px; font-weight: 200;" fill="rgb(33, 33, 33)" stroke="none" stroke-width="1px">600k</text><text x="128.822125" y="0" dx="0em" dy="0.95em" style="text-anchor: middle; visibility: inherit; font-family: Roboto, sans-serif; font-size: 12px; font-weight: 200;" fill="rgb(33, 33, 33)" stroke="none" stroke-width="1px">800k</text><text x="154.58655" y="0" dx="0em" dy="0.95em" style="text-anchor: middle; visibility: hidden; font-family: Roboto, sans-serif; font-size: 12px; font-weight: 200;" fill="rgb(33, 33, 33)" stroke="none" stroke-width="1px">1M</text><text x="180.35097499999998" y="0" dx="0em" dy="0.95em" style="text-anchor: middle; visibility: inherit; font-family: Roboto, sans-serif; font-size: 12px; font-weight: 200;" fill="rgb(33, 33, 33)" stroke="none" stroke-width="1px">1.2M</text><text x="206.11540000000002" y="0" dx="0em" dy="0.95em" style="text-anchor: middle; visibility: hidden; font-family: Roboto, sans-serif; font-size: 12px; font-weight: 200;" fill="rgb(33, 33, 33)" stroke="none" stroke-width="1px">1.4M</text><text x="231.879825" y="0" dx="0em" dy="0.95em" style="text-anchor: middle; visibility: inherit; font-family: Roboto, sans-serif; font-size: 12px; font-weight: 200;" fill="rgb(33, 33, 33)" stroke="none" stroke-width="1px">1.6M</text><text x="257.64425" y="0" dx="0em" dy="0.95em" style="text-anchor: middle; visibility: hidden; font-family: Roboto, sans-serif; font-size: 12px; font-weight: 200;" fill="rgb(33, 33, 33)" stroke="none" stroke-width="1px">1.8M</text></g><line x1="0" y1="0" x2="257.64425" y2="0" fill="rgb(0, 0, 0)" stroke="rgb(204, 204, 204)" stroke-width="1px"></line></g></g></g></g></svg>