<svg viewBox="0 0 329.9884338378906 199.98843383789062" xmlns="http://www.w3.org/2000/svg"><g><g><g><g><g><line x1="51.5625" y1="176.988" x2="46.5625" y2="176.988" style="visibility: inherit;" fill="rgb(0, 0, 0)" stroke="rgb(204, 204, 204)" stroke-width="1px"></line><line x1="51.5625" y1="163.37353846153846" x2="46.5625" y2="163.37353846153846" style="visibility: inherit;" fill="rgb(0, 0, 0)" stroke="rgb(204, 204, 204)" stroke-width="1px"></line><line x1="51.5625" y1="149.7590769230769" x2="46.5625" y2="149.7590769230769" style="visibility: inherit;" fill="rgb(0, 0, 0)" stroke="rgb(204, 204, 204)" stroke-width="1px"></line><line x1="51.5625" y1="136.1446153846154" x2="46.5625" y2="136.1446153846154" style="visibility: inherit;" fill="rgb(0, 0, 0)" stroke="rgb(204, 204, 204)" stroke-width="1px"></line><line x1="51.5625" y1="122.53015384615387" x2="46.5625" y2="122.53015384615387" style="visibility: inherit;" fill="rgb(0, 0, 0)" stroke="rgb(204, 204, 204)" stroke-width="1px"></line><line x1="51.5625" y1="108.91569230769231" x2="46.5625" y2="108.91569230769231" style="visibility: inherit;" fill="rgb(0, 0, 0)" stroke="rgb(204, 204, 204)" stroke-width="1px"></line><line x1="51.5625" y1="95.30123076923077" x2="46.5625" y2="95.30123076923077" style="visibility: inherit;" fill="rgb(0, 0, 0)" stroke="rgb(204, 204, 204)" stroke-width="1px"></line><line x1="51.5625" y1="81.68676923076923" x2="46.5625" y2="81.68676923076923" style="visibility: inherit;" fill="rgb(0, 0, 0)" stroke="rgb(204, 204, 204)" stroke-width="1px"></line><line x1="51.5625" y1="68.07230769230769" x2="46.5625" y2="68.07230769230769" style="visibility: inherit;" fill="rgb(0, 0, 0)" stroke="rgb(204, 204, 204)" stroke-width="1px"></line><line x1="51.5625" y1="54.45784615384618" x2="46.5625" y2="54.45784615384618" style="visibility: inherit;" fill="rgb(0, 0, 0)" stroke="rgb(204, 204, 204)" stroke-width="1px"></line><line x1="51.5625" y1="40.84338461538463" x2="46.5625" y2="40.84338461538463" style="visibility: inherit;" fill="rgb(0, 0, 0)" stroke="rgb(204, 204, 204)" stroke-width="1px"></line><line x1="51.5625" y1="27.228923076923078" x2="46.5625" y2="27.228923076923078" style="visibility: inherit;" fill="rgb(0, 0, 0)" stroke="rgb(204, 204, 204)" stroke-width="1px"></line><line x1="51.5625" y1="13.61446153846155" x2="46.5625" y2="13.61446153846155" style="visibility: inherit;" fill="rgb(0, 0, 0)" stroke="rgb(204, 204, 204)" stroke-width="1px"></line><line x1="51.5625" y1="0" x2="46.5625" y2="0" style="visibility: inherit;" fill="rgb(0, 0, 0)" stroke="rgb(204, 204, 204)" stroke-width="1px"></line></g><g transform="translate(41.5625, 0)"><text x="0" y="176.988" dx="0em" dy="0.3em" style="text-anchor: end; visibility: hidden; font-family: Roboto, sans-serif; font-size: 12px; font-weight: 200;" fill="rgb(33, 33, 33)" stroke="none" stroke-width="1px">-5</text><text x="0" y="163.37353846153846" dx="0em" dy="0.3em" style="text-anchor: end; visibility: inherit; font-family: Roboto, sans-serif; font-size: 12px; font-weight: 200;" fill="rgb(33, 33, 33)" stroke="none" stroke-width="1px">-4.8</text><text x="0" y="149.7590769230769" dx="0em" dy="0.3em" style="text-anchor: end; visibility: hidden; font-family: Roboto, sans-serif; font-size: 12px; font-weight: 200;" fill="rgb(33, 33, 33)" stroke="none" stroke-width="1px">-4.6</text><text x="0" y="136.1446153846154" dx="0em" dy="0.3em" style="text-anchor: end; visibility: inherit; font-family: Roboto, sans-serif; font-size: 12px; font-weight: 200;" fill="rgb(33, 33, 33)" stroke="none" stroke-width="1px">-4.4</text><text x="0" y="122.53015384615387" dx="0em" dy="0.3em" style="text-anchor: end; visibility: hidden; font-family: Roboto, sans-serif; font-size: 12px; font-weight: 200;" fill="rgb(33, 33, 33)" stroke="none" stroke-width="1px">-4.2</text><text x="0" y="108.91569230769231" dx="0em" dy="0.3em" style="text-anchor: end; visibility: inherit; font-family: Roboto, sans-serif; font-size: 12px; font-weight: 200;" fill="rgb(33, 33, 33)" stroke="none" stroke-width="1px">-4</text><text x="0" y="95.30123076923077" dx="0em" dy="0.3em" style="text-anchor: end; visibility: hidden; font-family: Roboto, sans-serif; font-size: 12px; font-weight: 200;" fill="rgb(33, 33, 33)" stroke="none" stroke-width="1px">-3.8</text><text x="0" y="81.68676923076923" dx="0em" dy="0.3em" style="text-anchor: end; visibility: inherit; font-family: Roboto, sans-serif; font-size: 12px; font-weight: 200;" fill="rgb(33, 33, 33)" stroke="none" stroke-width="1px">-3.6</text><text x="0" y="68.07230769230769" dx="0em" dy="0.3em" style="text-anchor: end; visibility: hidden; font-family: Roboto, sans-serif; font-size: 12px; font-weight: 200;" fill="rgb(33, 33, 33)" stroke="none" stroke-width="1px">-3.4</text><text x="0" y="54.45784615384618" dx="0em" dy="0.3em" style="text-anchor: end; visibility: inherit; font-family: Roboto, sans-serif; font-size: 12px; font-weight: 200;" fill="rgb(33, 33, 33)" stroke="none" stroke-width="1px">-3.2</text><text x="0" y="40.84338461538463" dx="0em" dy="0.3em" style="text-anchor: end; visibility: hidden; font-family: Roboto, sans-serif; font-size: 12px; font-weight: 200;" fill="rgb(33, 33, 33)" stroke="none" stroke-width="1px">-3</text><text x="0" y="27.228923076923078" dx="0em" dy="0.3em" style="text-anchor: end; visibility: inherit; font-family: Roboto, sans-serif; font-size: 12px; font-weight: 200;" fill="rgb(33, 33, 33)" stroke="none" stroke-width="1px">-2.8</text><text x="0" y="13.61446153846155" dx="0em" dy="0.3em" style="text-anchor: end; visibility: hidden; font-family: Roboto, sans-serif; font-size: 12px; font-weight: 200;" fill="rgb(33, 33, 33)" stroke="none" stroke-width="1px">-2.6</text><text x="0" y="0" dx="0em" dy="0.3em" style="text-anchor: end; visibility: hidden; font-family: Roboto, sans-serif; font-size: 12px; font-weight: 200;" fill="rgb(33, 33, 33)" stroke="none" stroke-width="1px">-2.4</text></g><line x1="51.5625" y1="0" x2="51.5625" y2="176.988" fill="rgb(0, 0, 0)" stroke="rgb(204, 204, 204)" stroke-width="1px"></line></g></g><g transform="translate(51, 0)" clip-path="url(#clip_0)"><clipPath id="clip_0"><rect width="278" height="176"></rect></clipPath><g><g><g><line x1="0" y1="0" x2="0" y2="176.988" fill="rgb(0, 0, 0)" stroke="rgb(66, 66, 66)" stroke-width="1px" opacity="0.25"></line><line x1="27.842550000000003" y1="0" x2="27.842550000000003" y2="176.988" fill="rgb(0, 0, 0)" stroke="rgb(66, 66, 66)" stroke-width="1px" opacity="0.25"></line><line x1="55.685100000000006" y1="0" x2="55.685100000000006" y2="176.988" fill="rgb(0, 0, 0)" stroke="rgb(66, 66, 66)" stroke-width="1px" opacity="0.25"></line><line x1="83.52765" y1="0" x2="83.52765" y2="176.988" fill="rgb(0, 0, 0)" stroke="rgb(66, 66, 66)" stroke-width="1px" opacity="0.25"></line><line x1="111.37020000000001" y1="0" x2="111.37020000000001" y2="176.988" fill="rgb(0, 0, 0)" stroke="rgb(66, 66, 66)" stroke-width="1px" opacity="0.25"></line><line x1="139.21275" y1="0" x2="139.21275" y2="176.988" fill="rgb(0, 0, 0)" stroke="rgb(66, 66, 66)" stroke-width="1px" opacity="0.25"></line><line x1="167.0553" y1="0" x2="167.0553" y2="176.988" fill="rgb(0, 0, 0)" stroke="rgb(66, 66, 66)" stroke-width="1px" opacity="0.25"></line><line x1="194.89784999999998" y1="0" x2="194.89784999999998" y2="176.988" fill="rgb(0, 0, 0)" stroke="rgb(66, 66, 66)" stroke-width="1px" opacity="0.25"></line><line x1="222.74040000000002" y1="0" x2="222.74040000000002" y2="176.988" fill="rgb(0, 0, 0)" stroke="rgb(66, 66, 66)" stroke-width="1px" opacity="0.25"></line><line x1="250.58295" y1="0" x2="250.58295" y2="176.988" fill="rgb(0, 0, 0)" stroke="rgb(66, 66, 66)" stroke-width="1px" opacity="0.25"></line><line x1="278.4255" y1="0" x2="278.4255" y2="176.988" fill="rgb(0, 0, 0)" stroke="rgb(66, 66, 66)" stroke-width="1px" opacity="0.25"></line></g><g><line x1="0" y1="176.988" x2="278.4255" y2="176.988" fill="rgb(0, 0, 0)" stroke="rgb(66, 66, 66)" stroke-width="1px" opacity="0.25"></line><line x1="0" y1="163.37353846153846" x2="278.4255" y2="163.37353846153846" fill="rgb(0, 0, 0)" stroke="rgb(66, 66, 66)" stroke-width="1px" opacity="0.25"></line><line x1="0" y1="149.7590769230769" x2="278.4255" y2="149.7590769230769" fill="rgb(0, 0, 0)" stroke="rgb(66, 66, 66)" stroke-width="1px" opacity="0.25"></line><line x1="0" y1="136.1446153846154" x2="278.4255" y2="136.1446153846154" fill="rgb(0, 0, 0)" stroke="rgb(66, 66, 66)" stroke-width="1px" opacity="0.25"></line><line x1="0" y1="122.53015384615387" x2="278.4255" y2="122.53015384615387" fill="rgb(0, 0, 0)" stroke="rgb(66, 66, 66)" stroke-width="1px" opacity="0.25"></line><line x1="0" y1="108.91569230769231" x2="278.4255" y2="108.91569230769231" fill="rgb(0, 0, 0)" stroke="rgb(66, 66, 66)" stroke-width="1px" opacity="0.25"></line><line x1="0" y1="95.30123076923077" x2="278.4255" y2="95.30123076923077" fill="rgb(0, 0, 0)" stroke="rgb(66, 66, 66)" stroke-width="1px" opacity="0.25"></line><line x1="0" y1="81.68676923076923" x2="278.4255" y2="81.68676923076923" fill="rgb(0, 0, 0)" stroke="rgb(66, 66, 66)" stroke-width="1px" opacity="0.25"></line><line x1="0" y1="68.07230769230769" x2="278.4255" y2="68.07230769230769" fill="rgb(0, 0, 0)" stroke="rgb(66, 66, 66)" stroke-width="1px" opacity="0.25"></line><line x1="0" y1="54.45784615384618" x2="278.4255" y2="54.45784615384618" fill="rgb(0, 0, 0)" stroke="rgb(66, 66, 66)" stroke-width="1px" opacity="0.25"></line><line x1="0" y1="40.84338461538463" x2="278.4255" y2="40.84338461538463" fill="rgb(0, 0, 0)" stroke="rgb(66, 66, 66)" stroke-width="1px" opacity="0.25"></line><line x1="0" y1="27.228923076923078" x2="278.4255" y2="27.228923076923078" fill="rgb(0, 0, 0)" stroke="rgb(66, 66, 66)" stroke-width="1px" opacity="0.25"></line><line x1="0" y1="13.61446153846155" x2="278.4255" y2="13.61446153846155" fill="rgb(0, 0, 0)" stroke="rgb(66, 66, 66)" stroke-width="1px" opacity="0.25"></line><line x1="0" y1="0" x2="278.4255" y2="0" fill="rgb(0, 0, 0)" stroke="rgb(66, 66, 66)" stroke-width="1px" opacity="0.25"></line></g></g></g><g><g><line x1="0" y1="-163.37353846153843" x2="278.4255" y2="-163.37353846153843" fill="rgb(0, 0, 0)" stroke="rgb(153, 153, 153)" stroke-width="1.5px"></line></g></g><g><g><line x1="27.842550000000003" y1="0" x2="27.842550000000003" y2="176.988" fill="rgb(0, 0, 0)" stroke="rgb(153, 153, 153)" stroke-width="1.5px"></line></g></g><g><g><g><g><g><path stroke="rgb(255, 112, 67)" stroke-width="2px" d="M34.524762,185.72753058156513L35.081613,169.44645499406315L35.638464,159.85130690997275L36.195315,156.60171288673934L36.752166,154.94693097815755L37.309017000000004,144.2292398497384L37.865868000000006,127.56562716590908L38.422719,137.57052679547448L38.97957,136.0693170056834L39.536421,123.63773420754427L40.093272,115.93813307305929L40.650123,98.77773119699305L41.206973999999995,87.0696638672931L41.763825,78.63131924648285L42.320676,69.03937607158929L42.877527,63.34753602007267L43.434378,61.43673534148042L43.991229,53.52354474498039L44.54808,52.82388583904629L45.104931,45.73954399703956L45.661782,130.2635775968872L46.218633000000004,81.49828459697225L46.775484000000006,55.95208339081164L47.332335,37.95100643183107L47.889185999999995,23.71100722866786L48.446037,19.158982398758546L49.002888,79.65597655283631L49.559739,47.18679232498161L50.116589999999995,43.140969239731184L50.673441,29.872020878306735L51.230292,39.70635229163129L51.787143,95.87499563737741L52.343994,72.71821559872933L52.900845000000004,73.86963395577406L53.457696,83.04663955093659L54.014547,62.48877754024094L54.571398,41.50592682705343L55.128249000000004,30.859424692356317L55.685100000000006,38.7611860330234L56.241951,41.14616388707625L56.798801999999995,35.74537402762L57.355653,27.367874557583814L57.912504,20.4223683156106L58.469355,21.543558695800854L59.026205999999995,19.897405436373123L59.583057,18.47184908088014L60.139908,20.00095724662637L60.696759,19.51726645360648L61.25361,25.47107310593587L61.810461000000004,21.929495305722423L62.367312,24.563318232844935L62.924163,20.6749486861833L63.481014,27.358351374801813L64.037865,22.928544995736054L64.594716,17.91551704888724L65.151567,20.501812695064626L65.708418,19.904361941573256L66.265269,39.833818586065384L66.82212,48.09815751616231L67.37897099999999,47.13373080956431L67.935822,35.39335630776947L68.492673,48.863391647709356L69.049524,34.5983779080193L69.606375,30.272627984206718L70.163226,32.91546394646768L70.720077,24.88215171506032L71.276928,20.59627740598933L71.833779,17.269532810669585L72.39063,20.667784857834246L72.947481,20.356512812635675L73.504332,18.8973084206195L74.061183,36.62830917214499L74.61803400000001,43.913827041320125L75.174885,30.755188994796324L75.73173600000001,27.069900206623018L76.288587,30.772713807932597L76.845438,24.712059996954164L77.40228900000001,19.75480360396873L77.95914,19.81896824877183L78.51599099999999,40.2904682003101L79.072842,32.89800199624173L79.62969299999999,23.42774384755703L80.186544,22.61015026082468L80.74339499999999,20.026689528448898L81.300246,18.102310697531045L81.857097,20.11280005388992L82.41394799999999,21.157608124087417L82.970799,17.53056449662136L83.52765,15.162353918878983L84.084501,75.89408097808334L84.641352,49.27361942172876L85.19820299999999,36.26523030280463L85.755054,27.72956157548982L86.311905,58.24583529755008L86.868756,40.49942545397232L87.425607,31.745618332879793L87.982458,23.45617887467153L88.539309,27.103291919646853L89.09616,28.48960468435274L89.653011,22.575282634977096L90.209862,17.604233850829736L90.76671300000001,16.017014957990465L91.323564,22.10190226503522L91.880415,20.67771567354937L92.43726600000001,17.654629771631686L92.994117,17.091322280257593L93.55096800000001,14.20267118953401L94.107819,36.22582497394614L94.66467,28.166088881644338L95.22152100000001,45.14553218488262L95.77837199999999,33.22799228790756L96.335223,25.447690959315864L96.892074,22.18806659913969L97.44892499999999,19.423014078816944L98.005776,20.065698504164352L98.56262699999999,17.58231966314174L99.119478,18.576176973032478L99.676329,88.95886341519436L100.23317999999999,56.60313588892984L100.790031,40.34488994180167L101.346882,31.47877828124076L101.903733,23.19777477930778L102.460584,18.174926519254686L103.01743499999999,40.58683887793184L103.574286,39.13361293639234L104.131137,80.73526423007131L104.687988,112.22821703096743L105.244839,113.50786671308494L105.80169000000001,225.3284631210188L106.358541,147.94706363818582L106.915392,97.84816228581205L107.472243,64.99665040781018L108.029094,43.38904282468323L108.58594500000001,35.45482274622501L109.142796,24.609041508306042L109.699647,19.227472697242256L110.25649800000001,15.534199611316913L110.813349,14.560892173940424L111.37020000000001,60.174867310495955L111.927051,67.25206637150477L112.483902,44.09939492068823L113.04075300000001,30.529133675265204L113.59760399999999,24.570138131982667L114.154455,21.788223963391104L114.711306,17.17739637276335L115.26815699999999,14.605344642605413L115.825008,16.627526143039116L116.38185899999999,20.18686456157348L116.93871,19.14443860617627L117.495561,14.971968485589944L118.05241199999999,16.112476681211792L118.609263,14.59758544817199L119.166114,15.490569699877128L119.722965,14.493218122762784L120.279816,13.086983453654835L120.836667,18.654884151636015L121.393518,56.04274320384172L121.950369,44.97287250076806L122.50722,55.719486199852135L123.064071,76.01763616233754L123.62092200000001,53.35472335102096L124.177773,37.771206598520806L124.734624,30.77487737138855L125.291475,23.646079890128835L125.848326,16.436230421154296L126.40517700000001,18.988683050766003L126.962028,18.17617005282125L127.518879,17.030723083217016L128.07573,19.801842287336314L128.63258100000002,19.984793371657624L129.189432,17.16246694935568L129.746283,15.932059075863426L130.303134,18.193641220705633L130.859985,24.158320008014723L131.416836,20.683601032201892L131.97368699999998,21.26521245105074L132.530538,20.15488881419031L133.087389,20.296453436101913L133.64424,63.71747741374011L134.201091,47.37298579355396L134.75794199999999,41.802119926379355L135.314793,34.976284196574895L135.871644,24.158725470155595L136.428495,47.883086505789564L136.985346,37.734242969188664L137.542197,28.515700819437132L138.099048,29.424119134216948L138.655899,34.272832894163066L139.21275,35.90050538409845L139.769601,25.568063649395004L140.326452,21.991604236131696L140.883303,55.49312838458627L141.440154,40.142022732350874L141.997005,47.79289104202426L142.553856,33.195995115749405L143.110707,31.34187578528757L143.667558,28.309099250821536L144.224409,29.848767593429972L144.78126,56.290621317524376L145.338111,56.800857104009964L145.894962,60.77463227502499L146.45181300000002,41.33908757785283L147.008664,47.20308081631806L147.565515,39.11880374629697L148.122366,27.668792375036464L148.679217,40.53509101563093L149.23606800000002,85.01319965015472L149.792919,60.40741323450625L150.34977,38.01054732879696L150.906621,33.31088283488616L151.46347200000002,118.63306837503686L152.02032300000002,94.37950925196843L152.577174,84.44866481825449L153.134025,66.60621790220077L153.690876,269.6501109112329L154.24772700000003,252.61208369157382L154.80457800000002,157.7236530199499L155.36142900000002,97.58009971282418L155.91828,62.62698276197724L156.475131,47.42059768436575L157.03198199999997,42.61562690265038L157.588833,45.59207353864622L158.145684,39.87987072650498L158.70253499999998,26.845837345236458L159.25938599999998,25.07808375582515L159.816237,19.233298215273013L160.373088,26.660981463560653L160.929939,24.779567845333517L161.48678999999998,34.0405534834429L162.04364099999998,36.47240771215481L162.600492,34.07447942581233L163.157343,27.76725303907573L163.714194,19.6172180196817L164.271045,16.607401594367754L164.82789599999998,16.89155989180954L165.384747,18.696327522973988L165.941598,15.26914193693996L166.498449,14.114909930582503L167.0553,13.258716894845945L167.61215099999998,11.98613911820143L168.169002,10.620626280656671L168.725853,18.292926338779278L169.282704,13.733905517488038L169.839555,14.481465164511995L170.39640599999998,14.454652431126966L170.953257,15.961190071769622L171.510108,19.41652581838669L172.066959,15.484815104749906L172.62381,12.854382601310286L173.180661,12.097910858440553L173.737512,32.9003682961641L174.294363,64.60175802791633L174.851214,46.310310198231285L175.408065,35.16498417705247L175.964916,44.702973091228806L176.521767,31.357001639442824L177.078618,22.3590758069865L177.635469,20.718113252054057L178.19232,78.21650399137717L178.749171,60.729430585996624L179.306022,39.924262049712226L179.862873,32.23859617932425L180.419724,59.04073438855558L180.976575,38.19872916389388L181.53342600000002,28.785615512944855L182.09027700000001,21.159210212266846L182.647128,16.480684947703132L183.203979,13.307473135246672L183.76083,14.76134822710936L184.31768100000002,15.47788761025926L184.87453200000002,16.30419901131548L185.431383,13.530116202795709L185.988234,27.90904591294872L186.545085,35.082585906680606L187.10193600000002,26.206256586891424L187.65878700000002,24.49075639982069L188.215638,46.98070424304725L188.772489,46.37744266876723L189.32934,110.4273332460545L189.88619100000003,76.36114539270811L190.44304200000002,171.2605297764832L190.99989300000001,120.19312371992434L191.55674399999998,124.08470978194006L192.11359499999998,83.02718773498529L192.670446,54.08868714167662L193.227297,42.683296479453425L193.784148,29.87432842325558L194.34099899999998,29.72053596565543L194.89784999999998,24.318985854166517L195.454701,20.459684632047818L196.011552,15.016198706621509L196.568403,15.166219407195742L197.12525399999998,12.846192361122522L197.68210499999998,19.394902335342987L198.238956,23.598345379670928L198.795807,21.178966555324234L199.352658,22.042402505902675L199.90950899999999,44.01565087933389L200.46635999999998,35.8494647210853L201.023211,26.178687795986676L201.580062,21.03054483396408L202.136913,24.089061517729107L202.693764,26.3329717759141L203.25061499999998,25.838778738331946L203.807466,20.622118126893866L204.364317,24.030757438542416L204.921168,18.71998400205767L205.478019,15.608845237155688L206.03486999999998,17.17103078050515L206.591721,16.462961845167026L207.148572,14.160467206933765L207.705423,13.457553776889695L208.262274,13.182613119199887L208.81912499999999,35.08416299184721L209.375976,32.92010657410591L209.932827,25.6965133217876L210.489678,19.325490708151072L211.046529,22.036254394748678L211.60338000000002,19.528371079795402L212.160231,17.898075125611147L212.717082,15.173588015506454L213.273933,15.132483782973075L213.830784,10.60700004183512L214.38763500000002,14.609359098387868L214.944486,13.171482511815219L215.501337,11.701947444975312L216.058188,24.570348783734183L216.615039,32.214279022684266L217.17189000000002,42.17208454876119L217.728741,476.8778699480536L218.842443,188.44999485877432L219.399294,121.5971048787973L219.95614500000002,79.5161236626288L220.51299600000002,55.310228423909706L221.069847,39.74926919719038L221.626698,27.718946004703398L222.183549,22.63772355879693L222.74040000000002,18.7799848460443L223.29725100000002,17.592611337003028L223.854102,17.64792358831351L224.410953,16.414733191197303L224.967804,23.264308417027152L225.52465500000002,17.152099790030473L226.08150600000002,15.50156188767959L226.63835699999998,13.792198390043486L227.19520799999998,17.138686965509418L227.75205899999997,14.404449194927132L228.30891,13.247408856902142L228.865761,15.939388813457008L229.422612,17.902132628542372L229.97946299999998,17.317369514746325L230.53631399999998,15.950071322859133L231.093165,15.254719546803617L231.650016,24.804019704156406L232.206867,19.96071441672277L232.76371799999998,17.523321717584313L233.32056899999998,30.6557060847381L233.87742,26.307717509415024L234.434271,23.656214278132246L234.991122,19.973861940403946L235.54797299999998,16.911884770038572L236.10482399999998,17.09457587709414L236.661675,16.17926532905423L237.218526,18.874812085569168L237.775377,31.344884025838894L238.332228,24.112981184252877L238.889079,17.572520483752147L239.44593,22.029061380387272L240.002781,29.152410896918038L240.559632,26.485703777389833L241.116483,26.01774672445347L241.673334,21.326550736093978L242.230185,18.16794521477579L242.787036,17.983840524931985L243.343887,17.21523079999147L243.900738,19.371052618759503L244.457589,18.26738613580506L245.01444,27.414665355869847L245.571291,29.94252085121841L246.128142,32.39842757822769L246.684993,24.814154963602487L247.24184400000001,24.931773292504293L247.798695,90.45286682825056L248.355546,58.88169189310345L248.912397,47.27191076116726L249.469248,32.86906638177382L250.02609900000002,22.48574384661543L250.58295,22.45427635055888" style="fill: none;" fill="none"></path></g></g></g></g><g opacity="0.2"><g><g><g><path stroke="rgb(255, 112, 67)" stroke-width="2px" d="M32.297358,190.34572711460405L32.854209,152.4892635084299L33.41106,172.31251473602882L33.967911,204.14311688012344L34.524762,178.18912785045916L35.081613,145.0780021494352L35.638464,145.47738267781185L36.195315,151.7311416276785L36.752166,152.46592519569396L37.309017000000004,128.15723852480374L37.865868000000006,102.57443902962025L38.422719,152.5763520940634L38.97957,133.81763953751783L39.536421,104.99104178788112L40.093272,104.38898472998693L40.650123,73.0374671850938L41.206973999999995,69.50770156596258L41.763825,65.97386229140942L42.320676,54.651502214505115L42.877527,54.809790506656356L43.434378,58.57053725712117L43.991229,41.65376613939725L44.54808,51.77439786683596L45.104931,35.11303358327426L45.661782,257.0496111792051L46.218633000000004,8.350350918696481L46.775484000000006,17.632783411392797L47.332335,10.949391766988326L47.889185999999995,2.3510087911165782L48.446037,12.330945224321813L49.002888,170.40146722236045L49.559739,-1.5169838359539265L50.116589999999995,37.0722346253762L50.673441,9.968598362775959L51.230292,54.45784939978674L51.787143,180.1279606154515L52.343994,37.98304555078654L52.900845000000004,75.59676149104192L53.457696,96.8121479422496L54.014547,31.65198452612071L54.571398,10.031650758449846L55.128249000000004,14.88967149066925L55.685100000000006,50.61382804386433L56.241951,44.72363066812663L56.798801999999995,27.644189238474922L57.355653,14.801625352566058L57.912504,10.004108952669007L58.469355,23.225344266084534L59.026205999999995,17.428175547232996L59.583057,16.333514547641464L60.139908,22.294619495245136L60.696759,18.79173026407682L61.25361,34.40178308442923L61.810461000000004,16.617128605402442L62.367312,28.514052623528713L62.924163,14.842394366190987L63.481014,37.38345540772952L64.037865,16.283835427137532L64.594716,10.395975128613998L65.151567,24.381256164330715L65.708418,19.008185811336226L66.265269,69.72800355280363L66.82212,60.494665911307706L67.37897099999999,45.68709074966725L67.935822,17.78279455507718L68.492673,69.06844465761918L69.049524,13.200857298484218L69.606375,23.784003098487855L70.163226,36.87971788985912L70.720077,12.832183367949272L71.276928,14.167465942382812L71.833779,12.279415917689985L72.39063,25.765162928581237L72.947481,19.88960474483784L73.504332,16.708501832595243L74.061183,63.2248102994332L74.61803400000001,54.84210384508281L75.174885,11.01723192501068L75.73173600000001,21.54196702436301L76.288587,36.32693420989696L76.845438,15.621079280486477L77.40228900000001,12.318919014490575L77.95914,19.915215215976424L78.51599099999999,70.99771812761746L79.072842,21.809302690139187L79.62969299999999,9.222356624529917L80.186544,21.383759880726153L80.74339499999999,16.15149842988528L81.300246,15.21574245115428L81.857097,23.128534088428204L82.41394799999999,22.724820229383624L82.970799,12.089999055422277L83.52765,11.610038052265459L84.084501,166.99167156688983L84.641352,9.342927087196934L85.19820299999999,16.752646624418414L85.755054,14.926058484517624L86.311905,104.02024588064046L86.868756,13.879810688605678L87.425607,18.614907651241012L87.982458,11.022019687359148L88.539309,32.57396148710985L89.09616,30.56907383141152L89.653011,13.70379956091367L90.209862,10.147660674608678L90.76671300000001,13.636186618731577L91.323564,31.229233225602382L91.880415,18.541435786320626L92.43726600000001,13.120000918755162L92.994117,16.246361043196465L93.55096800000001,9.86969455344862L94.107819,69.26055565056436L94.66467,16.07648474319166L95.22152100000001,70.61469713973999L95.77837199999999,15.351682442445036L96.335223,13.777238966428328L96.892074,17.298630058875453L97.44892499999999,15.275435298332798L98.005776,21.0297251421855L98.56262699999999,13.857251401607805L99.119478,20.066962937868567L99.676329,194.5328930784372L100.23317999999999,8.069544599533081L100.790031,15.957521021109367L101.346882,18.179610790399416L101.903733,10.776269526408273L102.460584,10.64065412917505L103.01743499999999,74.20470741594754L103.574286,36.95377402408306L104.131137,143.13774117058975L104.687988,159.46764623231155L105.244839,115.42734123626121L105.80169000000001,393.0593577329195L106.358541,31.874964413936322L106.915392,22.699810257251446L107.472243,15.719382590807408L108.029094,10.977631449992842L108.58594500000001,23.553492628537704L109.142796,8.340369651427638L109.699647,11.155119480646581L110.25649800000001,9.99428998242892L110.813349,13.100931017875672L111.37020000000001,128.5958300153292L111.927051,77.867864963018L112.483902,9.370387744463414L113.04075300000001,10.173741807130677L113.59760399999999,15.631644817058856L114.154455,17.61535271050381L114.711306,10.2611549868217L115.26815699999999,10.747267047368576L115.825008,19.66079839368968L116.38185899999999,25.52587218937508L116.93871,17.580799673080445L117.495561,8.713263304710388L118.05241199999999,17.823238974644603L118.609263,12.32524859861228L119.166114,16.830046077434833L119.722965,12.99719075709123L120.279816,10.977631449992842L120.836667,27.006735198607814L121.393518,112.12453178215027L121.950369,28.368066446157613L122.50722,71.83940674847823L123.064071,106.4648611060656L123.62092200000001,19.360354134046126L124.177773,14.395931469770588L124.734624,20.280383530690134L125.291475,12.952883668239302L125.848326,5.621456217692453L126.40517700000001,22.817361995183518L126.962028,16.957400555904098L127.518879,15.312552628810591L128.07573,23.95852109351526L128.63258100000002,20.259219998139613L129.189432,12.92897731590271L129.746283,14.086447265625L130.303134,21.586014437968917L130.859985,33.10533818897835L131.416836,15.471522568482632L131.97368699999998,22.137629579324003L132.530538,18.489403358899644L133.087389,20.508800368969254L133.64424,128.84901338019736L134.201091,22.85624836327481L134.75794199999999,33.4458211256174L135.314793,24.737530601868258L135.871644,7.93238738052662L136.428495,83.46962805924049L136.985346,22.510977664287275L137.542197,14.687887594809903L138.099048,30.786746606386632L138.655899,41.54590353408228L139.21275,38.34201411900155L139.769601,10.06940104733981L140.326452,16.626915116236766L140.883303,105.74541460726812L141.440154,17.115364253997804L141.997005,59.269193506534286L142.553856,11.300651226337141L143.110707,28.560696789594807L143.667558,23.759934449122508L144.224409,32.158270107342645L144.78126,95.95340190366599L145.338111,57.56621078373837L145.894962,66.73529503154755L146.45181300000002,12.185770532094528L147.008664,55.99907067401592L147.565515,26.992388141265284L148.122366,10.493775318145753L148.679217,59.8345389765226L149.23606800000002,151.73036260194044L149.792919,23.49873361103352L150.34977,4.415248470233041L150.906621,26.26138609401997L151.46347200000002,246.61634668526284L152.02032300000002,57.9991705673658L152.577174,69.55239816768352L153.134025,39.8425475281202L153.690876,574.2159504247812L154.24772700000003,227.05504286208517L154.80457800000002,15.391007012513978L155.36142900000002,7.364769752135647L155.91828,10.197307335706867L156.475131,24.611020067948576L157.03198199999997,35.408170730077316L157.588833,50.05674349263999L158.145684,31.31156650829315L158.70253499999998,7.294787273333627L159.25938599999998,22.42645337170821L159.816237,10.466119904444772L160.373088,37.80250633599209L160.929939,21.957447417992825L161.48678999999998,47.93203194060693L162.04364099999998,40.120189055222745L162.600492,30.477586996298577L163.157343,18.306413458970887L163.714194,7.392165490590621L164.271045,12.092676956396842L164.82789599999998,17.317797337972213L165.384747,21.403478969720705L165.941598,10.128363557888926L166.498449,12.383561921046335L167.0553,11.974427341241116L167.61215099999998,10.07727245323475L168.169002,8.57235702433954L168.725853,29.801376425963188L169.282704,6.895374285551227L169.839555,15.602804635047912L170.39640599999998,14.414433331049413L170.953257,18.220996532733626L171.510108,24.59952943831224L172.066959,9.587249034294713L172.62381,8.908733846150923L173.180661,10.963203244135935L173.737512,64.10405445274941L174.294363,112.15384262554463L174.851214,18.873138453703667L175.408065,18.446995145284223L175.964916,59.009956462493314L176.521767,11.338044461763829L177.078618,8.862187058302082L177.635469,18.25666941965543L178.19232,164.46409010036174L178.749171,34.498820477925825L179.306022,8.716509245285618L179.862873,20.710097373742336L180.419724,99.24394170240257L180.976575,6.935721326901378L181.53342600000002,14.665945036521327L182.09027700000001,9.719602261249834L182.647128,9.462897050857544L183.203979,8.547655416562023L183.76083,16.942160864903393L184.31768100000002,16.55269668498407L184.87453200000002,17.543666112899782L185.431383,9.368991990016061L185.988234,49.47744047817818L186.545085,45.84289589727842L187.10193600000002,12.891762607207667L187.65878700000002,21.917506119214583L188.215638,80.71562600788704L188.772489,45.47255030734722L189.32934,206.5021691119854L189.88619100000003,25.26186361268851L190.44304200000002,313.6096063521458L190.99989300000001,43.59201463508606L191.55674399999998,129.9220888749636L192.11359499999998,21.440904664553138L192.670446,10.680936251713694L193.227297,25.575210486118607L193.784148,10.66087633895874L194.34099899999998,29.489847279255205L194.89784999999998,16.21666068693309L195.454701,14.670732798869794L196.011552,6.850969818482029L196.568403,15.391250458057112L197.12525399999998,9.36615179201274L197.68210499999998,29.217967296673695L198.238956,29.903509946162885L198.795807,17.549898318804235L199.352658,23.337556431770324L199.90950899999999,76.97552343948071L200.46635999999998,23.60018548371243L201.023211,11.672522408338702L201.580062,13.308330390930175L202.136913,28.67683654337663L202.693764,29.69883716319158L203.25061499999998,25.097489181958725L203.807466,12.797127209736766L204.364317,29.14371640601526L204.921168,10.75382384733054L205.478019,10.942137089802683L206.03486999999998,19.51430909552942L206.591721,15.400858442159809L207.148572,10.706725249583906L207.705423,12.403183631823618L208.262274,12.770202132665206L208.81912499999999,67.93648780081823L209.375976,29.674021947493923L209.932827,14.861123443310076L210.489678,9.768956787696254L211.046529,26.102399924645056L211.60338000000002,15.76654610736555L212.160231,15.452631194334769L212.717082,11.086857350349426L213.273933,15.070827434173L213.830784,3.8187744301282533L214.38763500000002,20.61289768321699L214.944486,11.014667631956256L215.501337,9.49764484471541L216.058188,43.87295079187247L216.615039,43.680174381109396L217.17189000000002,57.10879283787656L217.728741,1128.9365480469924L218.285592,24.215404830639176L218.842443,27.40566129530393L219.399294,21.317769908831675L219.95614500000002,16.394651838375985L220.51299600000002,19.001385565831125L221.069847,16.407830357111425L221.626698,9.6734612159729L222.183549,15.015889889937187L222.74040000000002,12.993376776915337L223.29725100000002,15.811551073441136L223.854102,17.73089196527921L224.410953,14.564947595522959L224.967804,33.53867125577193L225.52465500000002,7.983786849535436L226.08150600000002,13.025755034153276L226.63835699999998,11.228153143589312L227.19520799999998,22.158419828708357L227.75205899999997,10.303092539053702L228.30891,11.511848349864668L228.865761,19.977358748289262L229.422612,20.84624835117048L229.97946299999998,16.440224844052256L230.53631399999998,13.899124035028322L231.093165,14.211691882720363L231.650016,39.127969940185544L232.206867,12.69575648557223L232.76371799999998,13.867232668876648L233.32056899999998,50.354282635468714L233.87742,19.785734646430384L234.434271,19.678959431208103L234.991122,14.45033343381148L235.54797299999998,12.318919014490575L236.10482399999998,17.36861253767747L236.661675,14.806299506994403L237.218526,22.918132220341604L237.775377,50.04999193624351L238.332228,13.265126921873833L238.889079,7.7618294330010125L239.44593,28.713872725340046L240.002781,39.8374351717142L240.559632,22.485643098097587L241.116483,25.31581114504888L241.673334,14.289756753554714L242.230185,13.430036932798542L242.787036,17.707683490166293L243.343887,16.062316212580757L243.900738,22.60478534691151L244.457589,16.61188641137343L245.01444,41.135584185967076L245.571291,33.73430409424122L246.128142,36.08228766874167L246.684993,13.437746041664708L247.24184400000001,25.108200785856987L247.798695,188.73450713186995L248.355546,11.524929490382856L248.912397,29.857239063262938L249.469248,11.26479981268369L250.02609900000002,6.910760043877835L250.58295,22.40707510647408" style="fill: none;" fill="none"></path></g></g></g></g></g></g><g transform="translate(51, 176)" clip-path="url(#clip_1)"><clipPath id="clip_1"><rect width="278" height="22"></rect></clipPath><g><g><line x1="0" y1="0" x2="0" y2="5" style="visibility: inherit;" fill="rgb(0, 0, 0)" stroke="rgb(204, 204, 204)" stroke-width="1px"></line><line x1="27.842550000000003" y1="0" x2="27.842550000000003" y2="5" style="visibility: inherit;" fill="rgb(0, 0, 0)" stroke="rgb(204, 204, 204)" stroke-width="1px"></line><line x1="55.685100000000006" y1="0" x2="55.685100000000006" y2="5" style="visibility: inherit;" fill="rgb(0, 0, 0)" stroke="rgb(204, 204, 204)" stroke-width="1px"></line><line x1="83.52765" y1="0" x2="83.52765" y2="5" style="visibility: inherit;" fill="rgb(0, 0, 0)" stroke="rgb(204, 204, 204)" stroke-width="1px"></line><line x1="111.37020000000001" y1="0" x2="111.37020000000001" y2="5" style="visibility: inherit;" fill="rgb(0, 0, 0)" stroke="rgb(204, 204, 204)" stroke-width="1px"></line><line x1="139.21275" y1="0" x2="139.21275" y2="5" style="visibility: inherit;" fill="rgb(0, 0, 0)" stroke="rgb(204, 204, 204)" stroke-width="1px"></line><line x1="167.0553" y1="0" x2="167.0553" y2="5" style="visibility: inherit;" fill="rgb(0, 0, 0)" stroke="rgb(204, 204, 204)" stroke-width="1px"></line><line x1="194.89784999999998" y1="0" x2="194.89784999999998" y2="5" style="visibility: inherit;" fill="rgb(0, 0, 0)" stroke="rgb(204, 204, 204)" stroke-width="1px"></line><line x1="222.74040000000002" y1="0" x2="222.74040000000002" y2="5" style="visibility: inherit;" fill="rgb(0, 0, 0)" stroke="rgb(204, 204, 204)" stroke-width="1px"></line><line x1="250.58295" y1="0" x2="250.58295" y2="5" style="visibility: inherit;" fill="rgb(0, 0, 0)" stroke="rgb(204, 204, 204)" stroke-width="1px"></line><line x1="278.4255" y1="0" x2="278.4255" y2="5" style="visibility: inherit;" fill="rgb(0, 0, 0)" stroke="rgb(204, 204, 204)" stroke-width="1px"></line></g><g transform="translate(0, 8)"><text x="0" y="0" dx="0em" dy="0.95em" style="text-anchor: middle; visibility: hidden; font-family: Roboto, sans-serif; font-size: 12px; font-weight: 200;" fill="rgb(33, 33, 33)" stroke="none" stroke-width="1px">-200k</text><text x="27.842550000000003" y="0" dx="0em" dy="0.95em" style="text-anchor: middle; visibility: inherit; font-family: Roboto, sans-serif; font-size: 12px; font-weight: 200;" fill="rgb(33, 33, 33)" stroke="none" stroke-width="1px">0</text><text x="55.685100000000006" y="0" dx="0em" dy="0.95em" style="text-anchor: middle; visibility: hidden; font-family: Roboto, sans-serif; font-size: 12px; font-weight: 200;" fill="rgb(33, 33, 33)" stroke="none" stroke-width="1px">200k</text><text x="83.52765" y="0" dx="0em" dy="0.95em" style="text-anchor: middle; visibility: inherit; font-family: Roboto, sans-serif; font-size: 12px; font-weight: 200;" fill="rgb(33, 33, 33)" stroke="none" stroke-width="1px">400k</text><text x="111.37020000000001" y="0" dx="0em" dy="0.95em" style="text-anchor: middle; visibility: hidden; font-family: Roboto, sans-serif; font-size: 12px; font-weight: 200;" fill="rgb(33, 33, 33)" stroke="none" stroke-width="1px">600k</text><text x="139.21275" y="0" dx="0em" dy="0.95em" style="text-anchor: middle; visibility: inherit; font-family: Roboto, sans-serif; font-size: 12px; font-weight: 200;" fill="rgb(33, 33, 33)" stroke="none" stroke-width="1px">800k</text><text x="167.0553" y="0" dx="0em" dy="0.95em" style="text-anchor: middle; visibility: hidden; font-family: Roboto, sans-serif; font-size: 12px; font-weight: 200;" fill="rgb(33, 33, 33)" stroke="none" stroke-width="1px">1M</text><text x="194.89784999999998" y="0" dx="0em" dy="0.95em" style="text-anchor: middle; visibility: inherit; font-family: Roboto, sans-serif; font-size: 12px; font-weight: 200;" fill="rgb(33, 33, 33)" stroke="none" stroke-width="1px">1.2M</text><text x="222.74040000000002" y="0" dx="0em" dy="0.95em" style="text-anchor: middle; visibility: hidden; font-family: Roboto, sans-serif; font-size: 12px; font-weight: 200;" fill="rgb(33, 33, 33)" stroke="none" stroke-width="1px">1.4M</text><text x="250.58295" y="0" dx="0em" dy="0.95em" style="text-anchor: middle; visibility: inherit; font-family: Roboto, sans-serif; font-size: 12px; font-weight: 200;" fill="rgb(33, 33, 33)" stroke="none" stroke-width="1px">1.6M</text><text x="278.4255" y="0" dx="0em" dy="0.95em" style="text-anchor: middle; visibility: hidden; font-family: Roboto, sans-serif; font-size: 12px; font-weight: 200;" fill="rgb(33, 33, 33)" stroke="none" stroke-width="1px">1.8M</text></g><line x1="0" y1="0" x2="278.4255" y2="0" fill="rgb(0, 0, 0)" stroke="rgb(204, 204, 204)" stroke-width="1px"></line></g></g></g></g></svg>